<?xml version="1.0" encoding="utf-8" standalone="no"?>
<!DOCTYPE svg PUBLIC "-//W3C//DTD SVG 1.1//EN"
  "http://www.w3.org/Graphics/SVG/1.1/DTD/svg11.dtd">
<!-- Created with matplotlib (http://matplotlib.org/) -->
<svg height="345pt" version="1.1" viewBox="0 0 460 345" width="460pt" xmlns="http://www.w3.org/2000/svg" xmlns:xlink="http://www.w3.org/1999/xlink">
 <defs>
  <style type="text/css">
*{stroke-linecap:butt;stroke-linejoin:round;}
  </style>
 </defs>
 <g id="figure_1">
  <g id="patch_1">
   <path d="M 0 345.6 
L 460.8 345.6 
L 460.8 0 
L 0 0 
z
" style="fill:#ffffff;"/>
  </g>
  <g id="axes_1">
   <g id="patch_2">
    <path d="M 57.6 307.584 
L 414.72 307.584 
L 414.72 41.472 
L 57.6 41.472 
z
" style="fill:#ffffff;"/>
   </g>
   <g id="matplotlib.axis_1">
    <g id="xtick_1">
     <g id="line2d_1">
      <defs>
       <path d="M 0 0 
L 0 3.5 
" id="mc4eebabde3" style="stroke:#000000;stroke-width:0.8;"/>
      </defs>
      <g>
       <use style="stroke:#000000;stroke-width:0.8;" x="73.832727" xlink:href="#mc4eebabde3" y="307.584"/>
      </g>
     </g>
     <g id="text_1">
      <!-- 0.0 -->
      <defs>
       <path d="M 31.78125 66.40625 
Q 24.171875 66.40625 20.328125 58.90625 
Q 16.5 51.421875 16.5 36.375 
Q 16.5 21.390625 20.328125 13.890625 
Q 24.171875 6.390625 31.78125 6.390625 
Q 39.453125 6.390625 43.28125 13.890625 
Q 47.125 21.390625 47.125 36.375 
Q 47.125 51.421875 43.28125 58.90625 
Q 39.453125 66.40625 31.78125 66.40625 
z
M 31.78125 74.21875 
Q 44.046875 74.21875 50.515625 64.515625 
Q 56.984375 54.828125 56.984375 36.375 
Q 56.984375 17.96875 50.515625 8.265625 
Q 44.046875 -1.421875 31.78125 -1.421875 
Q 19.53125 -1.421875 13.0625 8.265625 
Q 6.59375 17.96875 6.59375 36.375 
Q 6.59375 54.828125 13.0625 64.515625 
Q 19.53125 74.21875 31.78125 74.21875 
z
" id="DejaVuSans-30"/>
       <path d="M 10.6875 12.40625 
L 21 12.40625 
L 21 0 
L 10.6875 0 
z
" id="DejaVuSans-2e"/>
      </defs>
      <g transform="translate(65.881165 322.182437)scale(0.1 -0.1)">
       <use xlink:href="#DejaVuSans-30"/>
       <use x="63.623047" xlink:href="#DejaVuSans-2e"/>
       <use x="95.410156" xlink:href="#DejaVuSans-30"/>
      </g>
     </g>
    </g>
    <g id="xtick_2">
     <g id="line2d_2">
      <g>
       <use style="stroke:#000000;stroke-width:0.8;" x="138.763636" xlink:href="#mc4eebabde3" y="307.584"/>
      </g>
     </g>
     <g id="text_2">
      <!-- 0.2 -->
      <defs>
       <path d="M 19.1875 8.296875 
L 53.609375 8.296875 
L 53.609375 0 
L 7.328125 0 
L 7.328125 8.296875 
Q 12.9375 14.109375 22.625 23.890625 
Q 32.328125 33.6875 34.8125 36.53125 
Q 39.546875 41.84375 41.421875 45.53125 
Q 43.3125 49.21875 43.3125 52.78125 
Q 43.3125 58.59375 39.234375 62.25 
Q 35.15625 65.921875 28.609375 65.921875 
Q 23.96875 65.921875 18.8125 64.3125 
Q 13.671875 62.703125 7.8125 59.421875 
L 7.8125 69.390625 
Q 13.765625 71.78125 18.9375 73 
Q 24.125 74.21875 28.421875 74.21875 
Q 39.75 74.21875 46.484375 68.546875 
Q 53.21875 62.890625 53.21875 53.421875 
Q 53.21875 48.921875 51.53125 44.890625 
Q 49.859375 40.875 45.40625 35.40625 
Q 44.1875 33.984375 37.640625 27.21875 
Q 31.109375 20.453125 19.1875 8.296875 
z
" id="DejaVuSans-32"/>
      </defs>
      <g transform="translate(130.812074 322.182437)scale(0.1 -0.1)">
       <use xlink:href="#DejaVuSans-30"/>
       <use x="63.623047" xlink:href="#DejaVuSans-2e"/>
       <use x="95.410156" xlink:href="#DejaVuSans-32"/>
      </g>
     </g>
    </g>
    <g id="xtick_3">
     <g id="line2d_3">
      <g>
       <use style="stroke:#000000;stroke-width:0.8;" x="203.694545" xlink:href="#mc4eebabde3" y="307.584"/>
      </g>
     </g>
     <g id="text_3">
      <!-- 0.4 -->
      <defs>
       <path d="M 37.796875 64.3125 
L 12.890625 25.390625 
L 37.796875 25.390625 
z
M 35.203125 72.90625 
L 47.609375 72.90625 
L 47.609375 25.390625 
L 58.015625 25.390625 
L 58.015625 17.1875 
L 47.609375 17.1875 
L 47.609375 0 
L 37.796875 0 
L 37.796875 17.1875 
L 4.890625 17.1875 
L 4.890625 26.703125 
z
" id="DejaVuSans-34"/>
      </defs>
      <g transform="translate(195.742983 322.182437)scale(0.1 -0.1)">
       <use xlink:href="#DejaVuSans-30"/>
       <use x="63.623047" xlink:href="#DejaVuSans-2e"/>
       <use x="95.410156" xlink:href="#DejaVuSans-34"/>
      </g>
     </g>
    </g>
    <g id="xtick_4">
     <g id="line2d_4">
      <g>
       <use style="stroke:#000000;stroke-width:0.8;" x="268.625455" xlink:href="#mc4eebabde3" y="307.584"/>
      </g>
     </g>
     <g id="text_4">
      <!-- 0.6 -->
      <defs>
       <path d="M 33.015625 40.375 
Q 26.375 40.375 22.484375 35.828125 
Q 18.609375 31.296875 18.609375 23.390625 
Q 18.609375 15.53125 22.484375 10.953125 
Q 26.375 6.390625 33.015625 6.390625 
Q 39.65625 6.390625 43.53125 10.953125 
Q 47.40625 15.53125 47.40625 23.390625 
Q 47.40625 31.296875 43.53125 35.828125 
Q 39.65625 40.375 33.015625 40.375 
z
M 52.59375 71.296875 
L 52.59375 62.3125 
Q 48.875 64.0625 45.09375 64.984375 
Q 41.3125 65.921875 37.59375 65.921875 
Q 27.828125 65.921875 22.671875 59.328125 
Q 17.53125 52.734375 16.796875 39.40625 
Q 19.671875 43.65625 24.015625 45.921875 
Q 28.375 48.1875 33.59375 48.1875 
Q 44.578125 48.1875 50.953125 41.515625 
Q 57.328125 34.859375 57.328125 23.390625 
Q 57.328125 12.15625 50.6875 5.359375 
Q 44.046875 -1.421875 33.015625 -1.421875 
Q 20.359375 -1.421875 13.671875 8.265625 
Q 6.984375 17.96875 6.984375 36.375 
Q 6.984375 53.65625 15.1875 63.9375 
Q 23.390625 74.21875 37.203125 74.21875 
Q 40.921875 74.21875 44.703125 73.484375 
Q 48.484375 72.75 52.59375 71.296875 
z
" id="DejaVuSans-36"/>
      </defs>
      <g transform="translate(260.673892 322.182437)scale(0.1 -0.1)">
       <use xlink:href="#DejaVuSans-30"/>
       <use x="63.623047" xlink:href="#DejaVuSans-2e"/>
       <use x="95.410156" xlink:href="#DejaVuSans-36"/>
      </g>
     </g>
    </g>
    <g id="xtick_5">
     <g id="line2d_5">
      <g>
       <use style="stroke:#000000;stroke-width:0.8;" x="333.556364" xlink:href="#mc4eebabde3" y="307.584"/>
      </g>
     </g>
     <g id="text_5">
      <!-- 0.8 -->
      <defs>
       <path d="M 31.78125 34.625 
Q 24.75 34.625 20.71875 30.859375 
Q 16.703125 27.09375 16.703125 20.515625 
Q 16.703125 13.921875 20.71875 10.15625 
Q 24.75 6.390625 31.78125 6.390625 
Q 38.8125 6.390625 42.859375 10.171875 
Q 46.921875 13.96875 46.921875 20.515625 
Q 46.921875 27.09375 42.890625 30.859375 
Q 38.875 34.625 31.78125 34.625 
z
M 21.921875 38.8125 
Q 15.578125 40.375 12.03125 44.71875 
Q 8.5 49.078125 8.5 55.328125 
Q 8.5 64.0625 14.71875 69.140625 
Q 20.953125 74.21875 31.78125 74.21875 
Q 42.671875 74.21875 48.875 69.140625 
Q 55.078125 64.0625 55.078125 55.328125 
Q 55.078125 49.078125 51.53125 44.71875 
Q 48 40.375 41.703125 38.8125 
Q 48.828125 37.15625 52.796875 32.3125 
Q 56.78125 27.484375 56.78125 20.515625 
Q 56.78125 9.90625 50.3125 4.234375 
Q 43.84375 -1.421875 31.78125 -1.421875 
Q 19.734375 -1.421875 13.25 4.234375 
Q 6.78125 9.90625 6.78125 20.515625 
Q 6.78125 27.484375 10.78125 32.3125 
Q 14.796875 37.15625 21.921875 38.8125 
z
M 18.3125 54.390625 
Q 18.3125 48.734375 21.84375 45.5625 
Q 25.390625 42.390625 31.78125 42.390625 
Q 38.140625 42.390625 41.71875 45.5625 
Q 45.3125 48.734375 45.3125 54.390625 
Q 45.3125 60.0625 41.71875 63.234375 
Q 38.140625 66.40625 31.78125 66.40625 
Q 25.390625 66.40625 21.84375 63.234375 
Q 18.3125 60.0625 18.3125 54.390625 
z
" id="DejaVuSans-38"/>
      </defs>
      <g transform="translate(325.604801 322.182437)scale(0.1 -0.1)">
       <use xlink:href="#DejaVuSans-30"/>
       <use x="63.623047" xlink:href="#DejaVuSans-2e"/>
       <use x="95.410156" xlink:href="#DejaVuSans-38"/>
      </g>
     </g>
    </g>
    <g id="xtick_6">
     <g id="line2d_6">
      <g>
       <use style="stroke:#000000;stroke-width:0.8;" x="398.487273" xlink:href="#mc4eebabde3" y="307.584"/>
      </g>
     </g>
     <g id="text_6">
      <!-- 1.0 -->
      <defs>
       <path d="M 12.40625 8.296875 
L 28.515625 8.296875 
L 28.515625 63.921875 
L 10.984375 60.40625 
L 10.984375 69.390625 
L 28.421875 72.90625 
L 38.28125 72.90625 
L 38.28125 8.296875 
L 54.390625 8.296875 
L 54.390625 0 
L 12.40625 0 
z
" id="DejaVuSans-31"/>
      </defs>
      <g transform="translate(390.53571 322.182437)scale(0.1 -0.1)">
       <use xlink:href="#DejaVuSans-31"/>
       <use x="63.623047" xlink:href="#DejaVuSans-2e"/>
       <use x="95.410156" xlink:href="#DejaVuSans-30"/>
      </g>
     </g>
    </g>
   </g>
   <g id="matplotlib.axis_2">
    <g id="ytick_1">
     <g id="line2d_7">
      <defs>
       <path d="M 0 0 
L -3.5 0 
" id="m4649008ac6" style="stroke:#000000;stroke-width:0.8;"/>
      </defs>
      <g>
       <use style="stroke:#000000;stroke-width:0.8;" x="57.6" xlink:href="#m4649008ac6" y="296.558442"/>
      </g>
     </g>
     <g id="text_7">
      <!-- 0.0 -->
      <g transform="translate(34.696875 300.357661)scale(0.1 -0.1)">
       <use xlink:href="#DejaVuSans-30"/>
       <use x="63.623047" xlink:href="#DejaVuSans-2e"/>
       <use x="95.410156" xlink:href="#DejaVuSans-30"/>
      </g>
     </g>
    </g>
    <g id="ytick_2">
     <g id="line2d_8">
      <g>
       <use style="stroke:#000000;stroke-width:0.8;" x="57.6" xlink:href="#m4649008ac6" y="247.960354"/>
      </g>
     </g>
     <g id="text_8">
      <!-- 0.2 -->
      <g transform="translate(34.696875 251.759573)scale(0.1 -0.1)">
       <use xlink:href="#DejaVuSans-30"/>
       <use x="63.623047" xlink:href="#DejaVuSans-2e"/>
       <use x="95.410156" xlink:href="#DejaVuSans-32"/>
      </g>
     </g>
    </g>
    <g id="ytick_3">
     <g id="line2d_9">
      <g>
       <use style="stroke:#000000;stroke-width:0.8;" x="57.6" xlink:href="#m4649008ac6" y="199.362265"/>
      </g>
     </g>
     <g id="text_9">
      <!-- 0.4 -->
      <g transform="translate(34.696875 203.161484)scale(0.1 -0.1)">
       <use xlink:href="#DejaVuSans-30"/>
       <use x="63.623047" xlink:href="#DejaVuSans-2e"/>
       <use x="95.410156" xlink:href="#DejaVuSans-34"/>
      </g>
     </g>
    </g>
    <g id="ytick_4">
     <g id="line2d_10">
      <g>
       <use style="stroke:#000000;stroke-width:0.8;" x="57.6" xlink:href="#m4649008ac6" y="150.764177"/>
      </g>
     </g>
     <g id="text_10">
      <!-- 0.6 -->
      <g transform="translate(34.696875 154.563396)scale(0.1 -0.1)">
       <use xlink:href="#DejaVuSans-30"/>
       <use x="63.623047" xlink:href="#DejaVuSans-2e"/>
       <use x="95.410156" xlink:href="#DejaVuSans-36"/>
      </g>
     </g>
    </g>
    <g id="ytick_5">
     <g id="line2d_11">
      <g>
       <use style="stroke:#000000;stroke-width:0.8;" x="57.6" xlink:href="#m4649008ac6" y="102.166088"/>
      </g>
     </g>
     <g id="text_11">
      <!-- 0.8 -->
      <g transform="translate(34.696875 105.965307)scale(0.1 -0.1)">
       <use xlink:href="#DejaVuSans-30"/>
       <use x="63.623047" xlink:href="#DejaVuSans-2e"/>
       <use x="95.410156" xlink:href="#DejaVuSans-38"/>
      </g>
     </g>
    </g>
    <g id="ytick_6">
     <g id="line2d_12">
      <g>
       <use style="stroke:#000000;stroke-width:0.8;" x="57.6" xlink:href="#m4649008ac6" y="53.568"/>
      </g>
     </g>
     <g id="text_12">
      <!-- 1.0 -->
      <g transform="translate(34.696875 57.367219)scale(0.1 -0.1)">
       <use xlink:href="#DejaVuSans-31"/>
       <use x="63.623047" xlink:href="#DejaVuSans-2e"/>
       <use x="95.410156" xlink:href="#DejaVuSans-30"/>
      </g>
     </g>
    </g>
   </g>
   <g id="line2d_13">
    <path clip-path="url(#p621da8e48c)" d="M 73.832727 267.60639 
L 73.832727 116.642115 
L 74.678182 115.608113 
L 75.523636 115.608113 
L 75.523636 112.506107 
L 76.369091 112.506107 
L 76.369091 104.234092 
L 77.214545 104.234092 
L 77.214545 103.20009 
L 78.06 103.20009 
L 78.06 89.758066 
L 78.905455 89.758066 
L 78.905455 87.690062 
L 79.750909 87.690062 
L 79.750909 85.622058 
L 89.896364 85.622058 
L 89.896364 83.554055 
L 92.432727 83.554055 
L 92.432727 82.520053 
L 93.278182 82.520053 
L 93.278182 79.418047 
L 98.350909 79.418047 
L 99.196364 78.384045 
L 100.041818 78.384045 
L 100.041818 75.28204 
L 102.578182 75.28204 
L 102.578182 73.214036 
L 103.423636 73.214036 
L 103.423636 71.146032 
L 104.269091 70.11203 
L 104.269091 68.044026 
L 105.114545 67.010024 
L 111.878182 67.010024 
L 111.878182 64.942021 
L 112.723636 64.942021 
L 112.723636 62.874017 
L 115.26 62.874017 
L 115.26 61.840015 
L 122.023636 61.840015 
L 123.714545 60.806013 
L 123.714545 59.772011 
L 124.56 59.772011 
L 125.405455 58.738009 
L 150.769091 58.738009 
L 150.769091 57.704008 
L 158.378182 57.704008 
L 159.223636 56.670006 
L 160.914545 56.670006 
L 161.76 55.636004 
L 162.605455 55.636004 
L 162.605455 54.602002 
L 173.596364 54.602002 
L 174.441818 53.568 
L 398.487273 53.568 
L 398.487273 53.568 
" style="fill:none;stroke:#1f77b4;stroke-linecap:square;stroke-width:1.5;"/>
   </g>
   <g id="line2d_14">
    <path clip-path="url(#p621da8e48c)" d="M 73.832727 276.438215 
L 73.832727 158.812268 
L 74.535443 158.812268 
L 74.535443 143.33517 
L 75.238158 143.33517 
L 75.238158 141.78746 
L 76.643589 141.78746 
L 76.643589 140.23975 
L 77.346305 140.23975 
L 77.346305 135.596621 
L 78.04902 135.596621 
L 78.04902 132.501201 
L 79.454451 132.501201 
L 79.454451 127.858072 
L 80.157166 127.858072 
L 80.157166 121.667232 
L 80.859882 121.667232 
L 80.859882 118.571813 
L 81.562597 118.571813 
L 81.562597 115.476393 
L 85.076175 115.476393 
L 85.076175 112.380973 
L 85.77889 112.380973 
L 85.77889 109.285554 
L 87.184321 109.285554 
L 87.887037 107.737844 
L 87.887037 106.190134 
L 89.292468 104.642424 
L 89.995183 103.094714 
L 89.995183 101.547005 
L 90.697898 101.547005 
L 90.697898 98.451585 
L 91.400614 98.451585 
L 91.400614 96.903875 
L 92.806045 96.903875 
L 94.211476 95.356165 
L 94.914191 95.356165 
L 94.914191 93.808455 
L 95.616907 93.808455 
L 95.616907 92.260746 
L 96.319622 92.260746 
L 97.022338 90.713036 
L 99.8332 90.713036 
L 99.8332 89.165326 
L 104.752208 89.165326 
L 104.752208 87.617616 
L 105.454923 87.617616 
L 106.157639 86.069906 
L 107.56307 84.522196 
L 107.56307 81.426777 
L 108.265785 81.426777 
L 108.265785 79.879067 
L 108.968501 78.331357 
L 108.968501 76.783647 
L 110.373932 76.783647 
L 110.373932 75.235938 
L 112.482078 75.235938 
L 112.482078 73.688228 
L 115.29294 73.688228 
L 117.401086 72.140518 
L 117.401086 70.592808 
L 118.103802 69.045098 
L 134.266257 69.045098 
L 134.266257 67.497388 
L 138.48255 67.497388 
L 138.48255 64.401969 
L 141.293412 64.401969 
L 141.996128 62.854259 
L 147.617851 62.854259 
L 149.023282 59.758839 
L 160.26673 59.758839 
L 160.26673 58.211129 
L 163.077591 58.211129 
L 163.780307 56.66342 
L 248.106163 56.66342 
L 253.025171 55.11571 
L 262.863188 55.11571 
L 263.565903 53.568 
L 398.487273 53.568 
L 398.487273 53.568 
" style="fill:none;stroke:#ff7f0e;stroke-linecap:square;stroke-width:1.5;"/>
   </g>
   <g id="line2d_15">
    <path clip-path="url(#p621da8e48c)" d="M 73.832727 291.20623 
L 73.832727 157.40092 
L 74.660928 156.330478 
L 74.660928 148.837381 
L 75.489128 148.837381 
L 75.489128 135.992071 
L 76.317328 134.921628 
L 76.317328 133.851186 
L 77.145529 133.851186 
L 77.145529 125.287646 
L 77.973729 125.287646 
L 77.973729 108.160566 
L 78.801929 107.090124 
L 78.801929 106.019681 
L 79.63013 106.019681 
L 79.63013 98.526584 
L 81.286531 98.526584 
L 81.286531 97.456142 
L 82.114731 97.456142 
L 82.942931 96.385699 
L 82.942931 95.315257 
L 83.771132 95.315257 
L 83.771132 94.244814 
L 84.599332 93.174372 
L 84.599332 91.033487 
L 85.427532 91.033487 
L 85.427532 89.963044 
L 86.255733 89.963044 
L 86.255733 88.892602 
L 89.568534 88.892602 
L 89.568534 87.822159 
L 90.396735 87.822159 
L 90.396735 85.681274 
L 91.224935 85.681274 
L 91.224935 84.610832 
L 93.709536 84.610832 
L 93.709536 82.469947 
L 94.537737 82.469947 
L 97.022338 79.258619 
L 98.678738 79.258619 
L 98.678738 78.188177 
L 99.506939 78.188177 
L 99.506939 76.047292 
L 101.16334 74.97685 
L 101.16334 73.906407 
L 102.81974 73.906407 
L 103.647941 72.835965 
L 103.647941 71.765522 
L 106.132542 71.765522 
L 106.960742 70.69508 
L 106.960742 69.624637 
L 112.758145 69.624637 
L 112.758145 66.41331 
L 118.555547 66.41331 
L 118.555547 64.272425 
L 121.040148 64.272425 
L 121.040148 62.13154 
L 121.868349 61.061097 
L 135.119555 61.061097 
L 135.119555 59.990655 
L 136.775955 58.920212 
L 136.775955 57.84977 
L 137.604156 57.84977 
L 138.432356 56.779327 
L 138.432356 55.708885 
L 149.198961 55.708885 
L 150.855362 54.638442 
L 229.534397 54.638442 
L 229.534397 53.568 
L 398.487273 53.568 
L 398.487273 53.568 
" style="fill:none;stroke:#2ca02c;stroke-linecap:square;stroke-width:1.5;"/>
   </g>
   <g id="line2d_16">
    <path clip-path="url(#p621da8e48c)" d="M 73.832727 285.184422 
L 73.832727 125.948132 
L 74.187929 125.948132 
L 74.187929 120.778122 
L 74.543131 120.778122 
L 74.543131 106.302096 
L 74.898333 106.302096 
L 74.898333 99.064083 
L 75.608737 99.064083 
L 75.608737 98.030081 
L 76.319141 98.030081 
L 76.319141 96.996079 
L 76.674343 96.996079 
L 76.674343 95.962077 
L 77.739948 95.962077 
L 77.739948 94.928075 
L 78.805554 94.928075 
L 78.805554 92.860072 
L 79.160756 92.860072 
L 79.160756 91.82607 
L 80.226362 91.82607 
L 80.226362 90.792068 
L 81.647169 90.792068 
L 81.647169 89.758066 
L 83.778381 89.758066 
L 83.778381 88.724064 
L 84.133583 88.724064 
L 84.133583 87.690062 
L 84.488785 87.690062 
L 84.488785 86.65606 
L 84.843986 86.65606 
L 84.843986 85.622058 
L 85.199188 85.622058 
L 85.199188 82.520053 
L 85.55439 82.520053 
L 85.55439 81.486051 
L 85.909592 81.486051 
L 85.909592 80.452049 
L 86.975198 80.452049 
L 86.975198 79.418047 
L 88.040804 79.418047 
L 88.040804 78.384045 
L 88.396006 78.384045 
L 88.396006 77.350043 
L 89.106409 77.350043 
L 89.106409 76.316041 
L 89.461611 76.316041 
L 89.461611 75.28204 
L 89.816813 75.28204 
L 89.816813 74.248038 
L 90.527217 74.248038 
L 90.527217 73.214036 
L 93.368832 73.214036 
L 93.368832 72.180034 
L 95.144842 72.180034 
L 95.144842 71.146032 
L 97.986457 71.146032 
L 97.986457 70.11203 
L 99.052063 70.11203 
L 99.052063 69.078028 
L 102.24888 69.078028 
L 102.24888 68.044026 
L 102.604082 68.044026 
L 102.604082 67.010024 
L 103.669688 67.010024 
L 103.669688 65.976023 
L 107.221707 65.976023 
L 107.221707 64.942021 
L 107.932111 64.942021 
L 107.932111 63.908019 
L 110.773726 63.908019 
L 110.773726 61.840015 
L 113.615341 61.840015 
L 113.615341 60.806013 
L 118.94337 60.806013 
L 118.94337 59.772011 
L 128.178619 59.772011 
L 128.178619 58.738009 
L 131.375437 58.738009 
L 131.375437 57.704008 
L 135.282658 57.704008 
L 135.282658 56.670006 
L 145.583513 56.670006 
L 145.583513 55.636004 
L 164.409214 55.636004 
L 164.409214 53.568 
L 398.487273 53.568 
L 398.487273 53.568 
" style="fill:none;stroke:#d62728;stroke-linecap:square;stroke-width:1.5;"/>
   </g>
   <g id="line2d_17">
    <path clip-path="url(#p621da8e48c)" d="M 73.832727 291.793924 
L 73.832727 144.093851 
L 74.719762 144.093851 
L 74.719762 105.977703 
L 76.49383 105.977703 
L 76.49383 101.213185 
L 78.563577 101.213185 
L 78.563577 96.448666 
L 80.041967 96.448666 
L 80.041967 91.684148 
L 82.70307 91.684148 
L 82.70307 86.919629 
L 83.294426 86.919629 
L 83.294426 82.155111 
L 90.3907 82.155111 
L 90.3907 77.390592 
L 103.104858 77.390592 
L 103.104858 72.626074 
L 116.410373 72.626074 
L 116.410373 67.861555 
L 132.37699 67.861555 
L 132.37699 63.097037 
L 137.994873 63.097037 
L 137.994873 58.332518 
L 148.934963 58.332518 
L 148.934963 53.568 
L 398.487273 53.568 
L 398.487273 53.568 
" style="fill:none;stroke:#9467bd;stroke-linecap:square;stroke-width:1.5;"/>
   </g>
   <g id="line2d_18">
    <path clip-path="url(#p621da8e48c)" d="M 73.832727 287.272184 
L 73.832727 155.716848 
L 74.16 155.716848 
L 74.16 152.621429 
L 74.487273 152.621429 
L 74.487273 144.88288 
L 74.814545 144.88288 
L 74.814545 137.144331 
L 75.141818 137.144331 
L 75.141818 135.596621 
L 75.469091 135.596621 
L 75.469091 134.048911 
L 75.796364 132.501201 
L 75.796364 127.858072 
L 78.087273 127.858072 
L 78.087273 126.310362 
L 78.414545 126.310362 
L 78.414545 123.214942 
L 78.741818 123.214942 
L 78.741818 118.571813 
L 79.396364 118.571813 
L 79.396364 115.476393 
L 80.050909 115.476393 
L 80.050909 113.928683 
L 80.705455 113.928683 
L 80.705455 112.380973 
L 81.36 112.380973 
L 81.36 107.737844 
L 82.996364 107.737844 
L 82.996364 106.190134 
L 85.941818 106.190134 
L 85.941818 103.094714 
L 87.250909 103.094714 
L 87.250909 99.999295 
L 87.905455 99.999295 
L 87.905455 96.903875 
L 89.214545 96.903875 
L 89.214545 95.356165 
L 90.196364 95.356165 
L 90.196364 93.808455 
L 91.178182 93.808455 
L 91.178182 89.165326 
L 96.087273 89.165326 
L 96.087273 87.617616 
L 97.069091 87.617616 
L 97.069091 86.069906 
L 98.705455 86.069906 
L 98.705455 84.522196 
L 99.36 84.522196 
L 99.36 82.974487 
L 102.305455 82.974487 
L 102.305455 81.426777 
L 105.905455 81.426777 
L 105.905455 79.879067 
L 107.869091 79.879067 
L 107.869091 78.331357 
L 115.069091 78.331357 
L 115.069091 76.783647 
L 116.050909 76.783647 
L 116.050909 75.235938 
L 117.032727 75.235938 
L 117.36 73.688228 
L 117.36 70.592808 
L 117.687273 70.592808 
L 117.687273 69.045098 
L 118.014545 69.045098 
L 118.014545 67.497388 
L 120.632727 67.497388 
L 120.632727 65.949679 
L 120.96 65.949679 
L 120.96 64.401969 
L 121.614545 64.401969 
L 121.614545 62.854259 
L 122.269091 62.854259 
L 122.269091 61.306549 
L 124.887273 61.306549 
L 124.887273 59.758839 
L 131.105455 59.758839 
L 131.105455 58.211129 
L 131.432727 58.211129 
L 131.432727 56.66342 
L 205.069091 56.66342 
L 205.069091 55.11571 
L 227.323636 55.11571 
L 227.323636 53.568 
L 398.487273 53.568 
L 398.487273 53.568 
" style="fill:none;stroke:#8c564b;stroke-linecap:square;stroke-width:1.5;"/>
   </g>
   <g id="line2d_19">
    <path clip-path="url(#p621da8e48c)" d="M 73.832727 295.488 
L 73.832727 148.837381 
L 74.184847 148.837381 
L 74.184847 145.626053 
L 74.536967 145.626053 
L 74.536967 140.273841 
L 74.889087 140.273841 
L 74.889087 116.724106 
L 75.593327 116.724106 
L 75.593327 115.653664 
L 75.945447 115.653664 
L 75.945447 112.442336 
L 76.297567 112.442336 
L 76.297567 109.231009 
L 76.649686 109.231009 
L 76.649686 103.878796 
L 77.001806 103.878796 
L 77.001806 100.667469 
L 77.353926 100.667469 
L 77.353926 94.244814 
L 78.058166 94.244814 
L 78.058166 92.103929 
L 78.410286 92.103929 
L 78.410286 89.963044 
L 80.170885 89.963044 
L 80.170885 88.892602 
L 82.283605 88.892602 
L 82.283605 87.822159 
L 82.987845 87.822159 
L 82.987845 86.751717 
L 83.339965 86.751717 
L 83.339965 85.681274 
L 85.804804 85.681274 
L 85.804804 84.610832 
L 86.861163 84.610832 
L 86.861163 83.540389 
L 87.213283 83.540389 
L 87.213283 82.469947 
L 88.621763 82.469947 
L 88.621763 81.399504 
L 90.382362 81.399504 
L 90.382362 79.258619 
L 90.734482 79.258619 
L 90.734482 77.117735 
L 91.086602 77.117735 
L 91.086602 74.97685 
L 91.790842 74.97685 
L 91.790842 73.906407 
L 92.847202 73.906407 
L 92.847202 71.765522 
L 93.199322 71.765522 
L 93.199322 70.69508 
L 94.255681 70.69508 
L 94.255681 69.624637 
L 97.42476 69.624637 
L 97.42476 66.41331 
L 98.129 66.41331 
L 98.129 65.342867 
L 98.83324 65.342867 
L 98.83324 64.272425 
L 107.988357 64.272425 
L 107.988357 63.201982 
L 110.101077 63.201982 
L 110.101077 62.13154 
L 116.087115 62.13154 
L 116.087115 59.990655 
L 116.791355 59.990655 
L 116.791355 58.920212 
L 125.242232 58.920212 
L 125.242232 57.84977 
L 145.313066 57.84977 
L 145.313066 56.779327 
L 146.369426 56.779327 
L 146.369426 55.708885 
L 189.680174 55.708885 
L 189.680174 54.638442 
L 261.512633 54.638442 
L 261.864753 53.568 
L 398.487273 53.568 
L 398.487273 53.568 
" style="fill:none;stroke:#e377c2;stroke-linecap:square;stroke-width:1.5;"/>
   </g>
   <g id="line2d_20">
    <path clip-path="url(#p621da8e48c)" d="M 73.832727 254.960914 
L 73.832727 98.716537 
L 74.317286 98.716537 
L 74.317286 93.136381 
L 74.801845 93.136381 
L 74.801845 90.092659 
L 75.286404 90.092659 
L 75.286404 89.585372 
L 75.770963 89.585372 
L 75.770963 86.541651 
L 76.255522 86.541651 
L 76.255522 84.512503 
L 76.740081 84.512503 
L 76.740081 82.483355 
L 77.709199 82.483355 
L 77.709199 80.454208 
L 80.616554 80.454208 
L 80.616554 79.946921 
L 81.101113 79.946921 
L 81.101113 79.439634 
L 82.070231 79.439634 
L 82.070231 78.42506 
L 82.55479 78.42506 
L 82.55479 77.917773 
L 83.523908 77.917773 
L 83.523908 77.410486 
L 84.008467 77.410486 
L 84.008467 76.395912 
L 84.493026 76.395912 
L 84.493026 74.366764 
L 84.977585 74.366764 
L 84.977585 72.844904 
L 85.462144 72.844904 
L 85.462144 70.815756 
L 85.946703 70.815756 
L 85.946703 70.308469 
L 87.884939 70.308469 
L 87.884939 69.293895 
L 88.854057 69.293895 
L 88.854057 68.279321 
L 90.792293 68.279321 
L 90.792293 67.772034 
L 91.761411 67.772034 
L 91.761411 67.264747 
L 95.153324 67.264747 
L 95.153324 66.75746 
L 95.637883 66.75746 
L 95.637883 65.742886 
L 98.060678 65.742886 
L 98.060678 64.221026 
L 98.545237 64.221026 
L 98.545237 63.713739 
L 99.514355 63.713739 
L 99.514355 62.191878 
L 101.937151 62.191878 
L 101.937151 61.684591 
L 102.42171 61.684591 
L 102.42171 60.670017 
L 107.751859 60.670017 
L 107.751859 60.16273 
L 111.628331 60.16273 
L 111.628331 59.655443 
L 117.443039 59.655443 
L 117.443039 58.640869 
L 118.412157 58.640869 
L 118.412157 58.133582 
L 118.896716 58.133582 
L 118.896716 57.626295 
L 120.350393 57.626295 
L 120.350393 57.119009 
L 125.195984 57.119009 
L 125.195984 56.104435 
L 125.680543 56.104435 
L 125.680543 55.597148 
L 147.970258 55.597148 
L 147.970258 55.089861 
L 151.84673 55.089861 
L 151.84673 54.582574 
L 175.105563 54.582574 
L 175.105563 54.075287 
L 189.642334 54.075287 
L 189.642334 53.568 
L 398.487273 53.568 
L 398.487273 53.568 
" style="fill:none;stroke:#7f7f7f;stroke-linecap:square;stroke-width:1.5;"/>
   </g>
   <g id="line2d_21">
    <path clip-path="url(#p621da8e48c)" d="M 73.832727 284.40892 
L 73.832727 199.362265 
L 74.070569 199.362265 
L 74.070569 150.764177 
L 75.25978 150.764177 
L 75.25978 138.614655 
L 75.735465 138.614655 
L 75.735465 126.465133 
L 85.486993 126.465133 
L 86.200519 114.315611 
L 97.854785 114.315611 
L 97.854785 102.166088 
L 158.98022 102.166088 
L 160.169431 90.016566 
L 209.878442 90.016566 
L 214.635285 77.867044 
L 272.906613 77.867044 
L 288.842038 53.568 
L 398.487273 53.568 
L 398.487273 53.568 
" style="fill:none;stroke:#bcbd22;stroke-linecap:square;stroke-width:1.5;"/>
   </g>
   <g id="line2d_22">
    <path clip-path="url(#p621da8e48c)" d="M 73.832727 293.347115 
L 73.832727 144.555611 
L 74.113085 144.555611 
L 74.113085 137.062513 
L 74.393443 137.062513 
L 74.393443 135.992071 
L 74.673801 135.992071 
L 74.673801 122.076319 
L 74.954159 122.076319 
L 74.954159 114.583221 
L 75.234517 114.583221 
L 75.234517 111.371894 
L 75.795233 111.371894 
L 75.795233 106.019681 
L 76.636307 106.019681 
L 76.636307 104.949239 
L 76.916665 104.949239 
L 76.916665 100.667469 
L 77.197023 100.667469 
L 77.197023 98.526584 
L 77.477381 98.526584 
L 77.477381 97.456142 
L 79.439887 97.456142 
L 79.439887 96.385699 
L 80.000603 96.385699 
L 80.000603 95.315257 
L 80.280961 95.315257 
L 80.280961 94.244814 
L 81.402393 94.244814 
L 81.402393 93.174372 
L 81.682751 93.174372 
L 81.682751 92.103929 
L 82.523825 92.103929 
L 82.523825 91.033487 
L 83.645257 91.033487 
L 83.645257 89.963044 
L 84.766689 89.963044 
L 84.766689 86.751717 
L 85.888121 86.751717 
L 85.888121 85.681274 
L 87.289911 85.681274 
L 87.289911 84.610832 
L 87.850626 84.610832 
L 87.850626 83.540389 
L 88.411342 83.540389 
L 88.411342 80.329062 
L 88.972058 80.329062 
L 88.972058 77.117735 
L 89.813132 77.117735 
L 89.813132 76.047292 
L 90.934564 76.047292 
L 90.934564 73.906407 
L 91.775638 73.906407 
L 92.055996 72.835965 
L 96.822082 72.835965 
L 96.822082 71.765522 
L 98.50423 71.765522 
L 98.50423 70.69508 
L 100.186378 70.69508 
L 100.186378 69.624637 
L 103.270316 69.624637 
L 103.270316 68.554195 
L 106.354253 68.554195 
L 106.354253 67.483752 
L 109.157833 67.483752 
L 109.438191 66.41331 
L 109.718549 66.41331 
L 109.718549 65.342867 
L 113.923919 65.342867 
L 113.923919 64.272425 
L 118.129289 64.272425 
L 118.409647 63.201982 
L 118.690005 63.201982 
L 118.970363 62.13154 
L 120.091795 62.13154 
L 120.652511 61.061097 
L 123.736448 61.061097 
L 123.736448 59.990655 
L 132.707904 59.990655 
L 132.707904 58.920212 
L 136.913274 58.920212 
L 136.913274 57.84977 
L 143.641865 57.84977 
L 143.641865 56.779327 
L 154.575827 56.779327 
L 154.575827 55.708885 
L 203.918832 55.708885 
L 203.918832 54.638442 
L 275.690476 54.638442 
L 276.811908 53.568 
L 398.487273 53.568 
L 398.487273 53.568 
" style="fill:none;stroke:#17becf;stroke-linecap:square;stroke-width:1.5;"/>
   </g>
   <g id="line2d_23">
    <path clip-path="url(#p621da8e48c)" d="M 73.832727 254.299235 
L 73.832727 233.169631 
L 73.832727 222.60483 
L 74.309459 222.60483 
L 74.309459 190.910424 
L 74.547825 190.910424 
L 74.547825 169.78082 
L 75.024557 169.78082 
L 75.024557 159.216018 
L 75.978022 159.216018 
L 75.978022 148.651217 
L 78.123316 148.651217 
L 78.123316 138.086415 
L 78.361682 138.086415 
L 78.361682 127.521613 
L 78.600048 127.521613 
L 78.600048 116.956811 
L 79.315146 116.956811 
L 79.315146 106.392009 
L 80.506976 106.392009 
L 80.506976 95.827207 
L 142.720513 95.827207 
L 143.435611 85.262406 
L 158.929403 85.262406 
L 160.3596 74.697604 
L 166.318751 74.697604 
L 168.464045 64.132802 
L 193.254113 64.132802 
L 195.161041 53.568 
L 398.487273 53.568 
L 398.487273 53.568 
" style="fill:none;stroke:#1f77b4;stroke-linecap:square;stroke-width:1.5;"/>
   </g>
   <g id="line2d_24">
    <path clip-path="url(#p621da8e48c)" d="M 73.832727 247.960354 
L 73.832727 150.764177 
L 76.420553 150.764177 
L 76.891067 150.764177 
L 77.361581 150.764177 
L 77.832095 150.764177 
L 79.008379 150.764177 
L 79.478893 150.764177 
L 79.949407 150.764177 
L 80.419921 102.166088 
L 80.890435 102.166088 
L 81.125692 102.166088 
L 81.831462 102.166088 
L 82.301976 102.166088 
L 82.77249 102.166088 
L 83.713518 102.166088 
L 84.184032 102.166088 
L 84.654545 102.166088 
L 85.595573 102.166088 
L 86.301344 102.166088 
L 86.771858 102.166088 
L 88.183399 102.166088 
L 88.653913 102.166088 
L 89.359684 102.166088 
L 89.830198 102.166088 
L 90.535968 102.166088 
L 91.94751 102.166088 
L 92.418024 102.166088 
L 92.653281 102.166088 
L 94.535336 102.166088 
L 95.711621 102.166088 
L 96.417391 102.166088 
L 98.299447 102.166088 
L 98.76996 102.166088 
L 100.887273 102.166088 
L 101.8283 102.166088 
L 103.945613 102.166088 
L 105.827668 102.166088 
L 107.94498 102.166088 
L 108.650751 102.166088 
L 111.944348 102.166088 
L 113.826403 102.166088 
L 116.414229 102.166088 
L 118.766798 102.166088 
L 122.060395 102.166088 
L 125.353992 53.568 
L 128.177075 53.568 
L 134.764269 53.568 
L 141.116206 53.568 
L 154.290593 53.568 
L 164.40664 53.568 
L 175.463715 53.568 
L 185.579763 53.568 
L 198.048379 53.568 
L 218.045217 53.568 
L 253.098498 53.568 
L 398.487273 53.568 
" style="fill:none;stroke:#ff7f0e;stroke-linecap:square;stroke-width:1.5;"/>
   </g>
   <g id="line2d_25">
    <path clip-path="url(#p621da8e48c)" d="M 73.832727 287.388992 
L 73.832727 236.957013 
L 74.076462 236.957013 
L 74.076462 172.770859 
L 74.320197 172.770859 
L 74.320197 136.093056 
L 75.0514 136.093056 
L 75.0514 131.508331 
L 78.70742 131.508331 
L 78.70742 126.923605 
L 79.194889 126.923605 
L 79.194889 122.33888 
L 81.388501 122.33888 
L 81.388501 117.754155 
L 86.750663 117.754155 
L 86.750663 113.169429 
L 89.675479 113.169429 
L 89.919214 108.584704 
L 89.919214 103.999979 
L 104.299558 103.999979 
L 104.787027 94.830528 
L 107.955577 94.830528 
L 107.955577 90.245803 
L 108.930516 90.245803 
L 109.66172 85.661077 
L 111.611597 85.661077 
L 111.611597 81.076352 
L 129.647961 81.076352 
L 129.891695 76.491627 
L 142.809631 76.491627 
L 143.297101 71.906901 
L 145.978182 71.906901 
L 145.978182 67.322176 
L 169.620442 67.322176 
L 170.351646 62.737451 
L 175.713808 62.737451 
L 175.957543 58.152725 
L 246.64059 58.152725 
L 247.371794 53.568 
L 398.487273 53.568 
L 398.487273 53.568 
" style="fill:none;stroke:#2ca02c;stroke-linecap:square;stroke-width:1.5;"/>
   </g>
   <g id="line2d_26">
    <path clip-path="url(#p621da8e48c)" d="M 73.832727 280.140169 
L 73.832727 198.048804 
L 74.080366 198.048804 
L 74.080366 194.765149 
L 74.328005 194.765149 
L 74.328005 135.659366 
L 74.575644 135.659366 
L 74.575644 115.957438 
L 74.823283 115.957438 
L 74.823283 109.390129 
L 75.070922 109.390129 
L 75.070922 102.822819 
L 75.566199 102.822819 
L 75.566199 99.539165 
L 76.309116 99.539165 
L 76.309116 96.25551 
L 77.052032 96.25551 
L 77.052032 92.971856 
L 79.033143 92.971856 
L 79.033143 89.688201 
L 79.280782 89.688201 
L 79.77606 86.404546 
L 82.500087 86.404546 
L 82.500087 83.120892 
L 84.728837 83.120892 
L 84.728837 79.837237 
L 85.967031 79.837237 
L 85.967031 76.553582 
L 86.21467 76.553582 
L 86.21467 73.269928 
L 94.386753 73.269928 
L 94.386753 69.986273 
L 107.016335 69.986273 
L 107.511612 66.702619 
L 108.00689 66.702619 
L 108.00689 63.418964 
L 110.483279 63.418964 
L 110.483279 60.135309 
L 112.959667 60.135309 
L 112.959667 56.851655 
L 158.525217 56.851655 
L 160.011051 53.568 
L 398.487273 53.568 
L 398.487273 53.568 
" style="fill:none;stroke:#d62728;stroke-linecap:square;stroke-width:1.5;"/>
   </g>
   <g id="line2d_27">
    <path clip-path="url(#p621da8e48c)" d="M 73.832727 282.082416 
L 73.832727 142.492162 
L 74.115036 142.492162 
L 74.115036 139.390156 
L 74.397344 139.390156 
L 74.397344 129.050137 
L 74.679652 129.050137 
L 74.679652 120.778122 
L 74.96196 120.778122 
L 74.96196 116.642115 
L 75.244269 116.642115 
L 75.244269 115.608113 
L 75.526577 115.608113 
L 75.526577 112.506107 
L 75.808885 112.506107 
L 75.808885 107.336098 
L 76.091194 107.336098 
L 76.091194 104.234092 
L 76.373502 104.234092 
L 76.373502 102.166088 
L 76.65581 102.166088 
L 76.65581 101.132087 
L 77.220427 101.132087 
L 77.220427 98.030081 
L 78.067352 98.030081 
L 78.067352 96.996079 
L 78.34966 96.996079 
L 78.34966 95.962077 
L 78.631968 95.962077 
L 78.631968 93.894073 
L 81.172743 93.894073 
L 81.455051 92.860072 
L 81.455051 90.792068 
L 82.019668 90.792068 
L 82.019668 89.758066 
L 82.584285 89.758066 
L 82.584285 88.724064 
L 84.842751 88.724064 
L 84.842751 87.690062 
L 85.125059 87.690062 
L 85.125059 86.65606 
L 89.077375 86.65606 
L 89.077375 85.622058 
L 89.359684 84.588056 
L 89.359684 83.554055 
L 89.641992 83.554055 
L 89.641992 82.520053 
L 90.488917 82.520053 
L 90.488917 80.452049 
L 91.61815 80.452049 
L 91.61815 79.418047 
L 91.900458 79.418047 
L 91.900458 78.384045 
L 93.312 78.384045 
L 93.312 77.350043 
L 95.570466 77.350043 
L 95.570466 76.316041 
L 97.546625 76.316041 
L 97.546625 75.28204 
L 98.675858 75.28204 
L 98.675858 74.248038 
L 98.958166 74.248038 
L 99.240474 73.214036 
L 102.345866 73.214036 
L 102.345866 72.180034 
L 102.628174 72.180034 
L 102.628174 71.146032 
L 110.250498 71.146032 
L 110.250498 70.11203 
L 110.532806 70.11203 
L 110.532806 69.078028 
L 111.379731 69.078028 
L 111.66204 68.044026 
L 111.66204 67.010024 
L 113.920506 67.010024 
L 113.920506 65.976023 
L 114.202814 65.976023 
L 114.202814 64.942021 
L 114.767431 64.942021 
L 114.767431 62.874017 
L 119.84898 62.874017 
L 120.413597 61.840015 
L 124.083605 61.840015 
L 124.365913 60.806013 
L 124.93053 60.806013 
L 124.93053 59.772011 
L 129.165154 59.772011 
L 129.165154 58.738009 
L 131.988237 58.738009 
L 131.988237 57.704008 
L 148.644427 57.704008 
L 149.209043 56.670006 
L 150.620585 56.670006 
L 150.902893 55.636004 
L 153.16136 55.636004 
L 153.16136 54.602002 
L 209.905328 54.602002 
L 210.752253 53.568 
L 398.487273 53.568 
L 398.487273 53.568 
" style="fill:none;stroke:#9467bd;stroke-linecap:square;stroke-width:1.5;"/>
   </g>
   <g id="line2d_28">
    <path clip-path="url(#p621da8e48c)" d="M 73.832727 288.964991 
L 73.832727 258.591186 
L 73.832727 243.404283 
L 73.832727 197.843575 
L 73.832727 182.656673 
L 73.832727 121.909062 
L 74.312631 121.909062 
L 74.312631 114.315611 
L 74.792534 114.315611 
L 74.792534 106.722159 
L 75.272437 106.722159 
L 75.272437 99.128708 
L 75.512389 99.128708 
L 75.992292 99.128708 
L 79.831518 99.128708 
L 80.311421 99.128708 
L 81.031276 99.128708 
L 81.511179 99.128708 
L 81.991082 99.128708 
L 82.470986 99.128708 
L 82.710937 99.128708 
L 83.190841 99.128708 
L 84.63055 99.128708 
L 85.590357 99.128708 
L 85.830308 99.128708 
L 86.790115 99.128708 
L 87.030067 99.128708 
L 87.270018 83.941805 
L 87.749921 83.941805 
L 88.469776 83.941805 
L 88.709728 83.941805 
L 89.189631 83.941805 
L 89.429583 83.941805 
L 90.869292 83.941805 
L 91.109244 83.941805 
L 92.548954 83.941805 
L 93.748712 83.941805 
L 94.468567 83.941805 
L 94.94847 83.941805 
L 95.188422 83.941805 
L 96.148228 83.941805 
L 96.868083 83.941805 
L 97.82789 83.941805 
L 98.307793 83.941805 
L 99.027648 83.941805 
L 100.947261 83.941805 
L 101.907067 83.941805 
L 102.147019 83.941805 
L 102.626922 83.941805 
L 103.586728 83.941805 
L 104.306583 83.941805 
L 105.26639 83.941805 
L 105.746293 83.941805 
L 106.7061 83.941805 
L 108.145809 83.941805 
L 109.105616 83.941805 
L 109.345567 83.941805 
L 110.305374 83.941805 
L 110.785277 83.941805 
L 111.505132 83.941805 
L 116.304164 83.941805 
L 119.183584 83.941805 
L 121.823052 83.941805 
L 123.502713 83.941805 
L 124.942423 83.941805 
L 125.662278 83.941805 
L 127.581891 83.941805 
L 128.061794 83.941805 
L 131.421117 83.941805 
L 132.620875 83.941805 
L 135.980198 83.941805 
L 138.859617 83.941805 
L 140.059375 83.941805 
L 142.698843 83.941805 
L 145.098359 83.941805 
L 147.737827 83.941805 
L 149.177537 83.941805 
L 151.817005 76.348354 
L 153.496666 68.754903 
L 156.136134 68.754903 
L 158.295698 68.754903 
L 160.215311 68.754903 
L 164.054537 68.754903 
L 166.214102 68.754903 
L 168.85357 68.754903 
L 170.053328 68.754903 
L 171.493038 68.754903 
L 173.892554 68.754903 
L 177.011925 68.754903 
L 180.371248 68.754903 
L 183.970522 68.754903 
L 187.089893 68.754903 
L 189.969313 68.754903 
L 192.368829 68.754903 
L 195.248248 61.161451 
L 200.767136 61.161451 
L 205.086265 61.161451 
L 209.165442 61.161451 
L 212.044862 61.161451 
L 215.164233 61.161451 
L 221.882878 61.161451 
L 231.00104 61.161451 
L 236.759879 61.161451 
L 243.238573 53.568 
L 251.156976 53.568 
L 256.675864 53.568 
L 262.914606 53.568 
L 269.3933 53.568 
L 276.351897 53.568 
L 286.189913 53.568 
L 295.308075 53.568 
L 315.22406 53.568 
L 398.487273 53.568 
" style="fill:none;stroke:#8c564b;stroke-linecap:square;stroke-width:1.5;"/>
   </g>
   <g id="line2d_29">
    <path clip-path="url(#p621da8e48c)" d="M 73.832727 288.179462 
L 73.832727 279.800481 
L 73.832727 263.042519 
L 73.832727 229.526596 
L 74.072148 212.768635 
L 74.072148 196.010673 
L 74.072148 154.115769 
L 74.072148 137.357808 
L 74.072148 78.704942 
L 75.508673 78.704942 
L 75.508673 70.325962 
L 79.818246 70.325962 
L 80.297088 70.325962 
L 81.494191 70.325962 
L 82.451874 70.325962 
L 85.803765 70.325962 
L 86.282607 70.325962 
L 87.000869 70.325962 
L 87.47971 70.325962 
L 87.719131 70.325962 
L 88.676814 70.325962 
L 88.916235 70.325962 
L 89.873918 70.325962 
L 90.59218 70.325962 
L 90.831601 70.325962 
L 92.028705 70.325962 
L 92.986388 70.325962 
L 93.225809 70.325962 
L 94.422912 70.325962 
L 95.141175 70.325962 
L 95.380595 70.325962 
L 96.81712 70.325962 
L 97.295961 70.325962 
L 98.253644 70.325962 
L 98.971907 70.325962 
L 99.211327 70.325962 
L 99.690169 70.325962 
L 99.92959 70.325962 
L 101.126693 70.325962 
L 102.084377 70.325962 
L 102.323797 70.325962 
L 103.760322 70.325962 
L 104.239163 70.325962 
L 104.478584 70.325962 
L 105.675688 70.325962 
L 106.154529 70.325962 
L 106.39395 70.325962 
L 107.351633 70.325962 
L 107.591054 70.325962 
L 110.224682 70.325962 
L 111.900628 70.325962 
L 114.534256 70.325962 
L 115.73136 70.325962 
L 119.08325 70.325962 
L 120.998616 70.325962 
L 123.153403 61.946981 
L 123.632245 61.946981 
L 125.068769 61.946981 
L 125.30819 61.946981 
L 127.462977 61.946981 
L 129.378343 61.946981 
L 131.77255 61.946981 
L 132.011971 61.946981 
L 134.406179 61.946981 
L 136.560965 61.946981 
L 140.391698 61.946981 
L 140.631118 61.946981 
L 143.743588 61.946981 
L 143.983009 61.946981 
L 146.856058 61.946981 
L 147.57432 61.946981 
L 151.644473 61.946981 
L 152.362735 61.946981 
L 155.954047 61.946981 
L 156.193467 61.946981 
L 165.291456 61.946981 
L 165.530877 61.946981 
L 169.840451 61.946981 
L 173.431762 61.946981 
L 174.150024 61.946981 
L 174.628866 61.946981 
L 181.811488 61.946981 
L 188.75469 61.946981 
L 189.472953 61.946981 
L 195.697892 61.946981 
L 195.937313 61.946981 
L 202.401673 61.946981 
L 202.880515 61.946981 
L 211.739083 61.946981 
L 217.724602 53.568 
L 218.203443 53.568 
L 226.58317 53.568 
L 238.314787 53.568 
L 254.595398 53.568 
L 274.706742 53.568 
L 274.946163 53.568 
L 300.085342 53.568 
L 398.487273 53.568 
" style="fill:none;stroke:#e377c2;stroke-linecap:square;stroke-width:1.5;"/>
   </g>
   <g id="line2d_30">
    <path clip-path="url(#p621da8e48c)" d="M 73.832727 242.27874 
L 73.832727 97.194677 
L 74.191066 97.194677 
L 74.191066 96.180103 
L 74.549404 96.180103 
L 74.549404 94.150955 
L 74.907742 94.150955 
L 74.907742 92.629094 
L 75.266081 92.629094 
L 75.266081 90.599946 
L 75.624419 90.599946 
L 75.624419 90.092659 
L 76.699434 90.092659 
L 76.699434 86.034364 
L 77.774449 86.034364 
L 77.774449 85.527077 
L 78.132787 85.527077 
L 78.132787 83.497929 
L 78.491126 83.497929 
L 78.491126 81.976068 
L 78.849464 81.976068 
L 78.849464 81.468781 
L 79.566141 81.468781 
L 79.566141 79.946921 
L 80.641156 79.946921 
L 80.641156 78.932347 
L 80.999494 78.932347 
L 80.999494 78.42506 
L 81.357833 78.42506 
L 81.357833 77.917773 
L 81.716171 77.917773 
L 81.716171 77.410486 
L 82.074509 77.410486 
L 82.074509 76.903199 
L 82.432848 76.903199 
L 82.432848 75.381338 
L 83.149524 75.381338 
L 83.149524 73.859477 
L 83.866201 73.859477 
L 83.866201 71.83033 
L 84.582878 71.83033 
L 84.582878 70.815756 
L 84.941216 70.815756 
L 84.941216 69.801182 
L 87.091246 69.801182 
L 87.091246 69.293895 
L 87.449585 69.293895 
L 87.449585 68.786608 
L 88.166261 68.786608 
L 88.166261 67.772034 
L 89.957953 67.772034 
L 89.957953 67.264747 
L 90.316291 67.264747 
L 90.316291 66.250173 
L 91.749645 66.250173 
L 91.749645 65.742886 
L 93.182998 65.742886 
L 93.182998 64.728313 
L 93.899675 64.728313 
L 93.899675 64.221026 
L 95.333028 64.221026 
L 95.333028 63.206452 
L 96.049705 63.206452 
L 96.049705 62.699165 
L 97.483058 62.699165 
L 97.483058 62.191878 
L 97.841397 62.191878 
L 97.841397 61.177304 
L 99.27475 61.177304 
L 99.27475 60.670017 
L 99.633089 60.670017 
L 99.991427 60.16273 
L 102.499795 60.16273 
L 102.499795 59.655443 
L 103.57481 59.655443 
L 103.57481 59.148156 
L 108.233209 59.148156 
L 108.233209 58.640869 
L 110.024901 58.640869 
L 110.024901 58.133582 
L 110.383239 58.133582 
L 110.383239 57.119009 
L 119.341698 57.119009 
L 119.341698 56.611722 
L 125.075111 56.611722 
L 125.075111 56.104435 
L 140.125322 56.104435 
L 140.125322 55.597148 
L 143.708706 55.597148 
L 143.708706 55.089861 
L 153.742179 55.089861 
L 153.742179 54.582574 
L 166.64236 54.582574 
L 166.64236 54.075287 
L 213.226346 54.075287 
L 213.226346 53.568 
L 398.487273 53.568 
L 398.487273 53.568 
" style="fill:none;stroke:#7f7f7f;stroke-linecap:square;stroke-width:1.5;"/>
   </g>
   <g id="line2d_31">
    <path clip-path="url(#p621da8e48c)" d="M 73.832727 291.793924 
L 73.832727 144.093851 
L 74.562835 144.093851 
L 74.562835 120.271259 
L 75.049573 120.271259 
L 75.049573 115.50674 
L 75.292943 115.50674 
L 75.292943 110.742222 
L 75.536312 105.977703 
L 75.536312 101.213185 
L 78.943481 101.213185 
L 78.943481 96.448666 
L 79.673589 96.448666 
L 79.673589 91.684148 
L 83.080758 91.684148 
L 83.080758 86.919629 
L 84.540973 86.919629 
L 84.540973 82.155111 
L 96.466065 82.155111 
L 96.466065 77.390592 
L 100.846711 77.390592 
L 100.846711 72.626074 
L 120.559618 72.626074 
L 120.559618 67.861555 
L 135.64851 67.861555 
L 135.89188 63.097037 
L 151.46751 63.097037 
L 152.684356 58.332518 
L 157.79511 58.332518 
L 157.79511 53.568 
L 398.487273 53.568 
L 398.487273 53.568 
" style="fill:none;stroke:#bcbd22;stroke-linecap:square;stroke-width:1.5;"/>
   </g>
   <g id="line2d_32">
    <path clip-path="url(#p621da8e48c)" d="M 73.832727 285.724474 
L 73.832727 144.88288 
L 74.361481 144.88288 
L 74.361481 141.78746 
L 74.625857 141.78746 
L 74.625857 137.144331 
L 75.418987 137.144331 
L 75.418987 134.048911 
L 75.683364 134.048911 
L 75.683364 130.953491 
L 76.740871 130.953491 
L 76.740871 127.858072 
L 78.591507 127.858072 
L 78.591507 126.310362 
L 79.120261 126.310362 
L 79.120261 124.762652 
L 81.235274 124.762652 
L 81.235274 121.667232 
L 81.499651 121.667232 
L 81.499651 120.119522 
L 82.821534 120.119522 
L 82.821534 118.571813 
L 83.085911 118.571813 
L 83.085911 115.476393 
L 84.407794 115.476393 
L 84.407794 113.928683 
L 89.166574 113.928683 
L 89.166574 112.380973 
L 89.430951 112.380973 
L 89.959704 110.833264 
L 90.224081 110.833264 
L 90.224081 109.285554 
L 90.488457 107.737844 
L 90.488457 106.190134 
L 90.752834 106.190134 
L 90.752834 104.642424 
L 95.511614 104.642424 
L 95.511614 103.094714 
L 97.097874 103.094714 
L 97.362251 101.547005 
L 97.362251 99.999295 
L 98.684134 99.999295 
L 98.684134 98.451585 
L 99.741641 98.451585 
L 99.741641 96.903875 
L 100.006017 96.903875 
L 100.006017 95.356165 
L 100.270394 95.356165 
L 100.270394 90.713036 
L 101.856654 90.713036 
L 101.856654 89.165326 
L 102.385407 89.165326 
L 102.385407 87.617616 
L 105.822304 87.617616 
L 106.615434 86.069906 
L 106.87981 84.522196 
L 110.05233 84.522196 
L 110.05233 82.974487 
L 110.316707 82.974487 
L 110.84546 81.426777 
L 111.374214 81.426777 
L 111.63859 79.879067 
L 112.167344 79.879067 
L 112.167344 78.331357 
L 112.43172 78.331357 
L 112.43172 75.235938 
L 113.22485 75.235938 
L 113.22485 73.688228 
L 114.01798 73.688228 
L 114.01798 72.140518 
L 115.075487 72.140518 
L 115.075487 70.592808 
L 115.868617 70.592808 
L 115.868617 67.497388 
L 126.443684 67.497388 
L 126.972437 65.949679 
L 127.236814 64.401969 
L 127.765567 64.401969 
L 127.765567 62.854259 
L 133.84623 62.854259 
L 133.84623 61.306549 
L 145.74318 61.306549 
L 145.74318 59.758839 
L 163.456417 59.758839 
L 163.456417 58.211129 
L 201.526657 58.211129 
L 201.526657 56.66342 
L 232.98748 56.66342 
L 233.251857 55.11571 
L 266.034563 55.11571 
L 266.563317 53.568 
L 398.487273 53.568 
L 398.487273 53.568 
" style="fill:none;stroke:#17becf;stroke-linecap:square;stroke-width:1.5;"/>
   </g>
   <g id="patch_3">
    <path d="M 57.6 307.584 
L 57.6 41.472 
" style="fill:none;stroke:#000000;stroke-linecap:square;stroke-linejoin:miter;stroke-width:0.8;"/>
   </g>
   <g id="patch_4">
    <path d="M 414.72 307.584 
L 414.72 41.472 
" style="fill:none;stroke:#000000;stroke-linecap:square;stroke-linejoin:miter;stroke-width:0.8;"/>
   </g>
   <g id="patch_5">
    <path d="M 57.6 307.584 
L 414.72 307.584 
" style="fill:none;stroke:#000000;stroke-linecap:square;stroke-linejoin:miter;stroke-width:0.8;"/>
   </g>
   <g id="patch_6">
    <path d="M 57.6 41.472 
L 414.72 41.472 
" style="fill:none;stroke:#000000;stroke-linecap:square;stroke-linejoin:miter;stroke-width:0.8;"/>
   </g>
   <g id="legend_1">
    <g id="patch_7">
     <path d="M 362.995 343.0345 
L 407.72 343.0345 
Q 409.72 343.0345 409.72 341.0345 
L 409.72 48.472 
Q 409.72 46.472 407.72 46.472 
L 362.995 46.472 
Q 360.995 46.472 360.995 48.472 
L 360.995 341.0345 
Q 360.995 343.0345 362.995 343.0345 
z
" style="fill:#ffffff;opacity:0.8;stroke:#cccccc;stroke-linejoin:miter;"/>
    </g>
    <g id="line2d_33">
     <path d="M 364.995 54.570437 
L 384.995 54.570437 
" style="fill:none;stroke:#1f77b4;stroke-linecap:square;stroke-width:1.5;"/>
    </g>
    <g id="line2d_34"/>
    <g id="text_13">
     <!-- 0 -->
     <g transform="translate(392.995 58.070437)scale(0.1 -0.1)">
      <use xlink:href="#DejaVuSans-30"/>
     </g>
    </g>
    <g id="line2d_35">
     <path d="M 364.995 69.248562 
L 384.995 69.248562 
" style="fill:none;stroke:#ff7f0e;stroke-linecap:square;stroke-width:1.5;"/>
    </g>
    <g id="line2d_36"/>
    <g id="text_14">
     <!-- 1 -->
     <g transform="translate(392.995 72.748562)scale(0.1 -0.1)">
      <use xlink:href="#DejaVuSans-31"/>
     </g>
    </g>
    <g id="line2d_37">
     <path d="M 364.995 83.926688 
L 384.995 83.926688 
" style="fill:none;stroke:#2ca02c;stroke-linecap:square;stroke-width:1.5;"/>
    </g>
    <g id="line2d_38"/>
    <g id="text_15">
     <!-- 2 -->
     <g transform="translate(392.995 87.426688)scale(0.1 -0.1)">
      <use xlink:href="#DejaVuSans-32"/>
     </g>
    </g>
    <g id="line2d_39">
     <path d="M 364.995 98.604812 
L 384.995 98.604812 
" style="fill:none;stroke:#d62728;stroke-linecap:square;stroke-width:1.5;"/>
    </g>
    <g id="line2d_40"/>
    <g id="text_16">
     <!-- 0 -->
     <g transform="translate(392.995 102.104812)scale(0.1 -0.1)">
      <use xlink:href="#DejaVuSans-30"/>
     </g>
    </g>
    <g id="line2d_41">
     <path d="M 364.995 113.282938 
L 384.995 113.282938 
" style="fill:none;stroke:#9467bd;stroke-linecap:square;stroke-width:1.5;"/>
    </g>
    <g id="line2d_42"/>
    <g id="text_17">
     <!-- 1 -->
     <g transform="translate(392.995 116.782938)scale(0.1 -0.1)">
      <use xlink:href="#DejaVuSans-31"/>
     </g>
    </g>
    <g id="line2d_43">
     <path d="M 364.995 127.961062 
L 384.995 127.961062 
" style="fill:none;stroke:#8c564b;stroke-linecap:square;stroke-width:1.5;"/>
    </g>
    <g id="line2d_44"/>
    <g id="text_18">
     <!-- 2 -->
     <g transform="translate(392.995 131.461062)scale(0.1 -0.1)">
      <use xlink:href="#DejaVuSans-32"/>
     </g>
    </g>
    <g id="line2d_45">
     <path d="M 364.995 142.639187 
L 384.995 142.639187 
" style="fill:none;stroke:#e377c2;stroke-linecap:square;stroke-width:1.5;"/>
    </g>
    <g id="line2d_46"/>
    <g id="text_19">
     <!-- 3 -->
     <defs>
      <path d="M 40.578125 39.3125 
Q 47.65625 37.796875 51.625 33 
Q 55.609375 28.21875 55.609375 21.1875 
Q 55.609375 10.40625 48.1875 4.484375 
Q 40.765625 -1.421875 27.09375 -1.421875 
Q 22.515625 -1.421875 17.65625 -0.515625 
Q 12.796875 0.390625 7.625 2.203125 
L 7.625 11.71875 
Q 11.71875 9.328125 16.59375 8.109375 
Q 21.484375 6.890625 26.8125 6.890625 
Q 36.078125 6.890625 40.9375 10.546875 
Q 45.796875 14.203125 45.796875 21.1875 
Q 45.796875 27.640625 41.28125 31.265625 
Q 36.765625 34.90625 28.71875 34.90625 
L 20.21875 34.90625 
L 20.21875 43.015625 
L 29.109375 43.015625 
Q 36.375 43.015625 40.234375 45.921875 
Q 44.09375 48.828125 44.09375 54.296875 
Q 44.09375 59.90625 40.109375 62.90625 
Q 36.140625 65.921875 28.71875 65.921875 
Q 24.65625 65.921875 20.015625 65.03125 
Q 15.375 64.15625 9.8125 62.3125 
L 9.8125 71.09375 
Q 15.4375 72.65625 20.34375 73.4375 
Q 25.25 74.21875 29.59375 74.21875 
Q 40.828125 74.21875 47.359375 69.109375 
Q 53.90625 64.015625 53.90625 55.328125 
Q 53.90625 49.265625 50.4375 45.09375 
Q 46.96875 40.921875 40.578125 39.3125 
z
" id="DejaVuSans-33"/>
     </defs>
     <g transform="translate(392.995 146.139187)scale(0.1 -0.1)">
      <use xlink:href="#DejaVuSans-33"/>
     </g>
    </g>
    <g id="line2d_47">
     <path d="M 364.995 157.317312 
L 384.995 157.317312 
" style="fill:none;stroke:#7f7f7f;stroke-linecap:square;stroke-width:1.5;"/>
    </g>
    <g id="line2d_48"/>
    <g id="text_20">
     <!-- 4 -->
     <g transform="translate(392.995 160.817312)scale(0.1 -0.1)">
      <use xlink:href="#DejaVuSans-34"/>
     </g>
    </g>
    <g id="line2d_49">
     <path d="M 364.995 171.995437 
L 384.995 171.995437 
" style="fill:none;stroke:#bcbd22;stroke-linecap:square;stroke-width:1.5;"/>
    </g>
    <g id="line2d_50"/>
    <g id="text_21">
     <!-- 0 -->
     <g transform="translate(392.995 175.495437)scale(0.1 -0.1)">
      <use xlink:href="#DejaVuSans-30"/>
     </g>
    </g>
    <g id="line2d_51">
     <path d="M 364.995 186.673562 
L 384.995 186.673562 
" style="fill:none;stroke:#17becf;stroke-linecap:square;stroke-width:1.5;"/>
    </g>
    <g id="line2d_52"/>
    <g id="text_22">
     <!-- 1 -->
     <g transform="translate(392.995 190.173562)scale(0.1 -0.1)">
      <use xlink:href="#DejaVuSans-31"/>
     </g>
    </g>
    <g id="line2d_53">
     <path d="M 364.995 201.351687 
L 384.995 201.351687 
" style="fill:none;stroke:#1f77b4;stroke-linecap:square;stroke-width:1.5;"/>
    </g>
    <g id="line2d_54"/>
    <g id="text_23">
     <!-- 2 -->
     <g transform="translate(392.995 204.851687)scale(0.1 -0.1)">
      <use xlink:href="#DejaVuSans-32"/>
     </g>
    </g>
    <g id="line2d_55">
     <path d="M 364.995 216.029812 
L 384.995 216.029812 
" style="fill:none;stroke:#ff7f0e;stroke-linecap:square;stroke-width:1.5;"/>
    </g>
    <g id="line2d_56"/>
    <g id="text_24">
     <!-- 3 -->
     <g transform="translate(392.995 219.529812)scale(0.1 -0.1)">
      <use xlink:href="#DejaVuSans-33"/>
     </g>
    </g>
    <g id="line2d_57">
     <path d="M 364.995 230.707937 
L 384.995 230.707937 
" style="fill:none;stroke:#2ca02c;stroke-linecap:square;stroke-width:1.5;"/>
    </g>
    <g id="line2d_58"/>
    <g id="text_25">
     <!-- 4 -->
     <g transform="translate(392.995 234.207937)scale(0.1 -0.1)">
      <use xlink:href="#DejaVuSans-34"/>
     </g>
    </g>
    <g id="line2d_59">
     <path d="M 364.995 245.386062 
L 384.995 245.386062 
" style="fill:none;stroke:#d62728;stroke-linecap:square;stroke-width:1.5;"/>
    </g>
    <g id="line2d_60"/>
    <g id="text_26">
     <!-- 5 -->
     <defs>
      <path d="M 10.796875 72.90625 
L 49.515625 72.90625 
L 49.515625 64.59375 
L 19.828125 64.59375 
L 19.828125 46.734375 
Q 21.96875 47.46875 24.109375 47.828125 
Q 26.265625 48.1875 28.421875 48.1875 
Q 40.625 48.1875 47.75 41.5 
Q 54.890625 34.8125 54.890625 23.390625 
Q 54.890625 11.625 47.5625 5.09375 
Q 40.234375 -1.421875 26.90625 -1.421875 
Q 22.3125 -1.421875 17.546875 -0.640625 
Q 12.796875 0.140625 7.71875 1.703125 
L 7.71875 11.625 
Q 12.109375 9.234375 16.796875 8.0625 
Q 21.484375 6.890625 26.703125 6.890625 
Q 35.15625 6.890625 40.078125 11.328125 
Q 45.015625 15.765625 45.015625 23.390625 
Q 45.015625 31 40.078125 35.4375 
Q 35.15625 39.890625 26.703125 39.890625 
Q 22.75 39.890625 18.8125 39.015625 
Q 14.890625 38.140625 10.796875 36.28125 
z
" id="DejaVuSans-35"/>
     </defs>
     <g transform="translate(392.995 248.886062)scale(0.1 -0.1)">
      <use xlink:href="#DejaVuSans-35"/>
     </g>
    </g>
    <g id="line2d_61">
     <path d="M 364.995 260.064187 
L 384.995 260.064187 
" style="fill:none;stroke:#9467bd;stroke-linecap:square;stroke-width:1.5;"/>
    </g>
    <g id="line2d_62"/>
    <g id="text_27">
     <!-- 6 -->
     <g transform="translate(392.995 263.564187)scale(0.1 -0.1)">
      <use xlink:href="#DejaVuSans-36"/>
     </g>
    </g>
    <g id="line2d_63">
     <path d="M 364.995 274.742312 
L 384.995 274.742312 
" style="fill:none;stroke:#8c564b;stroke-linecap:square;stroke-width:1.5;"/>
    </g>
    <g id="line2d_64"/>
    <g id="text_28">
     <!-- 7 -->
     <defs>
      <path d="M 8.203125 72.90625 
L 55.078125 72.90625 
L 55.078125 68.703125 
L 28.609375 0 
L 18.3125 0 
L 43.21875 64.59375 
L 8.203125 64.59375 
z
" id="DejaVuSans-37"/>
     </defs>
     <g transform="translate(392.995 278.242312)scale(0.1 -0.1)">
      <use xlink:href="#DejaVuSans-37"/>
     </g>
    </g>
    <g id="line2d_65">
     <path d="M 364.995 289.420437 
L 384.995 289.420437 
" style="fill:none;stroke:#e377c2;stroke-linecap:square;stroke-width:1.5;"/>
    </g>
    <g id="line2d_66"/>
    <g id="text_29">
     <!-- 8 -->
     <g transform="translate(392.995 292.920437)scale(0.1 -0.1)">
      <use xlink:href="#DejaVuSans-38"/>
     </g>
    </g>
    <g id="line2d_67">
     <path d="M 364.995 304.098562 
L 384.995 304.098562 
" style="fill:none;stroke:#7f7f7f;stroke-linecap:square;stroke-width:1.5;"/>
    </g>
    <g id="line2d_68"/>
    <g id="text_30">
     <!-- 9 -->
     <defs>
      <path d="M 10.984375 1.515625 
L 10.984375 10.5 
Q 14.703125 8.734375 18.5 7.8125 
Q 22.3125 6.890625 25.984375 6.890625 
Q 35.75 6.890625 40.890625 13.453125 
Q 46.046875 20.015625 46.78125 33.40625 
Q 43.953125 29.203125 39.59375 26.953125 
Q 35.25 24.703125 29.984375 24.703125 
Q 19.046875 24.703125 12.671875 31.3125 
Q 6.296875 37.9375 6.296875 49.421875 
Q 6.296875 60.640625 12.9375 67.421875 
Q 19.578125 74.21875 30.609375 74.21875 
Q 43.265625 74.21875 49.921875 64.515625 
Q 56.59375 54.828125 56.59375 36.375 
Q 56.59375 19.140625 48.40625 8.859375 
Q 40.234375 -1.421875 26.421875 -1.421875 
Q 22.703125 -1.421875 18.890625 -0.6875 
Q 15.09375 0.046875 10.984375 1.515625 
z
M 30.609375 32.421875 
Q 37.25 32.421875 41.125 36.953125 
Q 45.015625 41.5 45.015625 49.421875 
Q 45.015625 57.28125 41.125 61.84375 
Q 37.25 66.40625 30.609375 66.40625 
Q 23.96875 66.40625 20.09375 61.84375 
Q 16.21875 57.28125 16.21875 49.421875 
Q 16.21875 41.5 20.09375 36.953125 
Q 23.96875 32.421875 30.609375 32.421875 
z
" id="DejaVuSans-39"/>
     </defs>
     <g transform="translate(392.995 307.598562)scale(0.1 -0.1)">
      <use xlink:href="#DejaVuSans-39"/>
     </g>
    </g>
    <g id="line2d_69">
     <path d="M 364.995 318.776687 
L 384.995 318.776687 
" style="fill:none;stroke:#bcbd22;stroke-linecap:square;stroke-width:1.5;"/>
    </g>
    <g id="line2d_70"/>
    <g id="text_31">
     <!-- 10 -->
     <g transform="translate(392.995 322.276687)scale(0.1 -0.1)">
      <use xlink:href="#DejaVuSans-31"/>
      <use x="63.623047" xlink:href="#DejaVuSans-30"/>
     </g>
    </g>
    <g id="line2d_71">
     <path d="M 364.995 333.454812 
L 384.995 333.454812 
" style="fill:none;stroke:#17becf;stroke-linecap:square;stroke-width:1.5;"/>
    </g>
    <g id="line2d_72"/>
    <g id="text_32">
     <!-- 11 -->
     <g transform="translate(392.995 336.954812)scale(0.1 -0.1)">
      <use xlink:href="#DejaVuSans-31"/>
      <use x="63.623047" xlink:href="#DejaVuSans-31"/>
     </g>
    </g>
   </g>
  </g>
 </g>
 <defs>
  <clipPath id="p621da8e48c">
   <rect height="266.112" width="357.12" x="57.6" y="41.472"/>
  </clipPath>
 </defs>
</svg>
