<?xml version="1.0" encoding="utf-8" standalone="no"?>
<!DOCTYPE svg PUBLIC "-//W3C//DTD SVG 1.1//EN"
  "http://www.w3.org/Graphics/SVG/1.1/DTD/svg11.dtd">
<!-- Created with matplotlib (http://matplotlib.org/) -->
<svg height="345pt" version="1.1" viewBox="0 0 460 345" width="460pt" xmlns="http://www.w3.org/2000/svg" xmlns:xlink="http://www.w3.org/1999/xlink">
 <defs>
  <style type="text/css">
*{stroke-linecap:butt;stroke-linejoin:round;}
  </style>
 </defs>
 <g id="figure_1">
  <g id="patch_1">
   <path d="M 0 345.6 
L 460.8 345.6 
L 460.8 0 
L 0 0 
z
" style="fill:#ffffff;"/>
  </g>
  <g id="axes_1">
   <g id="patch_2">
    <path d="M 57.6 307.584 
L 414.72 307.584 
L 414.72 41.472 
L 57.6 41.472 
z
" style="fill:#ffffff;"/>
   </g>
   <g id="matplotlib.axis_1">
    <g id="xtick_1">
     <g id="line2d_1">
      <defs>
       <path d="M 0 0 
L 0 3.5 
" id="m8ced34412f" style="stroke:#000000;stroke-width:0.8;"/>
      </defs>
      <g>
       <use style="stroke:#000000;stroke-width:0.8;" x="73.832727" xlink:href="#m8ced34412f" y="307.584"/>
      </g>
     </g>
     <g id="text_1">
      <!-- 0.0 -->
      <defs>
       <path d="M 31.78125 66.40625 
Q 24.171875 66.40625 20.328125 58.90625 
Q 16.5 51.421875 16.5 36.375 
Q 16.5 21.390625 20.328125 13.890625 
Q 24.171875 6.390625 31.78125 6.390625 
Q 39.453125 6.390625 43.28125 13.890625 
Q 47.125 21.390625 47.125 36.375 
Q 47.125 51.421875 43.28125 58.90625 
Q 39.453125 66.40625 31.78125 66.40625 
z
M 31.78125 74.21875 
Q 44.046875 74.21875 50.515625 64.515625 
Q 56.984375 54.828125 56.984375 36.375 
Q 56.984375 17.96875 50.515625 8.265625 
Q 44.046875 -1.421875 31.78125 -1.421875 
Q 19.53125 -1.421875 13.0625 8.265625 
Q 6.59375 17.96875 6.59375 36.375 
Q 6.59375 54.828125 13.0625 64.515625 
Q 19.53125 74.21875 31.78125 74.21875 
z
" id="DejaVuSans-30"/>
       <path d="M 10.6875 12.40625 
L 21 12.40625 
L 21 0 
L 10.6875 0 
z
" id="DejaVuSans-2e"/>
      </defs>
      <g transform="translate(65.881165 322.182437)scale(0.1 -0.1)">
       <use xlink:href="#DejaVuSans-30"/>
       <use x="63.623047" xlink:href="#DejaVuSans-2e"/>
       <use x="95.410156" xlink:href="#DejaVuSans-30"/>
      </g>
     </g>
    </g>
    <g id="xtick_2">
     <g id="line2d_2">
      <g>
       <use style="stroke:#000000;stroke-width:0.8;" x="138.763636" xlink:href="#m8ced34412f" y="307.584"/>
      </g>
     </g>
     <g id="text_2">
      <!-- 0.2 -->
      <defs>
       <path d="M 19.1875 8.296875 
L 53.609375 8.296875 
L 53.609375 0 
L 7.328125 0 
L 7.328125 8.296875 
Q 12.9375 14.109375 22.625 23.890625 
Q 32.328125 33.6875 34.8125 36.53125 
Q 39.546875 41.84375 41.421875 45.53125 
Q 43.3125 49.21875 43.3125 52.78125 
Q 43.3125 58.59375 39.234375 62.25 
Q 35.15625 65.921875 28.609375 65.921875 
Q 23.96875 65.921875 18.8125 64.3125 
Q 13.671875 62.703125 7.8125 59.421875 
L 7.8125 69.390625 
Q 13.765625 71.78125 18.9375 73 
Q 24.125 74.21875 28.421875 74.21875 
Q 39.75 74.21875 46.484375 68.546875 
Q 53.21875 62.890625 53.21875 53.421875 
Q 53.21875 48.921875 51.53125 44.890625 
Q 49.859375 40.875 45.40625 35.40625 
Q 44.1875 33.984375 37.640625 27.21875 
Q 31.109375 20.453125 19.1875 8.296875 
z
" id="DejaVuSans-32"/>
      </defs>
      <g transform="translate(130.812074 322.182437)scale(0.1 -0.1)">
       <use xlink:href="#DejaVuSans-30"/>
       <use x="63.623047" xlink:href="#DejaVuSans-2e"/>
       <use x="95.410156" xlink:href="#DejaVuSans-32"/>
      </g>
     </g>
    </g>
    <g id="xtick_3">
     <g id="line2d_3">
      <g>
       <use style="stroke:#000000;stroke-width:0.8;" x="203.694545" xlink:href="#m8ced34412f" y="307.584"/>
      </g>
     </g>
     <g id="text_3">
      <!-- 0.4 -->
      <defs>
       <path d="M 37.796875 64.3125 
L 12.890625 25.390625 
L 37.796875 25.390625 
z
M 35.203125 72.90625 
L 47.609375 72.90625 
L 47.609375 25.390625 
L 58.015625 25.390625 
L 58.015625 17.1875 
L 47.609375 17.1875 
L 47.609375 0 
L 37.796875 0 
L 37.796875 17.1875 
L 4.890625 17.1875 
L 4.890625 26.703125 
z
" id="DejaVuSans-34"/>
      </defs>
      <g transform="translate(195.742983 322.182437)scale(0.1 -0.1)">
       <use xlink:href="#DejaVuSans-30"/>
       <use x="63.623047" xlink:href="#DejaVuSans-2e"/>
       <use x="95.410156" xlink:href="#DejaVuSans-34"/>
      </g>
     </g>
    </g>
    <g id="xtick_4">
     <g id="line2d_4">
      <g>
       <use style="stroke:#000000;stroke-width:0.8;" x="268.625455" xlink:href="#m8ced34412f" y="307.584"/>
      </g>
     </g>
     <g id="text_4">
      <!-- 0.6 -->
      <defs>
       <path d="M 33.015625 40.375 
Q 26.375 40.375 22.484375 35.828125 
Q 18.609375 31.296875 18.609375 23.390625 
Q 18.609375 15.53125 22.484375 10.953125 
Q 26.375 6.390625 33.015625 6.390625 
Q 39.65625 6.390625 43.53125 10.953125 
Q 47.40625 15.53125 47.40625 23.390625 
Q 47.40625 31.296875 43.53125 35.828125 
Q 39.65625 40.375 33.015625 40.375 
z
M 52.59375 71.296875 
L 52.59375 62.3125 
Q 48.875 64.0625 45.09375 64.984375 
Q 41.3125 65.921875 37.59375 65.921875 
Q 27.828125 65.921875 22.671875 59.328125 
Q 17.53125 52.734375 16.796875 39.40625 
Q 19.671875 43.65625 24.015625 45.921875 
Q 28.375 48.1875 33.59375 48.1875 
Q 44.578125 48.1875 50.953125 41.515625 
Q 57.328125 34.859375 57.328125 23.390625 
Q 57.328125 12.15625 50.6875 5.359375 
Q 44.046875 -1.421875 33.015625 -1.421875 
Q 20.359375 -1.421875 13.671875 8.265625 
Q 6.984375 17.96875 6.984375 36.375 
Q 6.984375 53.65625 15.1875 63.9375 
Q 23.390625 74.21875 37.203125 74.21875 
Q 40.921875 74.21875 44.703125 73.484375 
Q 48.484375 72.75 52.59375 71.296875 
z
" id="DejaVuSans-36"/>
      </defs>
      <g transform="translate(260.673892 322.182437)scale(0.1 -0.1)">
       <use xlink:href="#DejaVuSans-30"/>
       <use x="63.623047" xlink:href="#DejaVuSans-2e"/>
       <use x="95.410156" xlink:href="#DejaVuSans-36"/>
      </g>
     </g>
    </g>
    <g id="xtick_5">
     <g id="line2d_5">
      <g>
       <use style="stroke:#000000;stroke-width:0.8;" x="333.556364" xlink:href="#m8ced34412f" y="307.584"/>
      </g>
     </g>
     <g id="text_5">
      <!-- 0.8 -->
      <defs>
       <path d="M 31.78125 34.625 
Q 24.75 34.625 20.71875 30.859375 
Q 16.703125 27.09375 16.703125 20.515625 
Q 16.703125 13.921875 20.71875 10.15625 
Q 24.75 6.390625 31.78125 6.390625 
Q 38.8125 6.390625 42.859375 10.171875 
Q 46.921875 13.96875 46.921875 20.515625 
Q 46.921875 27.09375 42.890625 30.859375 
Q 38.875 34.625 31.78125 34.625 
z
M 21.921875 38.8125 
Q 15.578125 40.375 12.03125 44.71875 
Q 8.5 49.078125 8.5 55.328125 
Q 8.5 64.0625 14.71875 69.140625 
Q 20.953125 74.21875 31.78125 74.21875 
Q 42.671875 74.21875 48.875 69.140625 
Q 55.078125 64.0625 55.078125 55.328125 
Q 55.078125 49.078125 51.53125 44.71875 
Q 48 40.375 41.703125 38.8125 
Q 48.828125 37.15625 52.796875 32.3125 
Q 56.78125 27.484375 56.78125 20.515625 
Q 56.78125 9.90625 50.3125 4.234375 
Q 43.84375 -1.421875 31.78125 -1.421875 
Q 19.734375 -1.421875 13.25 4.234375 
Q 6.78125 9.90625 6.78125 20.515625 
Q 6.78125 27.484375 10.78125 32.3125 
Q 14.796875 37.15625 21.921875 38.8125 
z
M 18.3125 54.390625 
Q 18.3125 48.734375 21.84375 45.5625 
Q 25.390625 42.390625 31.78125 42.390625 
Q 38.140625 42.390625 41.71875 45.5625 
Q 45.3125 48.734375 45.3125 54.390625 
Q 45.3125 60.0625 41.71875 63.234375 
Q 38.140625 66.40625 31.78125 66.40625 
Q 25.390625 66.40625 21.84375 63.234375 
Q 18.3125 60.0625 18.3125 54.390625 
z
" id="DejaVuSans-38"/>
      </defs>
      <g transform="translate(325.604801 322.182437)scale(0.1 -0.1)">
       <use xlink:href="#DejaVuSans-30"/>
       <use x="63.623047" xlink:href="#DejaVuSans-2e"/>
       <use x="95.410156" xlink:href="#DejaVuSans-38"/>
      </g>
     </g>
    </g>
    <g id="xtick_6">
     <g id="line2d_6">
      <g>
       <use style="stroke:#000000;stroke-width:0.8;" x="398.487273" xlink:href="#m8ced34412f" y="307.584"/>
      </g>
     </g>
     <g id="text_6">
      <!-- 1.0 -->
      <defs>
       <path d="M 12.40625 8.296875 
L 28.515625 8.296875 
L 28.515625 63.921875 
L 10.984375 60.40625 
L 10.984375 69.390625 
L 28.421875 72.90625 
L 38.28125 72.90625 
L 38.28125 8.296875 
L 54.390625 8.296875 
L 54.390625 0 
L 12.40625 0 
z
" id="DejaVuSans-31"/>
      </defs>
      <g transform="translate(390.53571 322.182437)scale(0.1 -0.1)">
       <use xlink:href="#DejaVuSans-31"/>
       <use x="63.623047" xlink:href="#DejaVuSans-2e"/>
       <use x="95.410156" xlink:href="#DejaVuSans-30"/>
      </g>
     </g>
    </g>
   </g>
   <g id="matplotlib.axis_2">
    <g id="ytick_1">
     <g id="line2d_7">
      <defs>
       <path d="M 0 0 
L -3.5 0 
" id="m9113128208" style="stroke:#000000;stroke-width:0.8;"/>
      </defs>
      <g>
       <use style="stroke:#000000;stroke-width:0.8;" x="57.6" xlink:href="#m9113128208" y="298.728"/>
      </g>
     </g>
     <g id="text_7">
      <!-- 0.0 -->
      <g transform="translate(34.696875 302.527219)scale(0.1 -0.1)">
       <use xlink:href="#DejaVuSans-30"/>
       <use x="63.623047" xlink:href="#DejaVuSans-2e"/>
       <use x="95.410156" xlink:href="#DejaVuSans-30"/>
      </g>
     </g>
    </g>
    <g id="ytick_2">
     <g id="line2d_8">
      <g>
       <use style="stroke:#000000;stroke-width:0.8;" x="57.6" xlink:href="#m9113128208" y="249.696"/>
      </g>
     </g>
     <g id="text_8">
      <!-- 0.2 -->
      <g transform="translate(34.696875 253.495219)scale(0.1 -0.1)">
       <use xlink:href="#DejaVuSans-30"/>
       <use x="63.623047" xlink:href="#DejaVuSans-2e"/>
       <use x="95.410156" xlink:href="#DejaVuSans-32"/>
      </g>
     </g>
    </g>
    <g id="ytick_3">
     <g id="line2d_9">
      <g>
       <use style="stroke:#000000;stroke-width:0.8;" x="57.6" xlink:href="#m9113128208" y="200.664"/>
      </g>
     </g>
     <g id="text_9">
      <!-- 0.4 -->
      <g transform="translate(34.696875 204.463219)scale(0.1 -0.1)">
       <use xlink:href="#DejaVuSans-30"/>
       <use x="63.623047" xlink:href="#DejaVuSans-2e"/>
       <use x="95.410156" xlink:href="#DejaVuSans-34"/>
      </g>
     </g>
    </g>
    <g id="ytick_4">
     <g id="line2d_10">
      <g>
       <use style="stroke:#000000;stroke-width:0.8;" x="57.6" xlink:href="#m9113128208" y="151.632"/>
      </g>
     </g>
     <g id="text_10">
      <!-- 0.6 -->
      <g transform="translate(34.696875 155.431219)scale(0.1 -0.1)">
       <use xlink:href="#DejaVuSans-30"/>
       <use x="63.623047" xlink:href="#DejaVuSans-2e"/>
       <use x="95.410156" xlink:href="#DejaVuSans-36"/>
      </g>
     </g>
    </g>
    <g id="ytick_5">
     <g id="line2d_11">
      <g>
       <use style="stroke:#000000;stroke-width:0.8;" x="57.6" xlink:href="#m9113128208" y="102.6"/>
      </g>
     </g>
     <g id="text_11">
      <!-- 0.8 -->
      <g transform="translate(34.696875 106.399219)scale(0.1 -0.1)">
       <use xlink:href="#DejaVuSans-30"/>
       <use x="63.623047" xlink:href="#DejaVuSans-2e"/>
       <use x="95.410156" xlink:href="#DejaVuSans-38"/>
      </g>
     </g>
    </g>
    <g id="ytick_6">
     <g id="line2d_12">
      <g>
       <use style="stroke:#000000;stroke-width:0.8;" x="57.6" xlink:href="#m9113128208" y="53.568"/>
      </g>
     </g>
     <g id="text_12">
      <!-- 1.0 -->
      <g transform="translate(34.696875 57.367219)scale(0.1 -0.1)">
       <use xlink:href="#DejaVuSans-31"/>
       <use x="63.623047" xlink:href="#DejaVuSans-2e"/>
       <use x="95.410156" xlink:href="#DejaVuSans-30"/>
      </g>
     </g>
    </g>
   </g>
   <g id="line2d_13">
    <path clip-path="url(#pad13186cb6)" d="M 73.832727 286.47 
L 73.832727 200.664 
L 74.070569 200.664 
L 74.070569 151.632 
L 75.25978 151.632 
L 75.25978 139.374 
L 75.735465 139.374 
L 75.735465 127.116 
L 85.486993 127.116 
L 86.200519 114.858 
L 97.854785 114.858 
L 97.854785 102.6 
L 158.98022 102.6 
L 160.169431 90.342 
L 209.878442 90.342 
L 214.635285 78.084 
L 272.906613 78.084 
L 288.842038 53.568 
L 398.487273 53.568 
L 398.487273 53.568 
" style="fill:none;stroke:#1f77b4;stroke-linecap:square;stroke-width:1.5;"/>
   </g>
   <g id="line2d_14">
    <path clip-path="url(#pad13186cb6)" d="M 73.832727 295.488 
L 73.832727 145.368 
L 74.113085 145.368 
L 74.113085 137.808 
L 74.393443 137.808 
L 74.393443 136.728 
L 74.673801 136.728 
L 74.673801 122.688 
L 74.954159 122.688 
L 74.954159 115.128 
L 75.234517 115.128 
L 75.234517 111.888 
L 75.795233 111.888 
L 75.795233 106.488 
L 76.636307 106.488 
L 76.636307 105.408 
L 76.916665 105.408 
L 76.916665 101.088 
L 77.197023 101.088 
L 77.197023 98.928 
L 77.477381 98.928 
L 77.477381 97.848 
L 79.439887 97.848 
L 79.439887 96.768 
L 80.000603 96.768 
L 80.000603 95.688 
L 80.280961 95.688 
L 80.280961 94.608 
L 81.402393 94.608 
L 81.402393 93.528 
L 81.682751 93.528 
L 81.682751 92.448 
L 82.523825 92.448 
L 82.523825 91.368 
L 83.645257 91.368 
L 83.645257 90.288 
L 84.766689 90.288 
L 84.766689 87.048 
L 85.888121 87.048 
L 85.888121 85.968 
L 87.289911 85.968 
L 87.289911 84.888 
L 87.850626 84.888 
L 87.850626 83.808 
L 88.411342 83.808 
L 88.411342 80.568 
L 88.972058 80.568 
L 88.972058 77.328 
L 89.813132 77.328 
L 89.813132 76.248 
L 90.934564 76.248 
L 90.934564 74.088 
L 91.775638 74.088 
L 92.055996 73.008 
L 96.822082 73.008 
L 96.822082 71.928 
L 98.50423 71.928 
L 98.50423 70.848 
L 100.186378 70.848 
L 100.186378 69.768 
L 103.270316 69.768 
L 103.270316 68.688 
L 106.354253 68.688 
L 106.354253 67.608 
L 109.157833 67.608 
L 109.438191 66.528 
L 109.718549 66.528 
L 109.718549 65.448 
L 113.923919 65.448 
L 113.923919 64.368 
L 118.129289 64.368 
L 118.409647 63.288 
L 118.690005 63.288 
L 118.970363 62.208 
L 120.091795 62.208 
L 120.652511 61.128 
L 123.736448 61.128 
L 123.736448 60.048 
L 132.707904 60.048 
L 132.707904 58.968 
L 136.913274 58.968 
L 136.913274 57.888 
L 143.641865 57.888 
L 143.641865 56.808 
L 154.575827 56.808 
L 154.575827 55.728 
L 203.918832 55.728 
L 203.918832 54.648 
L 275.690476 54.648 
L 276.811908 53.568 
L 398.487273 53.568 
L 398.487273 53.568 
" style="fill:none;stroke:#ff7f0e;stroke-linecap:square;stroke-width:1.5;"/>
   </g>
   <g id="line2d_15">
    <path clip-path="url(#pad13186cb6)" d="M 73.832727 256.091478 
L 73.832727 234.773217 
L 73.832727 224.114087 
L 74.309459 224.114087 
L 74.309459 192.136696 
L 74.547825 192.136696 
L 74.547825 170.818435 
L 75.024557 170.818435 
L 75.024557 160.159304 
L 75.978022 160.159304 
L 75.978022 149.500174 
L 78.123316 149.500174 
L 78.123316 138.841043 
L 78.361682 138.841043 
L 78.361682 128.181913 
L 78.600048 128.181913 
L 78.600048 117.522783 
L 79.315146 117.522783 
L 79.315146 106.863652 
L 80.506976 106.863652 
L 80.506976 96.204522 
L 142.720513 96.204522 
L 143.435611 85.545391 
L 158.929403 85.545391 
L 160.3596 74.886261 
L 166.318751 74.886261 
L 168.464045 64.22713 
L 193.254113 64.22713 
L 195.161041 53.568 
L 398.487273 53.568 
L 398.487273 53.568 
" style="fill:none;stroke:#2ca02c;stroke-linecap:square;stroke-width:1.5;"/>
   </g>
   <g id="line2d_16">
    <path clip-path="url(#pad13186cb6)" d="M 73.832727 249.696 
L 73.832727 151.632 
L 76.420553 151.632 
L 76.891067 151.632 
L 77.361581 151.632 
L 77.832095 151.632 
L 79.008379 151.632 
L 79.478893 151.632 
L 79.949407 151.632 
L 80.419921 102.6 
L 80.890435 102.6 
L 81.125692 102.6 
L 81.831462 102.6 
L 82.301976 102.6 
L 82.77249 102.6 
L 83.713518 102.6 
L 84.184032 102.6 
L 84.654545 102.6 
L 85.595573 102.6 
L 86.301344 102.6 
L 86.771858 102.6 
L 88.183399 102.6 
L 88.653913 102.6 
L 89.359684 102.6 
L 89.830198 102.6 
L 90.535968 102.6 
L 91.94751 102.6 
L 92.418024 102.6 
L 92.653281 102.6 
L 94.535336 102.6 
L 95.711621 102.6 
L 96.417391 102.6 
L 98.299447 102.6 
L 98.76996 102.6 
L 100.887273 102.6 
L 101.8283 102.6 
L 103.945613 102.6 
L 105.827668 102.6 
L 107.94498 102.6 
L 108.650751 102.6 
L 111.944348 102.6 
L 113.826403 102.6 
L 116.414229 102.6 
L 118.766798 102.6 
L 122.060395 102.6 
L 125.353992 53.568 
L 128.177075 53.568 
L 134.764269 53.568 
L 141.116206 53.568 
L 154.290593 53.568 
L 164.40664 53.568 
L 175.463715 53.568 
L 185.579763 53.568 
L 198.048379 53.568 
L 218.045217 53.568 
L 253.098498 53.568 
L 398.487273 53.568 
" style="fill:none;stroke:#d62728;stroke-linecap:square;stroke-width:1.5;"/>
   </g>
   <g id="line2d_17">
    <path clip-path="url(#pad13186cb6)" d="M 73.832727 289.476679 
L 73.832727 238.594415 
L 74.076462 238.594415 
L 74.076462 173.83517 
L 74.320197 173.83517 
L 74.320197 136.829887 
L 75.0514 136.829887 
L 75.0514 132.204226 
L 78.70742 132.204226 
L 78.70742 127.578566 
L 79.194889 127.578566 
L 79.194889 122.952906 
L 81.388501 122.952906 
L 81.388501 118.327245 
L 86.750663 118.327245 
L 86.750663 113.701585 
L 89.675479 113.701585 
L 89.919214 109.075925 
L 89.919214 104.450264 
L 104.299558 104.450264 
L 104.787027 95.198943 
L 107.955577 95.198943 
L 107.955577 90.573283 
L 108.930516 90.573283 
L 109.66172 85.947623 
L 111.611597 85.947623 
L 111.611597 81.321962 
L 129.647961 81.321962 
L 129.891695 76.696302 
L 142.809631 76.696302 
L 143.297101 72.070642 
L 145.978182 72.070642 
L 145.978182 67.444981 
L 169.620442 67.444981 
L 170.351646 62.819321 
L 175.713808 62.819321 
L 175.957543 58.19366 
L 246.64059 58.19366 
L 247.371794 53.568 
L 398.487273 53.568 
L 398.487273 53.568 
" style="fill:none;stroke:#9467bd;stroke-linecap:square;stroke-width:1.5;"/>
   </g>
   <g id="line2d_18">
    <path clip-path="url(#pad13186cb6)" d="M 73.832727 282.163135 
L 73.832727 199.338811 
L 74.080366 199.338811 
L 74.080366 196.025838 
L 74.328005 196.025838 
L 74.328005 136.392324 
L 74.575644 136.392324 
L 74.575644 116.514486 
L 74.823283 116.514486 
L 74.823283 109.888541 
L 75.070922 109.888541 
L 75.070922 103.262595 
L 75.566199 103.262595 
L 75.566199 99.949622 
L 76.309116 99.949622 
L 76.309116 96.636649 
L 77.052032 96.636649 
L 77.052032 93.323676 
L 79.033143 93.323676 
L 79.033143 90.010703 
L 79.280782 90.010703 
L 79.77606 86.69773 
L 82.500087 86.69773 
L 82.500087 83.384757 
L 84.728837 83.384757 
L 84.728837 80.071784 
L 85.967031 80.071784 
L 85.967031 76.758811 
L 86.21467 76.758811 
L 86.21467 73.445838 
L 94.386753 73.445838 
L 94.386753 70.132865 
L 107.016335 70.132865 
L 107.511612 66.819892 
L 108.00689 66.819892 
L 108.00689 63.506919 
L 110.483279 63.506919 
L 110.483279 60.193946 
L 112.959667 60.193946 
L 112.959667 56.880973 
L 158.525217 56.880973 
L 160.011051 53.568 
L 398.487273 53.568 
L 398.487273 53.568 
" style="fill:none;stroke:#8c564b;stroke-linecap:square;stroke-width:1.5;"/>
   </g>
   <g id="line2d_19">
    <path clip-path="url(#pad13186cb6)" d="M 73.832727 284.122723 
L 73.832727 143.286128 
L 74.115036 143.286128 
L 74.115036 140.156426 
L 74.397344 140.156426 
L 74.397344 129.724085 
L 74.679652 129.724085 
L 74.679652 121.378213 
L 74.96196 121.378213 
L 74.96196 117.205277 
L 75.244269 117.205277 
L 75.244269 116.162043 
L 75.526577 116.162043 
L 75.526577 113.03234 
L 75.808885 113.03234 
L 75.808885 107.81617 
L 76.091194 107.81617 
L 76.091194 104.686468 
L 76.373502 104.686468 
L 76.373502 102.6 
L 76.65581 102.6 
L 76.65581 101.556766 
L 77.220427 101.556766 
L 77.220427 98.427064 
L 78.067352 98.427064 
L 78.067352 97.38383 
L 78.34966 97.38383 
L 78.34966 96.340596 
L 78.631968 96.340596 
L 78.631968 94.254128 
L 81.172743 94.254128 
L 81.455051 93.210894 
L 81.455051 91.124426 
L 82.019668 91.124426 
L 82.019668 90.081191 
L 82.584285 90.081191 
L 82.584285 89.037957 
L 84.842751 89.037957 
L 84.842751 87.994723 
L 85.125059 87.994723 
L 85.125059 86.951489 
L 89.077375 86.951489 
L 89.077375 85.908255 
L 89.359684 84.865021 
L 89.359684 83.821787 
L 89.641992 83.821787 
L 89.641992 82.778553 
L 90.488917 82.778553 
L 90.488917 80.692085 
L 91.61815 80.692085 
L 91.61815 79.648851 
L 91.900458 79.648851 
L 91.900458 78.605617 
L 93.312 78.605617 
L 93.312 77.562383 
L 95.570466 77.562383 
L 95.570466 76.519149 
L 97.546625 76.519149 
L 97.546625 75.475915 
L 98.675858 75.475915 
L 98.675858 74.432681 
L 98.958166 74.432681 
L 99.240474 73.389447 
L 102.345866 73.389447 
L 102.345866 72.346213 
L 102.628174 72.346213 
L 102.628174 71.302979 
L 110.250498 71.302979 
L 110.250498 70.259745 
L 110.532806 70.259745 
L 110.532806 69.216511 
L 111.379731 69.216511 
L 111.66204 68.173277 
L 111.66204 67.130043 
L 113.920506 67.130043 
L 113.920506 66.086809 
L 114.202814 66.086809 
L 114.202814 65.043574 
L 114.767431 65.043574 
L 114.767431 62.957106 
L 119.84898 62.957106 
L 120.413597 61.913872 
L 124.083605 61.913872 
L 124.365913 60.870638 
L 124.93053 60.870638 
L 124.93053 59.827404 
L 129.165154 59.827404 
L 129.165154 58.78417 
L 131.988237 58.78417 
L 131.988237 57.740936 
L 148.644427 57.740936 
L 149.209043 56.697702 
L 150.620585 56.697702 
L 150.902893 55.654468 
L 153.16136 55.654468 
L 153.16136 54.611234 
L 209.905328 54.611234 
L 210.752253 53.568 
L 398.487273 53.568 
L 398.487273 53.568 
" style="fill:none;stroke:#e377c2;stroke-linecap:square;stroke-width:1.5;"/>
   </g>
   <g id="line2d_20">
    <path clip-path="url(#pad13186cb6)" d="M 73.832727 291.06675 
L 73.832727 260.42175 
L 73.832727 245.09925 
L 73.832727 199.13175 
L 73.832727 183.80925 
L 73.832727 122.51925 
L 74.312631 122.51925 
L 74.312631 114.858 
L 74.792534 114.858 
L 74.792534 107.19675 
L 75.272437 107.19675 
L 75.272437 99.5355 
L 75.512389 99.5355 
L 75.992292 99.5355 
L 79.831518 99.5355 
L 80.311421 99.5355 
L 81.031276 99.5355 
L 81.511179 99.5355 
L 81.991082 99.5355 
L 82.470986 99.5355 
L 82.710937 99.5355 
L 83.190841 99.5355 
L 84.63055 99.5355 
L 85.590357 99.5355 
L 85.830308 99.5355 
L 86.790115 99.5355 
L 87.030067 99.5355 
L 87.270018 84.213 
L 87.749921 84.213 
L 88.469776 84.213 
L 88.709728 84.213 
L 89.189631 84.213 
L 89.429583 84.213 
L 90.869292 84.213 
L 91.109244 84.213 
L 92.548954 84.213 
L 93.748712 84.213 
L 94.468567 84.213 
L 94.94847 84.213 
L 95.188422 84.213 
L 96.148228 84.213 
L 96.868083 84.213 
L 97.82789 84.213 
L 98.307793 84.213 
L 99.027648 84.213 
L 100.947261 84.213 
L 101.907067 84.213 
L 102.147019 84.213 
L 102.626922 84.213 
L 103.586728 84.213 
L 104.306583 84.213 
L 105.26639 84.213 
L 105.746293 84.213 
L 106.7061 84.213 
L 108.145809 84.213 
L 109.105616 84.213 
L 109.345567 84.213 
L 110.305374 84.213 
L 110.785277 84.213 
L 111.505132 84.213 
L 116.304164 84.213 
L 119.183584 84.213 
L 121.823052 84.213 
L 123.502713 84.213 
L 124.942423 84.213 
L 125.662278 84.213 
L 127.581891 84.213 
L 128.061794 84.213 
L 131.421117 84.213 
L 132.620875 84.213 
L 135.980198 84.213 
L 138.859617 84.213 
L 140.059375 84.213 
L 142.698843 84.213 
L 145.098359 84.213 
L 147.737827 84.213 
L 149.177537 84.213 
L 151.817005 76.55175 
L 153.496666 68.8905 
L 156.136134 68.8905 
L 158.295698 68.8905 
L 160.215311 68.8905 
L 164.054537 68.8905 
L 166.214102 68.8905 
L 168.85357 68.8905 
L 170.053328 68.8905 
L 171.493038 68.8905 
L 173.892554 68.8905 
L 177.011925 68.8905 
L 180.371248 68.8905 
L 183.970522 68.8905 
L 187.089893 68.8905 
L 189.969313 68.8905 
L 192.368829 68.8905 
L 195.248248 61.22925 
L 200.767136 61.22925 
L 205.086265 61.22925 
L 209.165442 61.22925 
L 212.044862 61.22925 
L 215.164233 61.22925 
L 221.882878 61.22925 
L 231.00104 61.22925 
L 236.759879 61.22925 
L 243.238573 53.568 
L 251.156976 53.568 
L 256.675864 53.568 
L 262.914606 53.568 
L 269.3933 53.568 
L 276.351897 53.568 
L 286.189913 53.568 
L 295.308075 53.568 
L 315.22406 53.568 
L 398.487273 53.568 
" style="fill:none;stroke:#7f7f7f;stroke-linecap:square;stroke-width:1.5;"/>
   </g>
   <g id="line2d_21">
    <path clip-path="url(#pad13186cb6)" d="M 73.832727 290.274207 
L 73.832727 281.820414 
L 73.832727 264.912828 
L 73.832727 231.097655 
L 74.072148 214.190069 
L 74.072148 197.282483 
L 74.072148 155.013517 
L 74.072148 138.105931 
L 74.072148 78.929379 
L 75.508673 78.929379 
L 75.508673 70.475586 
L 79.818246 70.475586 
L 80.297088 70.475586 
L 81.494191 70.475586 
L 82.451874 70.475586 
L 85.803765 70.475586 
L 86.282607 70.475586 
L 87.000869 70.475586 
L 87.47971 70.475586 
L 87.719131 70.475586 
L 88.676814 70.475586 
L 88.916235 70.475586 
L 89.873918 70.475586 
L 90.59218 70.475586 
L 90.831601 70.475586 
L 92.028705 70.475586 
L 92.986388 70.475586 
L 93.225809 70.475586 
L 94.422912 70.475586 
L 95.141175 70.475586 
L 95.380595 70.475586 
L 96.81712 70.475586 
L 97.295961 70.475586 
L 98.253644 70.475586 
L 98.971907 70.475586 
L 99.211327 70.475586 
L 99.690169 70.475586 
L 99.92959 70.475586 
L 101.126693 70.475586 
L 102.084377 70.475586 
L 102.323797 70.475586 
L 103.760322 70.475586 
L 104.239163 70.475586 
L 104.478584 70.475586 
L 105.675688 70.475586 
L 106.154529 70.475586 
L 106.39395 70.475586 
L 107.351633 70.475586 
L 107.591054 70.475586 
L 110.224682 70.475586 
L 111.900628 70.475586 
L 114.534256 70.475586 
L 115.73136 70.475586 
L 119.08325 70.475586 
L 120.998616 70.475586 
L 123.153403 62.021793 
L 123.632245 62.021793 
L 125.068769 62.021793 
L 125.30819 62.021793 
L 127.462977 62.021793 
L 129.378343 62.021793 
L 131.77255 62.021793 
L 132.011971 62.021793 
L 134.406179 62.021793 
L 136.560965 62.021793 
L 140.391698 62.021793 
L 140.631118 62.021793 
L 143.743588 62.021793 
L 143.983009 62.021793 
L 146.856058 62.021793 
L 147.57432 62.021793 
L 151.644473 62.021793 
L 152.362735 62.021793 
L 155.954047 62.021793 
L 156.193467 62.021793 
L 165.291456 62.021793 
L 165.530877 62.021793 
L 169.840451 62.021793 
L 173.431762 62.021793 
L 174.150024 62.021793 
L 174.628866 62.021793 
L 181.811488 62.021793 
L 188.75469 62.021793 
L 189.472953 62.021793 
L 195.697892 62.021793 
L 195.937313 62.021793 
L 202.401673 62.021793 
L 202.880515 62.021793 
L 211.739083 62.021793 
L 217.724602 53.568 
L 218.203443 53.568 
L 226.58317 53.568 
L 238.314787 53.568 
L 254.595398 53.568 
L 274.706742 53.568 
L 274.946163 53.568 
L 300.085342 53.568 
L 398.487273 53.568 
" style="fill:none;stroke:#bcbd22;stroke-linecap:square;stroke-width:1.5;"/>
   </g>
   <g id="line2d_22">
    <path clip-path="url(#pad13186cb6)" d="M 73.832727 243.963658 
L 73.832727 97.5842 
L 74.191066 97.5842 
L 74.191066 96.560568 
L 74.549404 96.560568 
L 74.549404 94.513303 
L 74.907742 94.513303 
L 74.907742 92.977854 
L 75.266081 92.977854 
L 75.266081 90.930589 
L 75.624419 90.930589 
L 75.624419 90.418772 
L 76.699434 90.418772 
L 76.699434 86.324242 
L 77.774449 86.324242 
L 77.774449 85.812426 
L 78.132787 85.812426 
L 78.132787 83.765161 
L 78.491126 83.765161 
L 78.491126 82.229712 
L 78.849464 82.229712 
L 78.849464 81.717896 
L 79.566141 81.717896 
L 79.566141 80.182447 
L 80.641156 80.182447 
L 80.641156 79.158814 
L 80.999494 79.158814 
L 80.999494 78.646998 
L 81.357833 78.646998 
L 81.357833 78.135182 
L 81.716171 78.135182 
L 81.716171 77.623365 
L 82.074509 77.623365 
L 82.074509 77.111549 
L 82.432848 77.111549 
L 82.432848 75.5761 
L 83.149524 75.5761 
L 83.149524 74.040651 
L 83.866201 74.040651 
L 83.866201 71.993386 
L 84.582878 71.993386 
L 84.582878 70.969754 
L 84.941216 70.969754 
L 84.941216 69.946121 
L 87.091246 69.946121 
L 87.091246 69.434305 
L 87.449585 69.434305 
L 87.449585 68.922489 
L 88.166261 68.922489 
L 88.166261 67.898856 
L 89.957953 67.898856 
L 89.957953 67.38704 
L 90.316291 67.38704 
L 90.316291 66.363407 
L 91.749645 66.363407 
L 91.749645 65.851591 
L 93.182998 65.851591 
L 93.182998 64.827958 
L 93.899675 64.827958 
L 93.899675 64.316142 
L 95.333028 64.316142 
L 95.333028 63.292509 
L 96.049705 63.292509 
L 96.049705 62.780693 
L 97.483058 62.780693 
L 97.483058 62.268877 
L 97.841397 62.268877 
L 97.841397 61.245244 
L 99.27475 61.245244 
L 99.27475 60.733428 
L 99.633089 60.733428 
L 99.991427 60.221612 
L 102.499795 60.221612 
L 102.499795 59.709795 
L 103.57481 59.709795 
L 103.57481 59.197979 
L 108.233209 59.197979 
L 108.233209 58.686163 
L 110.024901 58.686163 
L 110.024901 58.174347 
L 110.383239 58.174347 
L 110.383239 57.150714 
L 119.341698 57.150714 
L 119.341698 56.638898 
L 125.075111 56.638898 
L 125.075111 56.127081 
L 140.125322 56.127081 
L 140.125322 55.615265 
L 143.708706 55.615265 
L 143.708706 55.103449 
L 153.742179 55.103449 
L 153.742179 54.591633 
L 166.64236 54.591633 
L 166.64236 54.079816 
L 213.226346 54.079816 
L 213.226346 53.568 
L 398.487273 53.568 
L 398.487273 53.568 
" style="fill:none;stroke:#17becf;stroke-linecap:square;stroke-width:1.5;"/>
   </g>
   <g id="line2d_23">
    <path clip-path="url(#pad13186cb6)" d="M 73.832727 293.920941 
L 73.832727 144.902118 
L 74.562835 144.902118 
L 74.562835 120.866824 
L 75.049573 120.866824 
L 75.049573 116.059765 
L 75.292943 116.059765 
L 75.292943 111.252706 
L 75.536312 106.445647 
L 75.536312 101.638588 
L 78.943481 101.638588 
L 78.943481 96.831529 
L 79.673589 96.831529 
L 79.673589 92.024471 
L 83.080758 92.024471 
L 83.080758 87.217412 
L 84.540973 87.217412 
L 84.540973 82.410353 
L 96.466065 82.410353 
L 96.466065 77.603294 
L 100.846711 77.603294 
L 100.846711 72.796235 
L 120.559618 72.796235 
L 120.559618 67.989176 
L 135.64851 67.989176 
L 135.89188 63.182118 
L 151.46751 63.182118 
L 152.684356 58.375059 
L 157.79511 58.375059 
L 157.79511 53.568 
L 398.487273 53.568 
L 398.487273 53.568 
" style="fill:none;stroke:#1f77b4;stroke-linecap:square;stroke-width:1.5;"/>
   </g>
   <g id="line2d_24">
    <path clip-path="url(#pad13186cb6)" d="M 73.832727 287.797299 
L 73.832727 145.698191 
L 74.361481 145.698191 
L 74.361481 142.575134 
L 74.625857 142.575134 
L 74.625857 137.890548 
L 75.418987 137.890548 
L 75.418987 134.76749 
L 75.683364 134.76749 
L 75.683364 131.644433 
L 76.740871 131.644433 
L 76.740871 128.521376 
L 78.591507 128.521376 
L 78.591507 126.959847 
L 79.120261 126.959847 
L 79.120261 125.398318 
L 81.235274 125.398318 
L 81.235274 122.275261 
L 81.499651 122.275261 
L 81.499651 120.713732 
L 82.821534 120.713732 
L 82.821534 119.152204 
L 83.085911 119.152204 
L 83.085911 116.029146 
L 84.407794 116.029146 
L 84.407794 114.467618 
L 89.166574 114.467618 
L 89.166574 112.906089 
L 89.430951 112.906089 
L 89.959704 111.344561 
L 90.224081 111.344561 
L 90.224081 109.783032 
L 90.488457 108.221503 
L 90.488457 106.659975 
L 90.752834 106.659975 
L 90.752834 105.098446 
L 95.511614 105.098446 
L 95.511614 103.536917 
L 97.097874 103.536917 
L 97.362251 101.975389 
L 97.362251 100.41386 
L 98.684134 100.41386 
L 98.684134 98.852331 
L 99.741641 98.852331 
L 99.741641 97.290803 
L 100.006017 97.290803 
L 100.006017 95.729274 
L 100.270394 95.729274 
L 100.270394 91.044688 
L 101.856654 91.044688 
L 101.856654 89.483159 
L 102.385407 89.483159 
L 102.385407 87.921631 
L 105.822304 87.921631 
L 106.615434 86.360102 
L 106.87981 84.798573 
L 110.05233 84.798573 
L 110.05233 83.237045 
L 110.316707 83.237045 
L 110.84546 81.675516 
L 111.374214 81.675516 
L 111.63859 80.113987 
L 112.167344 80.113987 
L 112.167344 78.552459 
L 112.43172 78.552459 
L 112.43172 75.429401 
L 113.22485 75.429401 
L 113.22485 73.867873 
L 114.01798 73.867873 
L 114.01798 72.306344 
L 115.075487 72.306344 
L 115.075487 70.744815 
L 115.868617 70.744815 
L 115.868617 67.621758 
L 126.443684 67.621758 
L 126.972437 66.060229 
L 127.236814 64.498701 
L 127.765567 64.498701 
L 127.765567 62.937172 
L 133.84623 62.937172 
L 133.84623 61.375643 
L 145.74318 61.375643 
L 145.74318 59.814115 
L 163.456417 59.814115 
L 163.456417 58.252586 
L 201.526657 58.252586 
L 201.526657 56.691057 
L 232.98748 56.691057 
L 233.251857 55.129529 
L 266.034563 55.129529 
L 266.563317 53.568 
L 398.487273 53.568 
L 398.487273 53.568 
" style="fill:none;stroke:#ff7f0e;stroke-linecap:square;stroke-width:1.5;"/>
   </g>
   <g id="patch_3">
    <path d="M 57.6 307.584 
L 57.6 41.472 
" style="fill:none;stroke:#000000;stroke-linecap:square;stroke-linejoin:miter;stroke-width:0.8;"/>
   </g>
   <g id="patch_4">
    <path d="M 414.72 307.584 
L 414.72 41.472 
" style="fill:none;stroke:#000000;stroke-linecap:square;stroke-linejoin:miter;stroke-width:0.8;"/>
   </g>
   <g id="patch_5">
    <path d="M 57.6 307.584 
L 414.72 307.584 
" style="fill:none;stroke:#000000;stroke-linecap:square;stroke-linejoin:miter;stroke-width:0.8;"/>
   </g>
   <g id="patch_6">
    <path d="M 57.6 41.472 
L 414.72 41.472 
" style="fill:none;stroke:#000000;stroke-linecap:square;stroke-linejoin:miter;stroke-width:0.8;"/>
   </g>
   <g id="legend_1">
    <g id="patch_7">
     <path d="M 277.049688 302.584 
L 407.72 302.584 
Q 409.72 302.584 409.72 300.584 
L 409.72 125.4465 
Q 409.72 123.4465 407.72 123.4465 
L 277.049688 123.4465 
Q 275.049688 123.4465 275.049688 125.4465 
L 275.049688 300.584 
Q 275.049688 302.584 277.049688 302.584 
z
" style="fill:#ffffff;opacity:0.8;stroke:#cccccc;stroke-linejoin:miter;"/>
    </g>
    <g id="line2d_25">
     <path d="M 279.049688 131.544938 
L 299.049688 131.544938 
" style="fill:none;stroke:#1f77b4;stroke-linecap:square;stroke-width:1.5;"/>
    </g>
    <g id="line2d_26"/>
    <g id="text_13">
     <!-- antiinfective -->
     <defs>
      <path d="M 34.28125 27.484375 
Q 23.390625 27.484375 19.1875 25 
Q 14.984375 22.515625 14.984375 16.5 
Q 14.984375 11.71875 18.140625 8.90625 
Q 21.296875 6.109375 26.703125 6.109375 
Q 34.1875 6.109375 38.703125 11.40625 
Q 43.21875 16.703125 43.21875 25.484375 
L 43.21875 27.484375 
z
M 52.203125 31.203125 
L 52.203125 0 
L 43.21875 0 
L 43.21875 8.296875 
Q 40.140625 3.328125 35.546875 0.953125 
Q 30.953125 -1.421875 24.3125 -1.421875 
Q 15.921875 -1.421875 10.953125 3.296875 
Q 6 8.015625 6 15.921875 
Q 6 25.140625 12.171875 29.828125 
Q 18.359375 34.515625 30.609375 34.515625 
L 43.21875 34.515625 
L 43.21875 35.40625 
Q 43.21875 41.609375 39.140625 45 
Q 35.0625 48.390625 27.6875 48.390625 
Q 23 48.390625 18.546875 47.265625 
Q 14.109375 46.140625 10.015625 43.890625 
L 10.015625 52.203125 
Q 14.9375 54.109375 19.578125 55.046875 
Q 24.21875 56 28.609375 56 
Q 40.484375 56 46.34375 49.84375 
Q 52.203125 43.703125 52.203125 31.203125 
z
" id="DejaVuSans-61"/>
      <path d="M 54.890625 33.015625 
L 54.890625 0 
L 45.90625 0 
L 45.90625 32.71875 
Q 45.90625 40.484375 42.875 44.328125 
Q 39.84375 48.1875 33.796875 48.1875 
Q 26.515625 48.1875 22.3125 43.546875 
Q 18.109375 38.921875 18.109375 30.90625 
L 18.109375 0 
L 9.078125 0 
L 9.078125 54.6875 
L 18.109375 54.6875 
L 18.109375 46.1875 
Q 21.34375 51.125 25.703125 53.5625 
Q 30.078125 56 35.796875 56 
Q 45.21875 56 50.046875 50.171875 
Q 54.890625 44.34375 54.890625 33.015625 
z
" id="DejaVuSans-6e"/>
      <path d="M 18.3125 70.21875 
L 18.3125 54.6875 
L 36.8125 54.6875 
L 36.8125 47.703125 
L 18.3125 47.703125 
L 18.3125 18.015625 
Q 18.3125 11.328125 20.140625 9.421875 
Q 21.96875 7.515625 27.59375 7.515625 
L 36.8125 7.515625 
L 36.8125 0 
L 27.59375 0 
Q 17.1875 0 13.234375 3.875 
Q 9.28125 7.765625 9.28125 18.015625 
L 9.28125 47.703125 
L 2.6875 47.703125 
L 2.6875 54.6875 
L 9.28125 54.6875 
L 9.28125 70.21875 
z
" id="DejaVuSans-74"/>
      <path d="M 9.421875 54.6875 
L 18.40625 54.6875 
L 18.40625 0 
L 9.421875 0 
z
M 9.421875 75.984375 
L 18.40625 75.984375 
L 18.40625 64.59375 
L 9.421875 64.59375 
z
" id="DejaVuSans-69"/>
      <path d="M 37.109375 75.984375 
L 37.109375 68.5 
L 28.515625 68.5 
Q 23.6875 68.5 21.796875 66.546875 
Q 19.921875 64.59375 19.921875 59.515625 
L 19.921875 54.6875 
L 34.71875 54.6875 
L 34.71875 47.703125 
L 19.921875 47.703125 
L 19.921875 0 
L 10.890625 0 
L 10.890625 47.703125 
L 2.296875 47.703125 
L 2.296875 54.6875 
L 10.890625 54.6875 
L 10.890625 58.5 
Q 10.890625 67.625 15.140625 71.796875 
Q 19.390625 75.984375 28.609375 75.984375 
z
" id="DejaVuSans-66"/>
      <path d="M 56.203125 29.59375 
L 56.203125 25.203125 
L 14.890625 25.203125 
Q 15.484375 15.921875 20.484375 11.0625 
Q 25.484375 6.203125 34.421875 6.203125 
Q 39.59375 6.203125 44.453125 7.46875 
Q 49.3125 8.734375 54.109375 11.28125 
L 54.109375 2.78125 
Q 49.265625 0.734375 44.1875 -0.34375 
Q 39.109375 -1.421875 33.890625 -1.421875 
Q 20.796875 -1.421875 13.15625 6.1875 
Q 5.515625 13.8125 5.515625 26.8125 
Q 5.515625 40.234375 12.765625 48.109375 
Q 20.015625 56 32.328125 56 
Q 43.359375 56 49.78125 48.890625 
Q 56.203125 41.796875 56.203125 29.59375 
z
M 47.21875 32.234375 
Q 47.125 39.59375 43.09375 43.984375 
Q 39.0625 48.390625 32.421875 48.390625 
Q 24.90625 48.390625 20.390625 44.140625 
Q 15.875 39.890625 15.1875 32.171875 
z
" id="DejaVuSans-65"/>
      <path d="M 48.78125 52.59375 
L 48.78125 44.1875 
Q 44.96875 46.296875 41.140625 47.34375 
Q 37.3125 48.390625 33.40625 48.390625 
Q 24.65625 48.390625 19.8125 42.84375 
Q 14.984375 37.3125 14.984375 27.296875 
Q 14.984375 17.28125 19.8125 11.734375 
Q 24.65625 6.203125 33.40625 6.203125 
Q 37.3125 6.203125 41.140625 7.25 
Q 44.96875 8.296875 48.78125 10.40625 
L 48.78125 2.09375 
Q 45.015625 0.34375 40.984375 -0.53125 
Q 36.96875 -1.421875 32.421875 -1.421875 
Q 20.0625 -1.421875 12.78125 6.34375 
Q 5.515625 14.109375 5.515625 27.296875 
Q 5.515625 40.671875 12.859375 48.328125 
Q 20.21875 56 33.015625 56 
Q 37.15625 56 41.109375 55.140625 
Q 45.0625 54.296875 48.78125 52.59375 
z
" id="DejaVuSans-63"/>
      <path d="M 2.984375 54.6875 
L 12.5 54.6875 
L 29.59375 8.796875 
L 46.6875 54.6875 
L 56.203125 54.6875 
L 35.6875 0 
L 23.484375 0 
z
" id="DejaVuSans-76"/>
     </defs>
     <g transform="translate(307.049688 135.044938)scale(0.1 -0.1)">
      <use xlink:href="#DejaVuSans-61"/>
      <use x="61.279297" xlink:href="#DejaVuSans-6e"/>
      <use x="124.658203" xlink:href="#DejaVuSans-74"/>
      <use x="163.867188" xlink:href="#DejaVuSans-69"/>
      <use x="191.650391" xlink:href="#DejaVuSans-69"/>
      <use x="219.433594" xlink:href="#DejaVuSans-6e"/>
      <use x="282.8125" xlink:href="#DejaVuSans-66"/>
      <use x="318.017578" xlink:href="#DejaVuSans-65"/>
      <use x="379.541016" xlink:href="#DejaVuSans-63"/>
      <use x="434.521484" xlink:href="#DejaVuSans-74"/>
      <use x="473.730469" xlink:href="#DejaVuSans-69"/>
      <use x="501.513672" xlink:href="#DejaVuSans-76"/>
      <use x="560.693359" xlink:href="#DejaVuSans-65"/>
     </g>
    </g>
    <g id="line2d_27">
     <path d="M 279.049688 146.223063 
L 299.049688 146.223063 
" style="fill:none;stroke:#ff7f0e;stroke-linecap:square;stroke-width:1.5;"/>
    </g>
    <g id="line2d_28"/>
    <g id="text_14">
     <!-- antiinflammatory -->
     <defs>
      <path d="M 9.421875 75.984375 
L 18.40625 75.984375 
L 18.40625 0 
L 9.421875 0 
z
" id="DejaVuSans-6c"/>
      <path d="M 52 44.1875 
Q 55.375 50.25 60.0625 53.125 
Q 64.75 56 71.09375 56 
Q 79.640625 56 84.28125 50.015625 
Q 88.921875 44.046875 88.921875 33.015625 
L 88.921875 0 
L 79.890625 0 
L 79.890625 32.71875 
Q 79.890625 40.578125 77.09375 44.375 
Q 74.3125 48.1875 68.609375 48.1875 
Q 61.625 48.1875 57.5625 43.546875 
Q 53.515625 38.921875 53.515625 30.90625 
L 53.515625 0 
L 44.484375 0 
L 44.484375 32.71875 
Q 44.484375 40.625 41.703125 44.40625 
Q 38.921875 48.1875 33.109375 48.1875 
Q 26.21875 48.1875 22.15625 43.53125 
Q 18.109375 38.875 18.109375 30.90625 
L 18.109375 0 
L 9.078125 0 
L 9.078125 54.6875 
L 18.109375 54.6875 
L 18.109375 46.1875 
Q 21.1875 51.21875 25.484375 53.609375 
Q 29.78125 56 35.6875 56 
Q 41.65625 56 45.828125 52.96875 
Q 50 49.953125 52 44.1875 
z
" id="DejaVuSans-6d"/>
      <path d="M 30.609375 48.390625 
Q 23.390625 48.390625 19.1875 42.75 
Q 14.984375 37.109375 14.984375 27.296875 
Q 14.984375 17.484375 19.15625 11.84375 
Q 23.34375 6.203125 30.609375 6.203125 
Q 37.796875 6.203125 41.984375 11.859375 
Q 46.1875 17.53125 46.1875 27.296875 
Q 46.1875 37.015625 41.984375 42.703125 
Q 37.796875 48.390625 30.609375 48.390625 
z
M 30.609375 56 
Q 42.328125 56 49.015625 48.375 
Q 55.71875 40.765625 55.71875 27.296875 
Q 55.71875 13.875 49.015625 6.21875 
Q 42.328125 -1.421875 30.609375 -1.421875 
Q 18.84375 -1.421875 12.171875 6.21875 
Q 5.515625 13.875 5.515625 27.296875 
Q 5.515625 40.765625 12.171875 48.375 
Q 18.84375 56 30.609375 56 
z
" id="DejaVuSans-6f"/>
      <path d="M 41.109375 46.296875 
Q 39.59375 47.171875 37.8125 47.578125 
Q 36.03125 48 33.890625 48 
Q 26.265625 48 22.1875 43.046875 
Q 18.109375 38.09375 18.109375 28.8125 
L 18.109375 0 
L 9.078125 0 
L 9.078125 54.6875 
L 18.109375 54.6875 
L 18.109375 46.1875 
Q 20.953125 51.171875 25.484375 53.578125 
Q 30.03125 56 36.53125 56 
Q 37.453125 56 38.578125 55.875 
Q 39.703125 55.765625 41.0625 55.515625 
z
" id="DejaVuSans-72"/>
      <path d="M 32.171875 -5.078125 
Q 28.375 -14.84375 24.75 -17.8125 
Q 21.140625 -20.796875 15.09375 -20.796875 
L 7.90625 -20.796875 
L 7.90625 -13.28125 
L 13.1875 -13.28125 
Q 16.890625 -13.28125 18.9375 -11.515625 
Q 21 -9.765625 23.484375 -3.21875 
L 25.09375 0.875 
L 2.984375 54.6875 
L 12.5 54.6875 
L 29.59375 11.921875 
L 46.6875 54.6875 
L 56.203125 54.6875 
z
" id="DejaVuSans-79"/>
     </defs>
     <g transform="translate(307.049688 149.723063)scale(0.1 -0.1)">
      <use xlink:href="#DejaVuSans-61"/>
      <use x="61.279297" xlink:href="#DejaVuSans-6e"/>
      <use x="124.658203" xlink:href="#DejaVuSans-74"/>
      <use x="163.867188" xlink:href="#DejaVuSans-69"/>
      <use x="191.650391" xlink:href="#DejaVuSans-69"/>
      <use x="219.433594" xlink:href="#DejaVuSans-6e"/>
      <use x="282.8125" xlink:href="#DejaVuSans-66"/>
      <use x="318.017578" xlink:href="#DejaVuSans-6c"/>
      <use x="345.800781" xlink:href="#DejaVuSans-61"/>
      <use x="407.080078" xlink:href="#DejaVuSans-6d"/>
      <use x="504.492188" xlink:href="#DejaVuSans-6d"/>
      <use x="601.904297" xlink:href="#DejaVuSans-61"/>
      <use x="663.183594" xlink:href="#DejaVuSans-74"/>
      <use x="702.392578" xlink:href="#DejaVuSans-6f"/>
      <use x="763.574219" xlink:href="#DejaVuSans-72"/>
      <use x="804.6875" xlink:href="#DejaVuSans-79"/>
     </g>
    </g>
    <g id="line2d_29">
     <path d="M 279.049688 160.901188 
L 299.049688 160.901188 
" style="fill:none;stroke:#2ca02c;stroke-linecap:square;stroke-width:1.5;"/>
    </g>
    <g id="line2d_30"/>
    <g id="text_15">
     <!-- antineoplastic -->
     <defs>
      <path d="M 18.109375 8.203125 
L 18.109375 -20.796875 
L 9.078125 -20.796875 
L 9.078125 54.6875 
L 18.109375 54.6875 
L 18.109375 46.390625 
Q 20.953125 51.265625 25.265625 53.625 
Q 29.59375 56 35.59375 56 
Q 45.5625 56 51.78125 48.09375 
Q 58.015625 40.1875 58.015625 27.296875 
Q 58.015625 14.40625 51.78125 6.484375 
Q 45.5625 -1.421875 35.59375 -1.421875 
Q 29.59375 -1.421875 25.265625 0.953125 
Q 20.953125 3.328125 18.109375 8.203125 
z
M 48.6875 27.296875 
Q 48.6875 37.203125 44.609375 42.84375 
Q 40.53125 48.484375 33.40625 48.484375 
Q 26.265625 48.484375 22.1875 42.84375 
Q 18.109375 37.203125 18.109375 27.296875 
Q 18.109375 17.390625 22.1875 11.75 
Q 26.265625 6.109375 33.40625 6.109375 
Q 40.53125 6.109375 44.609375 11.75 
Q 48.6875 17.390625 48.6875 27.296875 
z
" id="DejaVuSans-70"/>
      <path d="M 44.28125 53.078125 
L 44.28125 44.578125 
Q 40.484375 46.53125 36.375 47.5 
Q 32.28125 48.484375 27.875 48.484375 
Q 21.1875 48.484375 17.84375 46.4375 
Q 14.5 44.390625 14.5 40.28125 
Q 14.5 37.15625 16.890625 35.375 
Q 19.28125 33.59375 26.515625 31.984375 
L 29.59375 31.296875 
Q 39.15625 29.25 43.1875 25.515625 
Q 47.21875 21.78125 47.21875 15.09375 
Q 47.21875 7.46875 41.1875 3.015625 
Q 35.15625 -1.421875 24.609375 -1.421875 
Q 20.21875 -1.421875 15.453125 -0.5625 
Q 10.6875 0.296875 5.421875 2 
L 5.421875 11.28125 
Q 10.40625 8.6875 15.234375 7.390625 
Q 20.0625 6.109375 24.8125 6.109375 
Q 31.15625 6.109375 34.5625 8.28125 
Q 37.984375 10.453125 37.984375 14.40625 
Q 37.984375 18.0625 35.515625 20.015625 
Q 33.0625 21.96875 24.703125 23.78125 
L 21.578125 24.515625 
Q 13.234375 26.265625 9.515625 29.90625 
Q 5.8125 33.546875 5.8125 39.890625 
Q 5.8125 47.609375 11.28125 51.796875 
Q 16.75 56 26.8125 56 
Q 31.78125 56 36.171875 55.265625 
Q 40.578125 54.546875 44.28125 53.078125 
z
" id="DejaVuSans-73"/>
     </defs>
     <g transform="translate(307.049688 164.401188)scale(0.1 -0.1)">
      <use xlink:href="#DejaVuSans-61"/>
      <use x="61.279297" xlink:href="#DejaVuSans-6e"/>
      <use x="124.658203" xlink:href="#DejaVuSans-74"/>
      <use x="163.867188" xlink:href="#DejaVuSans-69"/>
      <use x="191.650391" xlink:href="#DejaVuSans-6e"/>
      <use x="255.029297" xlink:href="#DejaVuSans-65"/>
      <use x="316.552734" xlink:href="#DejaVuSans-6f"/>
      <use x="377.734375" xlink:href="#DejaVuSans-70"/>
      <use x="441.210938" xlink:href="#DejaVuSans-6c"/>
      <use x="468.994141" xlink:href="#DejaVuSans-61"/>
      <use x="530.273438" xlink:href="#DejaVuSans-73"/>
      <use x="582.373047" xlink:href="#DejaVuSans-74"/>
      <use x="621.582031" xlink:href="#DejaVuSans-69"/>
      <use x="649.365234" xlink:href="#DejaVuSans-63"/>
     </g>
    </g>
    <g id="line2d_31">
     <path d="M 279.049688 175.579313 
L 299.049688 175.579313 
" style="fill:none;stroke:#d62728;stroke-linecap:square;stroke-width:1.5;"/>
    </g>
    <g id="line2d_32"/>
    <g id="text_16">
     <!-- cardio -->
     <defs>
      <path d="M 45.40625 46.390625 
L 45.40625 75.984375 
L 54.390625 75.984375 
L 54.390625 0 
L 45.40625 0 
L 45.40625 8.203125 
Q 42.578125 3.328125 38.25 0.953125 
Q 33.9375 -1.421875 27.875 -1.421875 
Q 17.96875 -1.421875 11.734375 6.484375 
Q 5.515625 14.40625 5.515625 27.296875 
Q 5.515625 40.1875 11.734375 48.09375 
Q 17.96875 56 27.875 56 
Q 33.9375 56 38.25 53.625 
Q 42.578125 51.265625 45.40625 46.390625 
z
M 14.796875 27.296875 
Q 14.796875 17.390625 18.875 11.75 
Q 22.953125 6.109375 30.078125 6.109375 
Q 37.203125 6.109375 41.296875 11.75 
Q 45.40625 17.390625 45.40625 27.296875 
Q 45.40625 37.203125 41.296875 42.84375 
Q 37.203125 48.484375 30.078125 48.484375 
Q 22.953125 48.484375 18.875 42.84375 
Q 14.796875 37.203125 14.796875 27.296875 
z
" id="DejaVuSans-64"/>
     </defs>
     <g transform="translate(307.049688 179.079313)scale(0.1 -0.1)">
      <use xlink:href="#DejaVuSans-63"/>
      <use x="54.980469" xlink:href="#DejaVuSans-61"/>
      <use x="116.259766" xlink:href="#DejaVuSans-72"/>
      <use x="157.357422" xlink:href="#DejaVuSans-64"/>
      <use x="220.833984" xlink:href="#DejaVuSans-69"/>
      <use x="248.617188" xlink:href="#DejaVuSans-6f"/>
     </g>
    </g>
    <g id="line2d_33">
     <path d="M 279.049688 190.257438 
L 299.049688 190.257438 
" style="fill:none;stroke:#9467bd;stroke-linecap:square;stroke-width:1.5;"/>
    </g>
    <g id="line2d_34"/>
    <g id="text_17">
     <!-- cns -->
     <g transform="translate(307.049688 193.757438)scale(0.1 -0.1)">
      <use xlink:href="#DejaVuSans-63"/>
      <use x="54.980469" xlink:href="#DejaVuSans-6e"/>
      <use x="118.359375" xlink:href="#DejaVuSans-73"/>
     </g>
    </g>
    <g id="line2d_35">
     <path d="M 279.049688 204.935563 
L 299.049688 204.935563 
" style="fill:none;stroke:#8c564b;stroke-linecap:square;stroke-width:1.5;"/>
    </g>
    <g id="line2d_36"/>
    <g id="text_18">
     <!-- dermatologic -->
     <defs>
      <path d="M 45.40625 27.984375 
Q 45.40625 37.75 41.375 43.109375 
Q 37.359375 48.484375 30.078125 48.484375 
Q 22.859375 48.484375 18.828125 43.109375 
Q 14.796875 37.75 14.796875 27.984375 
Q 14.796875 18.265625 18.828125 12.890625 
Q 22.859375 7.515625 30.078125 7.515625 
Q 37.359375 7.515625 41.375 12.890625 
Q 45.40625 18.265625 45.40625 27.984375 
z
M 54.390625 6.78125 
Q 54.390625 -7.171875 48.1875 -13.984375 
Q 42 -20.796875 29.203125 -20.796875 
Q 24.46875 -20.796875 20.265625 -20.09375 
Q 16.0625 -19.390625 12.109375 -17.921875 
L 12.109375 -9.1875 
Q 16.0625 -11.328125 19.921875 -12.34375 
Q 23.78125 -13.375 27.78125 -13.375 
Q 36.625 -13.375 41.015625 -8.765625 
Q 45.40625 -4.15625 45.40625 5.171875 
L 45.40625 9.625 
Q 42.625 4.78125 38.28125 2.390625 
Q 33.9375 0 27.875 0 
Q 17.828125 0 11.671875 7.65625 
Q 5.515625 15.328125 5.515625 27.984375 
Q 5.515625 40.671875 11.671875 48.328125 
Q 17.828125 56 27.875 56 
Q 33.9375 56 38.28125 53.609375 
Q 42.625 51.21875 45.40625 46.390625 
L 45.40625 54.6875 
L 54.390625 54.6875 
z
" id="DejaVuSans-67"/>
     </defs>
     <g transform="translate(307.049688 208.435563)scale(0.1 -0.1)">
      <use xlink:href="#DejaVuSans-64"/>
      <use x="63.476562" xlink:href="#DejaVuSans-65"/>
      <use x="125" xlink:href="#DejaVuSans-72"/>
      <use x="166.097656" xlink:href="#DejaVuSans-6d"/>
      <use x="263.509766" xlink:href="#DejaVuSans-61"/>
      <use x="324.789062" xlink:href="#DejaVuSans-74"/>
      <use x="363.998047" xlink:href="#DejaVuSans-6f"/>
      <use x="425.179688" xlink:href="#DejaVuSans-6c"/>
      <use x="452.962891" xlink:href="#DejaVuSans-6f"/>
      <use x="514.144531" xlink:href="#DejaVuSans-67"/>
      <use x="577.621094" xlink:href="#DejaVuSans-69"/>
      <use x="605.404297" xlink:href="#DejaVuSans-63"/>
     </g>
    </g>
    <g id="line2d_37">
     <path d="M 279.049688 219.613688 
L 299.049688 219.613688 
" style="fill:none;stroke:#e377c2;stroke-linecap:square;stroke-width:1.5;"/>
    </g>
    <g id="line2d_38"/>
    <g id="text_19">
     <!-- gastrointestinal -->
     <g transform="translate(307.049688 223.113688)scale(0.1 -0.1)">
      <use xlink:href="#DejaVuSans-67"/>
      <use x="63.476562" xlink:href="#DejaVuSans-61"/>
      <use x="124.755859" xlink:href="#DejaVuSans-73"/>
      <use x="176.855469" xlink:href="#DejaVuSans-74"/>
      <use x="216.064453" xlink:href="#DejaVuSans-72"/>
      <use x="257.146484" xlink:href="#DejaVuSans-6f"/>
      <use x="318.328125" xlink:href="#DejaVuSans-69"/>
      <use x="346.111328" xlink:href="#DejaVuSans-6e"/>
      <use x="409.490234" xlink:href="#DejaVuSans-74"/>
      <use x="448.699219" xlink:href="#DejaVuSans-65"/>
      <use x="510.222656" xlink:href="#DejaVuSans-73"/>
      <use x="562.322266" xlink:href="#DejaVuSans-74"/>
      <use x="601.53125" xlink:href="#DejaVuSans-69"/>
      <use x="629.314453" xlink:href="#DejaVuSans-6e"/>
      <use x="692.693359" xlink:href="#DejaVuSans-61"/>
      <use x="753.972656" xlink:href="#DejaVuSans-6c"/>
     </g>
    </g>
    <g id="line2d_39">
     <path d="M 279.049688 234.291812 
L 299.049688 234.291812 
" style="fill:none;stroke:#7f7f7f;stroke-linecap:square;stroke-width:1.5;"/>
    </g>
    <g id="line2d_40"/>
    <g id="text_20">
     <!-- hematologic -->
     <defs>
      <path d="M 54.890625 33.015625 
L 54.890625 0 
L 45.90625 0 
L 45.90625 32.71875 
Q 45.90625 40.484375 42.875 44.328125 
Q 39.84375 48.1875 33.796875 48.1875 
Q 26.515625 48.1875 22.3125 43.546875 
Q 18.109375 38.921875 18.109375 30.90625 
L 18.109375 0 
L 9.078125 0 
L 9.078125 75.984375 
L 18.109375 75.984375 
L 18.109375 46.1875 
Q 21.34375 51.125 25.703125 53.5625 
Q 30.078125 56 35.796875 56 
Q 45.21875 56 50.046875 50.171875 
Q 54.890625 44.34375 54.890625 33.015625 
z
" id="DejaVuSans-68"/>
     </defs>
     <g transform="translate(307.049688 237.791812)scale(0.1 -0.1)">
      <use xlink:href="#DejaVuSans-68"/>
      <use x="63.378906" xlink:href="#DejaVuSans-65"/>
      <use x="124.902344" xlink:href="#DejaVuSans-6d"/>
      <use x="222.314453" xlink:href="#DejaVuSans-61"/>
      <use x="283.59375" xlink:href="#DejaVuSans-74"/>
      <use x="322.802734" xlink:href="#DejaVuSans-6f"/>
      <use x="383.984375" xlink:href="#DejaVuSans-6c"/>
      <use x="411.767578" xlink:href="#DejaVuSans-6f"/>
      <use x="472.949219" xlink:href="#DejaVuSans-67"/>
      <use x="536.425781" xlink:href="#DejaVuSans-69"/>
      <use x="564.208984" xlink:href="#DejaVuSans-63"/>
     </g>
    </g>
    <g id="line2d_41">
     <path d="M 279.049688 248.969938 
L 299.049688 248.969938 
" style="fill:none;stroke:#bcbd22;stroke-linecap:square;stroke-width:1.5;"/>
    </g>
    <g id="line2d_42"/>
    <g id="text_21">
     <!-- lipidregulating -->
     <defs>
      <path d="M 8.5 21.578125 
L 8.5 54.6875 
L 17.484375 54.6875 
L 17.484375 21.921875 
Q 17.484375 14.15625 20.5 10.265625 
Q 23.53125 6.390625 29.59375 6.390625 
Q 36.859375 6.390625 41.078125 11.03125 
Q 45.3125 15.671875 45.3125 23.6875 
L 45.3125 54.6875 
L 54.296875 54.6875 
L 54.296875 0 
L 45.3125 0 
L 45.3125 8.40625 
Q 42.046875 3.421875 37.71875 1 
Q 33.40625 -1.421875 27.6875 -1.421875 
Q 18.265625 -1.421875 13.375 4.4375 
Q 8.5 10.296875 8.5 21.578125 
z
M 31.109375 56 
z
" id="DejaVuSans-75"/>
     </defs>
     <g transform="translate(307.049688 252.469938)scale(0.1 -0.1)">
      <use xlink:href="#DejaVuSans-6c"/>
      <use x="27.783203" xlink:href="#DejaVuSans-69"/>
      <use x="55.566406" xlink:href="#DejaVuSans-70"/>
      <use x="119.042969" xlink:href="#DejaVuSans-69"/>
      <use x="146.826172" xlink:href="#DejaVuSans-64"/>
      <use x="210.302734" xlink:href="#DejaVuSans-72"/>
      <use x="251.384766" xlink:href="#DejaVuSans-65"/>
      <use x="312.908203" xlink:href="#DejaVuSans-67"/>
      <use x="376.384766" xlink:href="#DejaVuSans-75"/>
      <use x="439.763672" xlink:href="#DejaVuSans-6c"/>
      <use x="467.546875" xlink:href="#DejaVuSans-61"/>
      <use x="528.826172" xlink:href="#DejaVuSans-74"/>
      <use x="568.035156" xlink:href="#DejaVuSans-69"/>
      <use x="595.818359" xlink:href="#DejaVuSans-6e"/>
      <use x="659.197266" xlink:href="#DejaVuSans-67"/>
     </g>
    </g>
    <g id="line2d_43">
     <path d="M 279.049688 263.648062 
L 299.049688 263.648062 
" style="fill:none;stroke:#17becf;stroke-linecap:square;stroke-width:1.5;"/>
    </g>
    <g id="line2d_44"/>
    <g id="text_22">
     <!-- reproductivecontrol -->
     <g transform="translate(307.049688 267.148062)scale(0.1 -0.1)">
      <use xlink:href="#DejaVuSans-72"/>
      <use x="41.082031" xlink:href="#DejaVuSans-65"/>
      <use x="102.605469" xlink:href="#DejaVuSans-70"/>
      <use x="166.082031" xlink:href="#DejaVuSans-72"/>
      <use x="207.164062" xlink:href="#DejaVuSans-6f"/>
      <use x="268.345703" xlink:href="#DejaVuSans-64"/>
      <use x="331.822266" xlink:href="#DejaVuSans-75"/>
      <use x="395.201172" xlink:href="#DejaVuSans-63"/>
      <use x="450.181641" xlink:href="#DejaVuSans-74"/>
      <use x="489.390625" xlink:href="#DejaVuSans-69"/>
      <use x="517.173828" xlink:href="#DejaVuSans-76"/>
      <use x="576.353516" xlink:href="#DejaVuSans-65"/>
      <use x="637.876953" xlink:href="#DejaVuSans-63"/>
      <use x="692.857422" xlink:href="#DejaVuSans-6f"/>
      <use x="754.039062" xlink:href="#DejaVuSans-6e"/>
      <use x="817.417969" xlink:href="#DejaVuSans-74"/>
      <use x="856.626953" xlink:href="#DejaVuSans-72"/>
      <use x="897.708984" xlink:href="#DejaVuSans-6f"/>
      <use x="958.890625" xlink:href="#DejaVuSans-6c"/>
     </g>
    </g>
    <g id="line2d_45">
     <path d="M 279.049688 278.326187 
L 299.049688 278.326187 
" style="fill:none;stroke:#1f77b4;stroke-linecap:square;stroke-width:1.5;"/>
    </g>
    <g id="line2d_46"/>
    <g id="text_23">
     <!-- respiratorysystem -->
     <g transform="translate(307.049688 281.826187)scale(0.1 -0.1)">
      <use xlink:href="#DejaVuSans-72"/>
      <use x="41.082031" xlink:href="#DejaVuSans-65"/>
      <use x="102.605469" xlink:href="#DejaVuSans-73"/>
      <use x="154.705078" xlink:href="#DejaVuSans-70"/>
      <use x="218.181641" xlink:href="#DejaVuSans-69"/>
      <use x="245.964844" xlink:href="#DejaVuSans-72"/>
      <use x="287.078125" xlink:href="#DejaVuSans-61"/>
      <use x="348.357422" xlink:href="#DejaVuSans-74"/>
      <use x="387.566406" xlink:href="#DejaVuSans-6f"/>
      <use x="448.748047" xlink:href="#DejaVuSans-72"/>
      <use x="489.861328" xlink:href="#DejaVuSans-79"/>
      <use x="549.041016" xlink:href="#DejaVuSans-73"/>
      <use x="601.140625" xlink:href="#DejaVuSans-79"/>
      <use x="660.320312" xlink:href="#DejaVuSans-73"/>
      <use x="712.419922" xlink:href="#DejaVuSans-74"/>
      <use x="751.628906" xlink:href="#DejaVuSans-65"/>
      <use x="813.152344" xlink:href="#DejaVuSans-6d"/>
     </g>
    </g>
    <g id="line2d_47">
     <path d="M 279.049688 293.004312 
L 299.049688 293.004312 
" style="fill:none;stroke:#ff7f0e;stroke-linecap:square;stroke-width:1.5;"/>
    </g>
    <g id="line2d_48"/>
    <g id="text_24">
     <!-- urological -->
     <g transform="translate(307.049688 296.504312)scale(0.1 -0.1)">
      <use xlink:href="#DejaVuSans-75"/>
      <use x="63.378906" xlink:href="#DejaVuSans-72"/>
      <use x="104.460938" xlink:href="#DejaVuSans-6f"/>
      <use x="165.642578" xlink:href="#DejaVuSans-6c"/>
      <use x="193.425781" xlink:href="#DejaVuSans-6f"/>
      <use x="254.607422" xlink:href="#DejaVuSans-67"/>
      <use x="318.083984" xlink:href="#DejaVuSans-69"/>
      <use x="345.867188" xlink:href="#DejaVuSans-63"/>
      <use x="400.847656" xlink:href="#DejaVuSans-61"/>
      <use x="462.126953" xlink:href="#DejaVuSans-6c"/>
     </g>
    </g>
   </g>
  </g>
 </g>
 <defs>
  <clipPath id="pad13186cb6">
   <rect height="266.112" width="357.12" x="57.6" y="41.472"/>
  </clipPath>
 </defs>
</svg>
