<?xml version="1.0" encoding="utf-8" standalone="no"?>
<!DOCTYPE svg PUBLIC "-//W3C//DTD SVG 1.1//EN"
  "http://www.w3.org/Graphics/SVG/1.1/DTD/svg11.dtd">
<!-- Created with matplotlib (http://matplotlib.org/) -->
<svg height="345pt" version="1.1" viewBox="0 0 460 345" width="460pt" xmlns="http://www.w3.org/2000/svg" xmlns:xlink="http://www.w3.org/1999/xlink">
 <defs>
  <style type="text/css">
*{stroke-linecap:butt;stroke-linejoin:round;}
  </style>
 </defs>
 <g id="figure_1">
  <g id="patch_1">
   <path d="M 0 345.6 
L 460.8 345.6 
L 460.8 0 
L 0 0 
z
" style="fill:#ffffff;"/>
  </g>
  <g id="axes_1">
   <g id="patch_2">
    <path d="M 57.6 307.584 
L 414.72 307.584 
L 414.72 41.472 
L 57.6 41.472 
z
" style="fill:#ffffff;"/>
   </g>
   <g id="matplotlib.axis_1">
    <g id="xtick_1">
     <g id="line2d_1">
      <defs>
       <path d="M 0 0 
L 0 3.5 
" id="mf35f7efeb5" style="stroke:#000000;stroke-width:0.8;"/>
      </defs>
      <g>
       <use style="stroke:#000000;stroke-width:0.8;" x="73.832727" xlink:href="#mf35f7efeb5" y="307.584"/>
      </g>
     </g>
     <g id="text_1">
      <!-- 0.0 -->
      <defs>
       <path d="M 31.78125 66.40625 
Q 24.171875 66.40625 20.328125 58.90625 
Q 16.5 51.421875 16.5 36.375 
Q 16.5 21.390625 20.328125 13.890625 
Q 24.171875 6.390625 31.78125 6.390625 
Q 39.453125 6.390625 43.28125 13.890625 
Q 47.125 21.390625 47.125 36.375 
Q 47.125 51.421875 43.28125 58.90625 
Q 39.453125 66.40625 31.78125 66.40625 
z
M 31.78125 74.21875 
Q 44.046875 74.21875 50.515625 64.515625 
Q 56.984375 54.828125 56.984375 36.375 
Q 56.984375 17.96875 50.515625 8.265625 
Q 44.046875 -1.421875 31.78125 -1.421875 
Q 19.53125 -1.421875 13.0625 8.265625 
Q 6.59375 17.96875 6.59375 36.375 
Q 6.59375 54.828125 13.0625 64.515625 
Q 19.53125 74.21875 31.78125 74.21875 
z
" id="DejaVuSans-30"/>
       <path d="M 10.6875 12.40625 
L 21 12.40625 
L 21 0 
L 10.6875 0 
z
" id="DejaVuSans-2e"/>
      </defs>
      <g transform="translate(65.881165 322.182437)scale(0.1 -0.1)">
       <use xlink:href="#DejaVuSans-30"/>
       <use x="63.623047" xlink:href="#DejaVuSans-2e"/>
       <use x="95.410156" xlink:href="#DejaVuSans-30"/>
      </g>
     </g>
    </g>
    <g id="xtick_2">
     <g id="line2d_2">
      <g>
       <use style="stroke:#000000;stroke-width:0.8;" x="138.763636" xlink:href="#mf35f7efeb5" y="307.584"/>
      </g>
     </g>
     <g id="text_2">
      <!-- 0.2 -->
      <defs>
       <path d="M 19.1875 8.296875 
L 53.609375 8.296875 
L 53.609375 0 
L 7.328125 0 
L 7.328125 8.296875 
Q 12.9375 14.109375 22.625 23.890625 
Q 32.328125 33.6875 34.8125 36.53125 
Q 39.546875 41.84375 41.421875 45.53125 
Q 43.3125 49.21875 43.3125 52.78125 
Q 43.3125 58.59375 39.234375 62.25 
Q 35.15625 65.921875 28.609375 65.921875 
Q 23.96875 65.921875 18.8125 64.3125 
Q 13.671875 62.703125 7.8125 59.421875 
L 7.8125 69.390625 
Q 13.765625 71.78125 18.9375 73 
Q 24.125 74.21875 28.421875 74.21875 
Q 39.75 74.21875 46.484375 68.546875 
Q 53.21875 62.890625 53.21875 53.421875 
Q 53.21875 48.921875 51.53125 44.890625 
Q 49.859375 40.875 45.40625 35.40625 
Q 44.1875 33.984375 37.640625 27.21875 
Q 31.109375 20.453125 19.1875 8.296875 
z
" id="DejaVuSans-32"/>
      </defs>
      <g transform="translate(130.812074 322.182437)scale(0.1 -0.1)">
       <use xlink:href="#DejaVuSans-30"/>
       <use x="63.623047" xlink:href="#DejaVuSans-2e"/>
       <use x="95.410156" xlink:href="#DejaVuSans-32"/>
      </g>
     </g>
    </g>
    <g id="xtick_3">
     <g id="line2d_3">
      <g>
       <use style="stroke:#000000;stroke-width:0.8;" x="203.694545" xlink:href="#mf35f7efeb5" y="307.584"/>
      </g>
     </g>
     <g id="text_3">
      <!-- 0.4 -->
      <defs>
       <path d="M 37.796875 64.3125 
L 12.890625 25.390625 
L 37.796875 25.390625 
z
M 35.203125 72.90625 
L 47.609375 72.90625 
L 47.609375 25.390625 
L 58.015625 25.390625 
L 58.015625 17.1875 
L 47.609375 17.1875 
L 47.609375 0 
L 37.796875 0 
L 37.796875 17.1875 
L 4.890625 17.1875 
L 4.890625 26.703125 
z
" id="DejaVuSans-34"/>
      </defs>
      <g transform="translate(195.742983 322.182437)scale(0.1 -0.1)">
       <use xlink:href="#DejaVuSans-30"/>
       <use x="63.623047" xlink:href="#DejaVuSans-2e"/>
       <use x="95.410156" xlink:href="#DejaVuSans-34"/>
      </g>
     </g>
    </g>
    <g id="xtick_4">
     <g id="line2d_4">
      <g>
       <use style="stroke:#000000;stroke-width:0.8;" x="268.625455" xlink:href="#mf35f7efeb5" y="307.584"/>
      </g>
     </g>
     <g id="text_4">
      <!-- 0.6 -->
      <defs>
       <path d="M 33.015625 40.375 
Q 26.375 40.375 22.484375 35.828125 
Q 18.609375 31.296875 18.609375 23.390625 
Q 18.609375 15.53125 22.484375 10.953125 
Q 26.375 6.390625 33.015625 6.390625 
Q 39.65625 6.390625 43.53125 10.953125 
Q 47.40625 15.53125 47.40625 23.390625 
Q 47.40625 31.296875 43.53125 35.828125 
Q 39.65625 40.375 33.015625 40.375 
z
M 52.59375 71.296875 
L 52.59375 62.3125 
Q 48.875 64.0625 45.09375 64.984375 
Q 41.3125 65.921875 37.59375 65.921875 
Q 27.828125 65.921875 22.671875 59.328125 
Q 17.53125 52.734375 16.796875 39.40625 
Q 19.671875 43.65625 24.015625 45.921875 
Q 28.375 48.1875 33.59375 48.1875 
Q 44.578125 48.1875 50.953125 41.515625 
Q 57.328125 34.859375 57.328125 23.390625 
Q 57.328125 12.15625 50.6875 5.359375 
Q 44.046875 -1.421875 33.015625 -1.421875 
Q 20.359375 -1.421875 13.671875 8.265625 
Q 6.984375 17.96875 6.984375 36.375 
Q 6.984375 53.65625 15.1875 63.9375 
Q 23.390625 74.21875 37.203125 74.21875 
Q 40.921875 74.21875 44.703125 73.484375 
Q 48.484375 72.75 52.59375 71.296875 
z
" id="DejaVuSans-36"/>
      </defs>
      <g transform="translate(260.673892 322.182437)scale(0.1 -0.1)">
       <use xlink:href="#DejaVuSans-30"/>
       <use x="63.623047" xlink:href="#DejaVuSans-2e"/>
       <use x="95.410156" xlink:href="#DejaVuSans-36"/>
      </g>
     </g>
    </g>
    <g id="xtick_5">
     <g id="line2d_5">
      <g>
       <use style="stroke:#000000;stroke-width:0.8;" x="333.556364" xlink:href="#mf35f7efeb5" y="307.584"/>
      </g>
     </g>
     <g id="text_5">
      <!-- 0.8 -->
      <defs>
       <path d="M 31.78125 34.625 
Q 24.75 34.625 20.71875 30.859375 
Q 16.703125 27.09375 16.703125 20.515625 
Q 16.703125 13.921875 20.71875 10.15625 
Q 24.75 6.390625 31.78125 6.390625 
Q 38.8125 6.390625 42.859375 10.171875 
Q 46.921875 13.96875 46.921875 20.515625 
Q 46.921875 27.09375 42.890625 30.859375 
Q 38.875 34.625 31.78125 34.625 
z
M 21.921875 38.8125 
Q 15.578125 40.375 12.03125 44.71875 
Q 8.5 49.078125 8.5 55.328125 
Q 8.5 64.0625 14.71875 69.140625 
Q 20.953125 74.21875 31.78125 74.21875 
Q 42.671875 74.21875 48.875 69.140625 
Q 55.078125 64.0625 55.078125 55.328125 
Q 55.078125 49.078125 51.53125 44.71875 
Q 48 40.375 41.703125 38.8125 
Q 48.828125 37.15625 52.796875 32.3125 
Q 56.78125 27.484375 56.78125 20.515625 
Q 56.78125 9.90625 50.3125 4.234375 
Q 43.84375 -1.421875 31.78125 -1.421875 
Q 19.734375 -1.421875 13.25 4.234375 
Q 6.78125 9.90625 6.78125 20.515625 
Q 6.78125 27.484375 10.78125 32.3125 
Q 14.796875 37.15625 21.921875 38.8125 
z
M 18.3125 54.390625 
Q 18.3125 48.734375 21.84375 45.5625 
Q 25.390625 42.390625 31.78125 42.390625 
Q 38.140625 42.390625 41.71875 45.5625 
Q 45.3125 48.734375 45.3125 54.390625 
Q 45.3125 60.0625 41.71875 63.234375 
Q 38.140625 66.40625 31.78125 66.40625 
Q 25.390625 66.40625 21.84375 63.234375 
Q 18.3125 60.0625 18.3125 54.390625 
z
" id="DejaVuSans-38"/>
      </defs>
      <g transform="translate(325.604801 322.182437)scale(0.1 -0.1)">
       <use xlink:href="#DejaVuSans-30"/>
       <use x="63.623047" xlink:href="#DejaVuSans-2e"/>
       <use x="95.410156" xlink:href="#DejaVuSans-38"/>
      </g>
     </g>
    </g>
    <g id="xtick_6">
     <g id="line2d_6">
      <g>
       <use style="stroke:#000000;stroke-width:0.8;" x="398.487273" xlink:href="#mf35f7efeb5" y="307.584"/>
      </g>
     </g>
     <g id="text_6">
      <!-- 1.0 -->
      <defs>
       <path d="M 12.40625 8.296875 
L 28.515625 8.296875 
L 28.515625 63.921875 
L 10.984375 60.40625 
L 10.984375 69.390625 
L 28.421875 72.90625 
L 38.28125 72.90625 
L 38.28125 8.296875 
L 54.390625 8.296875 
L 54.390625 0 
L 12.40625 0 
z
" id="DejaVuSans-31"/>
      </defs>
      <g transform="translate(390.53571 322.182437)scale(0.1 -0.1)">
       <use xlink:href="#DejaVuSans-31"/>
       <use x="63.623047" xlink:href="#DejaVuSans-2e"/>
       <use x="95.410156" xlink:href="#DejaVuSans-30"/>
      </g>
     </g>
    </g>
   </g>
   <g id="matplotlib.axis_2">
    <g id="ytick_1">
     <g id="line2d_7">
      <defs>
       <path d="M 0 0 
L -3.5 0 
" id="mc983f7c2bd" style="stroke:#000000;stroke-width:0.8;"/>
      </defs>
      <g>
       <use style="stroke:#000000;stroke-width:0.8;" x="57.6" xlink:href="#mc983f7c2bd" y="296.558442"/>
      </g>
     </g>
     <g id="text_7">
      <!-- 0.0 -->
      <g transform="translate(34.696875 300.357661)scale(0.1 -0.1)">
       <use xlink:href="#DejaVuSans-30"/>
       <use x="63.623047" xlink:href="#DejaVuSans-2e"/>
       <use x="95.410156" xlink:href="#DejaVuSans-30"/>
      </g>
     </g>
    </g>
    <g id="ytick_2">
     <g id="line2d_8">
      <g>
       <use style="stroke:#000000;stroke-width:0.8;" x="57.6" xlink:href="#mc983f7c2bd" y="247.960354"/>
      </g>
     </g>
     <g id="text_8">
      <!-- 0.2 -->
      <g transform="translate(34.696875 251.759573)scale(0.1 -0.1)">
       <use xlink:href="#DejaVuSans-30"/>
       <use x="63.623047" xlink:href="#DejaVuSans-2e"/>
       <use x="95.410156" xlink:href="#DejaVuSans-32"/>
      </g>
     </g>
    </g>
    <g id="ytick_3">
     <g id="line2d_9">
      <g>
       <use style="stroke:#000000;stroke-width:0.8;" x="57.6" xlink:href="#mc983f7c2bd" y="199.362265"/>
      </g>
     </g>
     <g id="text_9">
      <!-- 0.4 -->
      <g transform="translate(34.696875 203.161484)scale(0.1 -0.1)">
       <use xlink:href="#DejaVuSans-30"/>
       <use x="63.623047" xlink:href="#DejaVuSans-2e"/>
       <use x="95.410156" xlink:href="#DejaVuSans-34"/>
      </g>
     </g>
    </g>
    <g id="ytick_4">
     <g id="line2d_10">
      <g>
       <use style="stroke:#000000;stroke-width:0.8;" x="57.6" xlink:href="#mc983f7c2bd" y="150.764177"/>
      </g>
     </g>
     <g id="text_10">
      <!-- 0.6 -->
      <g transform="translate(34.696875 154.563396)scale(0.1 -0.1)">
       <use xlink:href="#DejaVuSans-30"/>
       <use x="63.623047" xlink:href="#DejaVuSans-2e"/>
       <use x="95.410156" xlink:href="#DejaVuSans-36"/>
      </g>
     </g>
    </g>
    <g id="ytick_5">
     <g id="line2d_11">
      <g>
       <use style="stroke:#000000;stroke-width:0.8;" x="57.6" xlink:href="#mc983f7c2bd" y="102.166088"/>
      </g>
     </g>
     <g id="text_11">
      <!-- 0.8 -->
      <g transform="translate(34.696875 105.965307)scale(0.1 -0.1)">
       <use xlink:href="#DejaVuSans-30"/>
       <use x="63.623047" xlink:href="#DejaVuSans-2e"/>
       <use x="95.410156" xlink:href="#DejaVuSans-38"/>
      </g>
     </g>
    </g>
    <g id="ytick_6">
     <g id="line2d_12">
      <g>
       <use style="stroke:#000000;stroke-width:0.8;" x="57.6" xlink:href="#mc983f7c2bd" y="53.568"/>
      </g>
     </g>
     <g id="text_12">
      <!-- 1.0 -->
      <g transform="translate(34.696875 57.367219)scale(0.1 -0.1)">
       <use xlink:href="#DejaVuSans-31"/>
       <use x="63.623047" xlink:href="#DejaVuSans-2e"/>
       <use x="95.410156" xlink:href="#DejaVuSans-30"/>
      </g>
     </g>
    </g>
   </g>
   <g id="line2d_13">
    <path clip-path="url(#p8ee9de9046)" d="M 73.832727 285.184422 
L 73.832727 125.948132 
L 74.187929 125.948132 
L 74.187929 120.778122 
L 74.543131 120.778122 
L 74.543131 106.302096 
L 74.898333 106.302096 
L 74.898333 99.064083 
L 75.608737 99.064083 
L 75.608737 98.030081 
L 76.319141 98.030081 
L 76.319141 96.996079 
L 76.674343 96.996079 
L 76.674343 95.962077 
L 77.739948 95.962077 
L 77.739948 94.928075 
L 78.805554 94.928075 
L 78.805554 92.860072 
L 79.160756 92.860072 
L 79.160756 91.82607 
L 80.226362 91.82607 
L 80.226362 90.792068 
L 81.647169 90.792068 
L 81.647169 89.758066 
L 83.778381 89.758066 
L 83.778381 88.724064 
L 84.133583 88.724064 
L 84.133583 87.690062 
L 84.488785 87.690062 
L 84.488785 86.65606 
L 84.843986 86.65606 
L 84.843986 85.622058 
L 85.199188 85.622058 
L 85.199188 82.520053 
L 85.55439 82.520053 
L 85.55439 81.486051 
L 85.909592 81.486051 
L 85.909592 80.452049 
L 86.975198 80.452049 
L 86.975198 79.418047 
L 88.040804 79.418047 
L 88.040804 78.384045 
L 88.396006 78.384045 
L 88.396006 77.350043 
L 89.106409 77.350043 
L 89.106409 76.316041 
L 89.461611 76.316041 
L 89.461611 75.28204 
L 89.816813 75.28204 
L 89.816813 74.248038 
L 90.527217 74.248038 
L 90.527217 73.214036 
L 93.368832 73.214036 
L 93.368832 72.180034 
L 95.144842 72.180034 
L 95.144842 71.146032 
L 97.986457 71.146032 
L 97.986457 70.11203 
L 99.052063 70.11203 
L 99.052063 69.078028 
L 102.24888 69.078028 
L 102.24888 68.044026 
L 102.604082 68.044026 
L 102.604082 67.010024 
L 103.669688 67.010024 
L 103.669688 65.976023 
L 107.221707 65.976023 
L 107.221707 64.942021 
L 107.932111 64.942021 
L 107.932111 63.908019 
L 110.773726 63.908019 
L 110.773726 61.840015 
L 113.615341 61.840015 
L 113.615341 60.806013 
L 118.94337 60.806013 
L 118.94337 59.772011 
L 128.178619 59.772011 
L 128.178619 58.738009 
L 131.375437 58.738009 
L 131.375437 57.704008 
L 135.282658 57.704008 
L 135.282658 56.670006 
L 145.583513 56.670006 
L 145.583513 55.636004 
L 164.409214 55.636004 
L 164.409214 53.568 
L 398.487273 53.568 
L 398.487273 53.568 
" style="fill:none;stroke:#1f77b4;stroke-linecap:square;stroke-width:1.5;"/>
   </g>
   <g id="line2d_14">
    <path clip-path="url(#p8ee9de9046)" d="M 73.832727 291.793924 
L 73.832727 144.093851 
L 74.719762 144.093851 
L 74.719762 105.977703 
L 76.49383 105.977703 
L 76.49383 101.213185 
L 78.563577 101.213185 
L 78.563577 96.448666 
L 80.041967 96.448666 
L 80.041967 91.684148 
L 82.70307 91.684148 
L 82.70307 86.919629 
L 83.294426 86.919629 
L 83.294426 82.155111 
L 90.3907 82.155111 
L 90.3907 77.390592 
L 103.104858 77.390592 
L 103.104858 72.626074 
L 116.410373 72.626074 
L 116.410373 67.861555 
L 132.37699 67.861555 
L 132.37699 63.097037 
L 137.994873 63.097037 
L 137.994873 58.332518 
L 148.934963 58.332518 
L 148.934963 53.568 
L 398.487273 53.568 
L 398.487273 53.568 
" style="fill:none;stroke:#ff7f0e;stroke-linecap:square;stroke-width:1.5;"/>
   </g>
   <g id="line2d_15">
    <path clip-path="url(#p8ee9de9046)" d="M 73.832727 287.272184 
L 73.832727 155.716848 
L 74.16 155.716848 
L 74.16 152.621429 
L 74.487273 152.621429 
L 74.487273 144.88288 
L 74.814545 144.88288 
L 74.814545 137.144331 
L 75.141818 137.144331 
L 75.141818 135.596621 
L 75.469091 135.596621 
L 75.469091 134.048911 
L 75.796364 132.501201 
L 75.796364 127.858072 
L 78.087273 127.858072 
L 78.087273 126.310362 
L 78.414545 126.310362 
L 78.414545 123.214942 
L 78.741818 123.214942 
L 78.741818 118.571813 
L 79.396364 118.571813 
L 79.396364 115.476393 
L 80.050909 115.476393 
L 80.050909 113.928683 
L 80.705455 113.928683 
L 80.705455 112.380973 
L 81.36 112.380973 
L 81.36 107.737844 
L 82.996364 107.737844 
L 82.996364 106.190134 
L 85.941818 106.190134 
L 85.941818 103.094714 
L 87.250909 103.094714 
L 87.250909 99.999295 
L 87.905455 99.999295 
L 87.905455 96.903875 
L 89.214545 96.903875 
L 89.214545 95.356165 
L 90.196364 95.356165 
L 90.196364 93.808455 
L 91.178182 93.808455 
L 91.178182 89.165326 
L 96.087273 89.165326 
L 96.087273 87.617616 
L 97.069091 87.617616 
L 97.069091 86.069906 
L 98.705455 86.069906 
L 98.705455 84.522196 
L 99.36 84.522196 
L 99.36 82.974487 
L 102.305455 82.974487 
L 102.305455 81.426777 
L 105.905455 81.426777 
L 105.905455 79.879067 
L 107.869091 79.879067 
L 107.869091 78.331357 
L 115.069091 78.331357 
L 115.069091 76.783647 
L 116.050909 76.783647 
L 116.050909 75.235938 
L 117.032727 75.235938 
L 117.36 73.688228 
L 117.36 70.592808 
L 117.687273 70.592808 
L 117.687273 69.045098 
L 118.014545 69.045098 
L 118.014545 67.497388 
L 120.632727 67.497388 
L 120.632727 65.949679 
L 120.96 65.949679 
L 120.96 64.401969 
L 121.614545 64.401969 
L 121.614545 62.854259 
L 122.269091 62.854259 
L 122.269091 61.306549 
L 124.887273 61.306549 
L 124.887273 59.758839 
L 131.105455 59.758839 
L 131.105455 58.211129 
L 131.432727 58.211129 
L 131.432727 56.66342 
L 205.069091 56.66342 
L 205.069091 55.11571 
L 227.323636 55.11571 
L 227.323636 53.568 
L 398.487273 53.568 
L 398.487273 53.568 
" style="fill:none;stroke:#2ca02c;stroke-linecap:square;stroke-width:1.5;"/>
   </g>
   <g id="line2d_16">
    <path clip-path="url(#p8ee9de9046)" d="M 73.832727 295.488 
L 73.832727 148.837381 
L 74.184847 148.837381 
L 74.184847 145.626053 
L 74.536967 145.626053 
L 74.536967 140.273841 
L 74.889087 140.273841 
L 74.889087 116.724106 
L 75.593327 116.724106 
L 75.593327 115.653664 
L 75.945447 115.653664 
L 75.945447 112.442336 
L 76.297567 112.442336 
L 76.297567 109.231009 
L 76.649686 109.231009 
L 76.649686 103.878796 
L 77.001806 103.878796 
L 77.001806 100.667469 
L 77.353926 100.667469 
L 77.353926 94.244814 
L 78.058166 94.244814 
L 78.058166 92.103929 
L 78.410286 92.103929 
L 78.410286 89.963044 
L 80.170885 89.963044 
L 80.170885 88.892602 
L 82.283605 88.892602 
L 82.283605 87.822159 
L 82.987845 87.822159 
L 82.987845 86.751717 
L 83.339965 86.751717 
L 83.339965 85.681274 
L 85.804804 85.681274 
L 85.804804 84.610832 
L 86.861163 84.610832 
L 86.861163 83.540389 
L 87.213283 83.540389 
L 87.213283 82.469947 
L 88.621763 82.469947 
L 88.621763 81.399504 
L 90.382362 81.399504 
L 90.382362 79.258619 
L 90.734482 79.258619 
L 90.734482 77.117735 
L 91.086602 77.117735 
L 91.086602 74.97685 
L 91.790842 74.97685 
L 91.790842 73.906407 
L 92.847202 73.906407 
L 92.847202 71.765522 
L 93.199322 71.765522 
L 93.199322 70.69508 
L 94.255681 70.69508 
L 94.255681 69.624637 
L 97.42476 69.624637 
L 97.42476 66.41331 
L 98.129 66.41331 
L 98.129 65.342867 
L 98.83324 65.342867 
L 98.83324 64.272425 
L 107.988357 64.272425 
L 107.988357 63.201982 
L 110.101077 63.201982 
L 110.101077 62.13154 
L 116.087115 62.13154 
L 116.087115 59.990655 
L 116.791355 59.990655 
L 116.791355 58.920212 
L 125.242232 58.920212 
L 125.242232 57.84977 
L 145.313066 57.84977 
L 145.313066 56.779327 
L 146.369426 56.779327 
L 146.369426 55.708885 
L 189.680174 55.708885 
L 189.680174 54.638442 
L 261.512633 54.638442 
L 261.864753 53.568 
L 398.487273 53.568 
L 398.487273 53.568 
" style="fill:none;stroke:#d62728;stroke-linecap:square;stroke-width:1.5;"/>
   </g>
   <g id="line2d_17">
    <path clip-path="url(#p8ee9de9046)" d="M 73.832727 254.960914 
L 73.832727 98.716537 
L 74.317286 98.716537 
L 74.317286 93.136381 
L 74.801845 93.136381 
L 74.801845 90.092659 
L 75.286404 90.092659 
L 75.286404 89.585372 
L 75.770963 89.585372 
L 75.770963 86.541651 
L 76.255522 86.541651 
L 76.255522 84.512503 
L 76.740081 84.512503 
L 76.740081 82.483355 
L 77.709199 82.483355 
L 77.709199 80.454208 
L 80.616554 80.454208 
L 80.616554 79.946921 
L 81.101113 79.946921 
L 81.101113 79.439634 
L 82.070231 79.439634 
L 82.070231 78.42506 
L 82.55479 78.42506 
L 82.55479 77.917773 
L 83.523908 77.917773 
L 83.523908 77.410486 
L 84.008467 77.410486 
L 84.008467 76.395912 
L 84.493026 76.395912 
L 84.493026 74.366764 
L 84.977585 74.366764 
L 84.977585 72.844904 
L 85.462144 72.844904 
L 85.462144 70.815756 
L 85.946703 70.815756 
L 85.946703 70.308469 
L 87.884939 70.308469 
L 87.884939 69.293895 
L 88.854057 69.293895 
L 88.854057 68.279321 
L 90.792293 68.279321 
L 90.792293 67.772034 
L 91.761411 67.772034 
L 91.761411 67.264747 
L 95.153324 67.264747 
L 95.153324 66.75746 
L 95.637883 66.75746 
L 95.637883 65.742886 
L 98.060678 65.742886 
L 98.060678 64.221026 
L 98.545237 64.221026 
L 98.545237 63.713739 
L 99.514355 63.713739 
L 99.514355 62.191878 
L 101.937151 62.191878 
L 101.937151 61.684591 
L 102.42171 61.684591 
L 102.42171 60.670017 
L 107.751859 60.670017 
L 107.751859 60.16273 
L 111.628331 60.16273 
L 111.628331 59.655443 
L 117.443039 59.655443 
L 117.443039 58.640869 
L 118.412157 58.640869 
L 118.412157 58.133582 
L 118.896716 58.133582 
L 118.896716 57.626295 
L 120.350393 57.626295 
L 120.350393 57.119009 
L 125.195984 57.119009 
L 125.195984 56.104435 
L 125.680543 56.104435 
L 125.680543 55.597148 
L 147.970258 55.597148 
L 147.970258 55.089861 
L 151.84673 55.089861 
L 151.84673 54.582574 
L 175.105563 54.582574 
L 175.105563 54.075287 
L 189.642334 54.075287 
L 189.642334 53.568 
L 398.487273 53.568 
L 398.487273 53.568 
" style="fill:none;stroke:#9467bd;stroke-linecap:square;stroke-width:1.5;"/>
   </g>
   <g id="patch_3">
    <path d="M 57.6 307.584 
L 57.6 41.472 
" style="fill:none;stroke:#000000;stroke-linecap:square;stroke-linejoin:miter;stroke-width:0.8;"/>
   </g>
   <g id="patch_4">
    <path d="M 414.72 307.584 
L 414.72 41.472 
" style="fill:none;stroke:#000000;stroke-linecap:square;stroke-linejoin:miter;stroke-width:0.8;"/>
   </g>
   <g id="patch_5">
    <path d="M 57.6 307.584 
L 414.72 307.584 
" style="fill:none;stroke:#000000;stroke-linecap:square;stroke-linejoin:miter;stroke-width:0.8;"/>
   </g>
   <g id="patch_6">
    <path d="M 57.6 41.472 
L 414.72 41.472 
" style="fill:none;stroke:#000000;stroke-linecap:square;stroke-linejoin:miter;stroke-width:0.8;"/>
   </g>
   <g id="legend_1">
    <g id="patch_7">
     <path d="M 297.546562 302.584 
L 407.72 302.584 
Q 409.72 302.584 409.72 300.584 
L 409.72 228.193375 
Q 409.72 226.193375 407.72 226.193375 
L 297.546562 226.193375 
Q 295.546562 226.193375 295.546562 228.193375 
L 295.546562 300.584 
Q 295.546562 302.584 297.546562 302.584 
z
" style="fill:#ffffff;opacity:0.8;stroke:#cccccc;stroke-linejoin:miter;"/>
    </g>
    <g id="line2d_18">
     <path d="M 299.546562 234.291812 
L 319.546562 234.291812 
" style="fill:none;stroke:#1f77b4;stroke-linecap:square;stroke-width:1.5;"/>
    </g>
    <g id="line2d_19"/>
    <g id="text_13">
     <!-- antiinfective -->
     <defs>
      <path d="M 34.28125 27.484375 
Q 23.390625 27.484375 19.1875 25 
Q 14.984375 22.515625 14.984375 16.5 
Q 14.984375 11.71875 18.140625 8.90625 
Q 21.296875 6.109375 26.703125 6.109375 
Q 34.1875 6.109375 38.703125 11.40625 
Q 43.21875 16.703125 43.21875 25.484375 
L 43.21875 27.484375 
z
M 52.203125 31.203125 
L 52.203125 0 
L 43.21875 0 
L 43.21875 8.296875 
Q 40.140625 3.328125 35.546875 0.953125 
Q 30.953125 -1.421875 24.3125 -1.421875 
Q 15.921875 -1.421875 10.953125 3.296875 
Q 6 8.015625 6 15.921875 
Q 6 25.140625 12.171875 29.828125 
Q 18.359375 34.515625 30.609375 34.515625 
L 43.21875 34.515625 
L 43.21875 35.40625 
Q 43.21875 41.609375 39.140625 45 
Q 35.0625 48.390625 27.6875 48.390625 
Q 23 48.390625 18.546875 47.265625 
Q 14.109375 46.140625 10.015625 43.890625 
L 10.015625 52.203125 
Q 14.9375 54.109375 19.578125 55.046875 
Q 24.21875 56 28.609375 56 
Q 40.484375 56 46.34375 49.84375 
Q 52.203125 43.703125 52.203125 31.203125 
z
" id="DejaVuSans-61"/>
      <path d="M 54.890625 33.015625 
L 54.890625 0 
L 45.90625 0 
L 45.90625 32.71875 
Q 45.90625 40.484375 42.875 44.328125 
Q 39.84375 48.1875 33.796875 48.1875 
Q 26.515625 48.1875 22.3125 43.546875 
Q 18.109375 38.921875 18.109375 30.90625 
L 18.109375 0 
L 9.078125 0 
L 9.078125 54.6875 
L 18.109375 54.6875 
L 18.109375 46.1875 
Q 21.34375 51.125 25.703125 53.5625 
Q 30.078125 56 35.796875 56 
Q 45.21875 56 50.046875 50.171875 
Q 54.890625 44.34375 54.890625 33.015625 
z
" id="DejaVuSans-6e"/>
      <path d="M 18.3125 70.21875 
L 18.3125 54.6875 
L 36.8125 54.6875 
L 36.8125 47.703125 
L 18.3125 47.703125 
L 18.3125 18.015625 
Q 18.3125 11.328125 20.140625 9.421875 
Q 21.96875 7.515625 27.59375 7.515625 
L 36.8125 7.515625 
L 36.8125 0 
L 27.59375 0 
Q 17.1875 0 13.234375 3.875 
Q 9.28125 7.765625 9.28125 18.015625 
L 9.28125 47.703125 
L 2.6875 47.703125 
L 2.6875 54.6875 
L 9.28125 54.6875 
L 9.28125 70.21875 
z
" id="DejaVuSans-74"/>
      <path d="M 9.421875 54.6875 
L 18.40625 54.6875 
L 18.40625 0 
L 9.421875 0 
z
M 9.421875 75.984375 
L 18.40625 75.984375 
L 18.40625 64.59375 
L 9.421875 64.59375 
z
" id="DejaVuSans-69"/>
      <path d="M 37.109375 75.984375 
L 37.109375 68.5 
L 28.515625 68.5 
Q 23.6875 68.5 21.796875 66.546875 
Q 19.921875 64.59375 19.921875 59.515625 
L 19.921875 54.6875 
L 34.71875 54.6875 
L 34.71875 47.703125 
L 19.921875 47.703125 
L 19.921875 0 
L 10.890625 0 
L 10.890625 47.703125 
L 2.296875 47.703125 
L 2.296875 54.6875 
L 10.890625 54.6875 
L 10.890625 58.5 
Q 10.890625 67.625 15.140625 71.796875 
Q 19.390625 75.984375 28.609375 75.984375 
z
" id="DejaVuSans-66"/>
      <path d="M 56.203125 29.59375 
L 56.203125 25.203125 
L 14.890625 25.203125 
Q 15.484375 15.921875 20.484375 11.0625 
Q 25.484375 6.203125 34.421875 6.203125 
Q 39.59375 6.203125 44.453125 7.46875 
Q 49.3125 8.734375 54.109375 11.28125 
L 54.109375 2.78125 
Q 49.265625 0.734375 44.1875 -0.34375 
Q 39.109375 -1.421875 33.890625 -1.421875 
Q 20.796875 -1.421875 13.15625 6.1875 
Q 5.515625 13.8125 5.515625 26.8125 
Q 5.515625 40.234375 12.765625 48.109375 
Q 20.015625 56 32.328125 56 
Q 43.359375 56 49.78125 48.890625 
Q 56.203125 41.796875 56.203125 29.59375 
z
M 47.21875 32.234375 
Q 47.125 39.59375 43.09375 43.984375 
Q 39.0625 48.390625 32.421875 48.390625 
Q 24.90625 48.390625 20.390625 44.140625 
Q 15.875 39.890625 15.1875 32.171875 
z
" id="DejaVuSans-65"/>
      <path d="M 48.78125 52.59375 
L 48.78125 44.1875 
Q 44.96875 46.296875 41.140625 47.34375 
Q 37.3125 48.390625 33.40625 48.390625 
Q 24.65625 48.390625 19.8125 42.84375 
Q 14.984375 37.3125 14.984375 27.296875 
Q 14.984375 17.28125 19.8125 11.734375 
Q 24.65625 6.203125 33.40625 6.203125 
Q 37.3125 6.203125 41.140625 7.25 
Q 44.96875 8.296875 48.78125 10.40625 
L 48.78125 2.09375 
Q 45.015625 0.34375 40.984375 -0.53125 
Q 36.96875 -1.421875 32.421875 -1.421875 
Q 20.0625 -1.421875 12.78125 6.34375 
Q 5.515625 14.109375 5.515625 27.296875 
Q 5.515625 40.671875 12.859375 48.328125 
Q 20.21875 56 33.015625 56 
Q 37.15625 56 41.109375 55.140625 
Q 45.0625 54.296875 48.78125 52.59375 
z
" id="DejaVuSans-63"/>
      <path d="M 2.984375 54.6875 
L 12.5 54.6875 
L 29.59375 8.796875 
L 46.6875 54.6875 
L 56.203125 54.6875 
L 35.6875 0 
L 23.484375 0 
z
" id="DejaVuSans-76"/>
     </defs>
     <g transform="translate(327.546562 237.791812)scale(0.1 -0.1)">
      <use xlink:href="#DejaVuSans-61"/>
      <use x="61.279297" xlink:href="#DejaVuSans-6e"/>
      <use x="124.658203" xlink:href="#DejaVuSans-74"/>
      <use x="163.867188" xlink:href="#DejaVuSans-69"/>
      <use x="191.650391" xlink:href="#DejaVuSans-69"/>
      <use x="219.433594" xlink:href="#DejaVuSans-6e"/>
      <use x="282.8125" xlink:href="#DejaVuSans-66"/>
      <use x="318.017578" xlink:href="#DejaVuSans-65"/>
      <use x="379.541016" xlink:href="#DejaVuSans-63"/>
      <use x="434.521484" xlink:href="#DejaVuSans-74"/>
      <use x="473.730469" xlink:href="#DejaVuSans-69"/>
      <use x="501.513672" xlink:href="#DejaVuSans-76"/>
      <use x="560.693359" xlink:href="#DejaVuSans-65"/>
     </g>
    </g>
    <g id="line2d_20">
     <path d="M 299.546562 248.969937 
L 319.546562 248.969937 
" style="fill:none;stroke:#ff7f0e;stroke-linecap:square;stroke-width:1.5;"/>
    </g>
    <g id="line2d_21"/>
    <g id="text_14">
     <!-- antineoplastic -->
     <defs>
      <path d="M 30.609375 48.390625 
Q 23.390625 48.390625 19.1875 42.75 
Q 14.984375 37.109375 14.984375 27.296875 
Q 14.984375 17.484375 19.15625 11.84375 
Q 23.34375 6.203125 30.609375 6.203125 
Q 37.796875 6.203125 41.984375 11.859375 
Q 46.1875 17.53125 46.1875 27.296875 
Q 46.1875 37.015625 41.984375 42.703125 
Q 37.796875 48.390625 30.609375 48.390625 
z
M 30.609375 56 
Q 42.328125 56 49.015625 48.375 
Q 55.71875 40.765625 55.71875 27.296875 
Q 55.71875 13.875 49.015625 6.21875 
Q 42.328125 -1.421875 30.609375 -1.421875 
Q 18.84375 -1.421875 12.171875 6.21875 
Q 5.515625 13.875 5.515625 27.296875 
Q 5.515625 40.765625 12.171875 48.375 
Q 18.84375 56 30.609375 56 
z
" id="DejaVuSans-6f"/>
      <path d="M 18.109375 8.203125 
L 18.109375 -20.796875 
L 9.078125 -20.796875 
L 9.078125 54.6875 
L 18.109375 54.6875 
L 18.109375 46.390625 
Q 20.953125 51.265625 25.265625 53.625 
Q 29.59375 56 35.59375 56 
Q 45.5625 56 51.78125 48.09375 
Q 58.015625 40.1875 58.015625 27.296875 
Q 58.015625 14.40625 51.78125 6.484375 
Q 45.5625 -1.421875 35.59375 -1.421875 
Q 29.59375 -1.421875 25.265625 0.953125 
Q 20.953125 3.328125 18.109375 8.203125 
z
M 48.6875 27.296875 
Q 48.6875 37.203125 44.609375 42.84375 
Q 40.53125 48.484375 33.40625 48.484375 
Q 26.265625 48.484375 22.1875 42.84375 
Q 18.109375 37.203125 18.109375 27.296875 
Q 18.109375 17.390625 22.1875 11.75 
Q 26.265625 6.109375 33.40625 6.109375 
Q 40.53125 6.109375 44.609375 11.75 
Q 48.6875 17.390625 48.6875 27.296875 
z
" id="DejaVuSans-70"/>
      <path d="M 9.421875 75.984375 
L 18.40625 75.984375 
L 18.40625 0 
L 9.421875 0 
z
" id="DejaVuSans-6c"/>
      <path d="M 44.28125 53.078125 
L 44.28125 44.578125 
Q 40.484375 46.53125 36.375 47.5 
Q 32.28125 48.484375 27.875 48.484375 
Q 21.1875 48.484375 17.84375 46.4375 
Q 14.5 44.390625 14.5 40.28125 
Q 14.5 37.15625 16.890625 35.375 
Q 19.28125 33.59375 26.515625 31.984375 
L 29.59375 31.296875 
Q 39.15625 29.25 43.1875 25.515625 
Q 47.21875 21.78125 47.21875 15.09375 
Q 47.21875 7.46875 41.1875 3.015625 
Q 35.15625 -1.421875 24.609375 -1.421875 
Q 20.21875 -1.421875 15.453125 -0.5625 
Q 10.6875 0.296875 5.421875 2 
L 5.421875 11.28125 
Q 10.40625 8.6875 15.234375 7.390625 
Q 20.0625 6.109375 24.8125 6.109375 
Q 31.15625 6.109375 34.5625 8.28125 
Q 37.984375 10.453125 37.984375 14.40625 
Q 37.984375 18.0625 35.515625 20.015625 
Q 33.0625 21.96875 24.703125 23.78125 
L 21.578125 24.515625 
Q 13.234375 26.265625 9.515625 29.90625 
Q 5.8125 33.546875 5.8125 39.890625 
Q 5.8125 47.609375 11.28125 51.796875 
Q 16.75 56 26.8125 56 
Q 31.78125 56 36.171875 55.265625 
Q 40.578125 54.546875 44.28125 53.078125 
z
" id="DejaVuSans-73"/>
     </defs>
     <g transform="translate(327.546562 252.469937)scale(0.1 -0.1)">
      <use xlink:href="#DejaVuSans-61"/>
      <use x="61.279297" xlink:href="#DejaVuSans-6e"/>
      <use x="124.658203" xlink:href="#DejaVuSans-74"/>
      <use x="163.867188" xlink:href="#DejaVuSans-69"/>
      <use x="191.650391" xlink:href="#DejaVuSans-6e"/>
      <use x="255.029297" xlink:href="#DejaVuSans-65"/>
      <use x="316.552734" xlink:href="#DejaVuSans-6f"/>
      <use x="377.734375" xlink:href="#DejaVuSans-70"/>
      <use x="441.210938" xlink:href="#DejaVuSans-6c"/>
      <use x="468.994141" xlink:href="#DejaVuSans-61"/>
      <use x="530.273438" xlink:href="#DejaVuSans-73"/>
      <use x="582.373047" xlink:href="#DejaVuSans-74"/>
      <use x="621.582031" xlink:href="#DejaVuSans-69"/>
      <use x="649.365234" xlink:href="#DejaVuSans-63"/>
     </g>
    </g>
    <g id="line2d_22">
     <path d="M 299.546562 263.648062 
L 319.546562 263.648062 
" style="fill:none;stroke:#2ca02c;stroke-linecap:square;stroke-width:1.5;"/>
    </g>
    <g id="line2d_23"/>
    <g id="text_15">
     <!-- cardio -->
     <defs>
      <path d="M 41.109375 46.296875 
Q 39.59375 47.171875 37.8125 47.578125 
Q 36.03125 48 33.890625 48 
Q 26.265625 48 22.1875 43.046875 
Q 18.109375 38.09375 18.109375 28.8125 
L 18.109375 0 
L 9.078125 0 
L 9.078125 54.6875 
L 18.109375 54.6875 
L 18.109375 46.1875 
Q 20.953125 51.171875 25.484375 53.578125 
Q 30.03125 56 36.53125 56 
Q 37.453125 56 38.578125 55.875 
Q 39.703125 55.765625 41.0625 55.515625 
z
" id="DejaVuSans-72"/>
      <path d="M 45.40625 46.390625 
L 45.40625 75.984375 
L 54.390625 75.984375 
L 54.390625 0 
L 45.40625 0 
L 45.40625 8.203125 
Q 42.578125 3.328125 38.25 0.953125 
Q 33.9375 -1.421875 27.875 -1.421875 
Q 17.96875 -1.421875 11.734375 6.484375 
Q 5.515625 14.40625 5.515625 27.296875 
Q 5.515625 40.1875 11.734375 48.09375 
Q 17.96875 56 27.875 56 
Q 33.9375 56 38.25 53.625 
Q 42.578125 51.265625 45.40625 46.390625 
z
M 14.796875 27.296875 
Q 14.796875 17.390625 18.875 11.75 
Q 22.953125 6.109375 30.078125 6.109375 
Q 37.203125 6.109375 41.296875 11.75 
Q 45.40625 17.390625 45.40625 27.296875 
Q 45.40625 37.203125 41.296875 42.84375 
Q 37.203125 48.484375 30.078125 48.484375 
Q 22.953125 48.484375 18.875 42.84375 
Q 14.796875 37.203125 14.796875 27.296875 
z
" id="DejaVuSans-64"/>
     </defs>
     <g transform="translate(327.546562 267.148062)scale(0.1 -0.1)">
      <use xlink:href="#DejaVuSans-63"/>
      <use x="54.980469" xlink:href="#DejaVuSans-61"/>
      <use x="116.259766" xlink:href="#DejaVuSans-72"/>
      <use x="157.357422" xlink:href="#DejaVuSans-64"/>
      <use x="220.833984" xlink:href="#DejaVuSans-69"/>
      <use x="248.617188" xlink:href="#DejaVuSans-6f"/>
     </g>
    </g>
    <g id="line2d_24">
     <path d="M 299.546562 278.326188 
L 319.546562 278.326188 
" style="fill:none;stroke:#d62728;stroke-linecap:square;stroke-width:1.5;"/>
    </g>
    <g id="line2d_25"/>
    <g id="text_16">
     <!-- cns -->
     <g transform="translate(327.546562 281.826188)scale(0.1 -0.1)">
      <use xlink:href="#DejaVuSans-63"/>
      <use x="54.980469" xlink:href="#DejaVuSans-6e"/>
      <use x="118.359375" xlink:href="#DejaVuSans-73"/>
     </g>
    </g>
    <g id="line2d_26">
     <path d="M 299.546562 293.004312 
L 319.546562 293.004312 
" style="fill:none;stroke:#9467bd;stroke-linecap:square;stroke-width:1.5;"/>
    </g>
    <g id="line2d_27"/>
    <g id="text_17">
     <!-- gastrointestinal -->
     <defs>
      <path d="M 45.40625 27.984375 
Q 45.40625 37.75 41.375 43.109375 
Q 37.359375 48.484375 30.078125 48.484375 
Q 22.859375 48.484375 18.828125 43.109375 
Q 14.796875 37.75 14.796875 27.984375 
Q 14.796875 18.265625 18.828125 12.890625 
Q 22.859375 7.515625 30.078125 7.515625 
Q 37.359375 7.515625 41.375 12.890625 
Q 45.40625 18.265625 45.40625 27.984375 
z
M 54.390625 6.78125 
Q 54.390625 -7.171875 48.1875 -13.984375 
Q 42 -20.796875 29.203125 -20.796875 
Q 24.46875 -20.796875 20.265625 -20.09375 
Q 16.0625 -19.390625 12.109375 -17.921875 
L 12.109375 -9.1875 
Q 16.0625 -11.328125 19.921875 -12.34375 
Q 23.78125 -13.375 27.78125 -13.375 
Q 36.625 -13.375 41.015625 -8.765625 
Q 45.40625 -4.15625 45.40625 5.171875 
L 45.40625 9.625 
Q 42.625 4.78125 38.28125 2.390625 
Q 33.9375 0 27.875 0 
Q 17.828125 0 11.671875 7.65625 
Q 5.515625 15.328125 5.515625 27.984375 
Q 5.515625 40.671875 11.671875 48.328125 
Q 17.828125 56 27.875 56 
Q 33.9375 56 38.28125 53.609375 
Q 42.625 51.21875 45.40625 46.390625 
L 45.40625 54.6875 
L 54.390625 54.6875 
z
" id="DejaVuSans-67"/>
     </defs>
     <g transform="translate(327.546562 296.504312)scale(0.1 -0.1)">
      <use xlink:href="#DejaVuSans-67"/>
      <use x="63.476562" xlink:href="#DejaVuSans-61"/>
      <use x="124.755859" xlink:href="#DejaVuSans-73"/>
      <use x="176.855469" xlink:href="#DejaVuSans-74"/>
      <use x="216.064453" xlink:href="#DejaVuSans-72"/>
      <use x="257.146484" xlink:href="#DejaVuSans-6f"/>
      <use x="318.328125" xlink:href="#DejaVuSans-69"/>
      <use x="346.111328" xlink:href="#DejaVuSans-6e"/>
      <use x="409.490234" xlink:href="#DejaVuSans-74"/>
      <use x="448.699219" xlink:href="#DejaVuSans-65"/>
      <use x="510.222656" xlink:href="#DejaVuSans-73"/>
      <use x="562.322266" xlink:href="#DejaVuSans-74"/>
      <use x="601.53125" xlink:href="#DejaVuSans-69"/>
      <use x="629.314453" xlink:href="#DejaVuSans-6e"/>
      <use x="692.693359" xlink:href="#DejaVuSans-61"/>
      <use x="753.972656" xlink:href="#DejaVuSans-6c"/>
     </g>
    </g>
   </g>
  </g>
 </g>
 <defs>
  <clipPath id="p8ee9de9046">
   <rect height="266.112" width="357.12" x="57.6" y="41.472"/>
  </clipPath>
 </defs>
</svg>
