<?xml version="1.0" encoding="utf-8" standalone="no"?>
<!DOCTYPE svg PUBLIC "-//W3C//DTD SVG 1.1//EN"
  "http://www.w3.org/Graphics/SVG/1.1/DTD/svg11.dtd">
<!-- Created with matplotlib (https://matplotlib.org/) -->
<svg height="360pt" version="1.1" viewBox="0 0 360 360" width="360pt" xmlns="http://www.w3.org/2000/svg" xmlns:xlink="http://www.w3.org/1999/xlink">
 <defs>
  <style type="text/css">
*{stroke-linecap:butt;stroke-linejoin:round;}
  </style>
 </defs>
 <g id="figure_1">
  <g id="patch_1">
   <path d="M 0 360 
L 360 360 
L 360 0 
L 0 0 
z
" style="fill:#ffffff;"/>
  </g>
  <g id="axes_1">
   <g id="patch_2">
    <path d="M 45 315 
L 324 315 
L 324 43.2 
L 45 43.2 
z
" style="fill:#ffffff;"/>
   </g>
   <g id="matplotlib.axis_1">
    <g id="xtick_1">
     <g id="line2d_1">
      <defs>
       <path d="M 0 0 
L 0 3.5 
" id="m268777817d" style="stroke:#000000;stroke-width:0.8;"/>
      </defs>
      <g>
       <use style="stroke:#000000;stroke-width:0.8;" x="57.681818" xlink:href="#m268777817d" y="315"/>
      </g>
     </g>
     <g id="text_1">
      <!-- 0.0 -->
      <defs>
       <path d="M 31.78125 66.40625 
Q 24.171875 66.40625 20.328125 58.90625 
Q 16.5 51.421875 16.5 36.375 
Q 16.5 21.390625 20.328125 13.890625 
Q 24.171875 6.390625 31.78125 6.390625 
Q 39.453125 6.390625 43.28125 13.890625 
Q 47.125 21.390625 47.125 36.375 
Q 47.125 51.421875 43.28125 58.90625 
Q 39.453125 66.40625 31.78125 66.40625 
z
M 31.78125 74.21875 
Q 44.046875 74.21875 50.515625 64.515625 
Q 56.984375 54.828125 56.984375 36.375 
Q 56.984375 17.96875 50.515625 8.265625 
Q 44.046875 -1.421875 31.78125 -1.421875 
Q 19.53125 -1.421875 13.0625 8.265625 
Q 6.59375 17.96875 6.59375 36.375 
Q 6.59375 54.828125 13.0625 64.515625 
Q 19.53125 74.21875 31.78125 74.21875 
z
" id="DejaVuSans-48"/>
       <path d="M 10.6875 12.40625 
L 21 12.40625 
L 21 0 
L 10.6875 0 
z
" id="DejaVuSans-46"/>
      </defs>
      <g transform="translate(49.730256 329.598437)scale(0.1 -0.1)">
       <use xlink:href="#DejaVuSans-48"/>
       <use x="63.623047" xlink:href="#DejaVuSans-46"/>
       <use x="95.410156" xlink:href="#DejaVuSans-48"/>
      </g>
     </g>
    </g>
    <g id="xtick_2">
     <g id="line2d_2">
      <g>
       <use style="stroke:#000000;stroke-width:0.8;" x="108.409091" xlink:href="#m268777817d" y="315"/>
      </g>
     </g>
     <g id="text_2">
      <!-- 0.2 -->
      <defs>
       <path d="M 19.1875 8.296875 
L 53.609375 8.296875 
L 53.609375 0 
L 7.328125 0 
L 7.328125 8.296875 
Q 12.9375 14.109375 22.625 23.890625 
Q 32.328125 33.6875 34.8125 36.53125 
Q 39.546875 41.84375 41.421875 45.53125 
Q 43.3125 49.21875 43.3125 52.78125 
Q 43.3125 58.59375 39.234375 62.25 
Q 35.15625 65.921875 28.609375 65.921875 
Q 23.96875 65.921875 18.8125 64.3125 
Q 13.671875 62.703125 7.8125 59.421875 
L 7.8125 69.390625 
Q 13.765625 71.78125 18.9375 73 
Q 24.125 74.21875 28.421875 74.21875 
Q 39.75 74.21875 46.484375 68.546875 
Q 53.21875 62.890625 53.21875 53.421875 
Q 53.21875 48.921875 51.53125 44.890625 
Q 49.859375 40.875 45.40625 35.40625 
Q 44.1875 33.984375 37.640625 27.21875 
Q 31.109375 20.453125 19.1875 8.296875 
z
" id="DejaVuSans-50"/>
      </defs>
      <g transform="translate(100.457528 329.598437)scale(0.1 -0.1)">
       <use xlink:href="#DejaVuSans-48"/>
       <use x="63.623047" xlink:href="#DejaVuSans-46"/>
       <use x="95.410156" xlink:href="#DejaVuSans-50"/>
      </g>
     </g>
    </g>
    <g id="xtick_3">
     <g id="line2d_3">
      <g>
       <use style="stroke:#000000;stroke-width:0.8;" x="159.136364" xlink:href="#m268777817d" y="315"/>
      </g>
     </g>
     <g id="text_3">
      <!-- 0.4 -->
      <defs>
       <path d="M 37.796875 64.3125 
L 12.890625 25.390625 
L 37.796875 25.390625 
z
M 35.203125 72.90625 
L 47.609375 72.90625 
L 47.609375 25.390625 
L 58.015625 25.390625 
L 58.015625 17.1875 
L 47.609375 17.1875 
L 47.609375 0 
L 37.796875 0 
L 37.796875 17.1875 
L 4.890625 17.1875 
L 4.890625 26.703125 
z
" id="DejaVuSans-52"/>
      </defs>
      <g transform="translate(151.184801 329.598437)scale(0.1 -0.1)">
       <use xlink:href="#DejaVuSans-48"/>
       <use x="63.623047" xlink:href="#DejaVuSans-46"/>
       <use x="95.410156" xlink:href="#DejaVuSans-52"/>
      </g>
     </g>
    </g>
    <g id="xtick_4">
     <g id="line2d_4">
      <g>
       <use style="stroke:#000000;stroke-width:0.8;" x="209.863636" xlink:href="#m268777817d" y="315"/>
      </g>
     </g>
     <g id="text_4">
      <!-- 0.6 -->
      <defs>
       <path d="M 33.015625 40.375 
Q 26.375 40.375 22.484375 35.828125 
Q 18.609375 31.296875 18.609375 23.390625 
Q 18.609375 15.53125 22.484375 10.953125 
Q 26.375 6.390625 33.015625 6.390625 
Q 39.65625 6.390625 43.53125 10.953125 
Q 47.40625 15.53125 47.40625 23.390625 
Q 47.40625 31.296875 43.53125 35.828125 
Q 39.65625 40.375 33.015625 40.375 
z
M 52.59375 71.296875 
L 52.59375 62.3125 
Q 48.875 64.0625 45.09375 64.984375 
Q 41.3125 65.921875 37.59375 65.921875 
Q 27.828125 65.921875 22.671875 59.328125 
Q 17.53125 52.734375 16.796875 39.40625 
Q 19.671875 43.65625 24.015625 45.921875 
Q 28.375 48.1875 33.59375 48.1875 
Q 44.578125 48.1875 50.953125 41.515625 
Q 57.328125 34.859375 57.328125 23.390625 
Q 57.328125 12.15625 50.6875 5.359375 
Q 44.046875 -1.421875 33.015625 -1.421875 
Q 20.359375 -1.421875 13.671875 8.265625 
Q 6.984375 17.96875 6.984375 36.375 
Q 6.984375 53.65625 15.1875 63.9375 
Q 23.390625 74.21875 37.203125 74.21875 
Q 40.921875 74.21875 44.703125 73.484375 
Q 48.484375 72.75 52.59375 71.296875 
z
" id="DejaVuSans-54"/>
      </defs>
      <g transform="translate(201.912074 329.598437)scale(0.1 -0.1)">
       <use xlink:href="#DejaVuSans-48"/>
       <use x="63.623047" xlink:href="#DejaVuSans-46"/>
       <use x="95.410156" xlink:href="#DejaVuSans-54"/>
      </g>
     </g>
    </g>
    <g id="xtick_5">
     <g id="line2d_5">
      <g>
       <use style="stroke:#000000;stroke-width:0.8;" x="260.590909" xlink:href="#m268777817d" y="315"/>
      </g>
     </g>
     <g id="text_5">
      <!-- 0.8 -->
      <defs>
       <path d="M 31.78125 34.625 
Q 24.75 34.625 20.71875 30.859375 
Q 16.703125 27.09375 16.703125 20.515625 
Q 16.703125 13.921875 20.71875 10.15625 
Q 24.75 6.390625 31.78125 6.390625 
Q 38.8125 6.390625 42.859375 10.171875 
Q 46.921875 13.96875 46.921875 20.515625 
Q 46.921875 27.09375 42.890625 30.859375 
Q 38.875 34.625 31.78125 34.625 
z
M 21.921875 38.8125 
Q 15.578125 40.375 12.03125 44.71875 
Q 8.5 49.078125 8.5 55.328125 
Q 8.5 64.0625 14.71875 69.140625 
Q 20.953125 74.21875 31.78125 74.21875 
Q 42.671875 74.21875 48.875 69.140625 
Q 55.078125 64.0625 55.078125 55.328125 
Q 55.078125 49.078125 51.53125 44.71875 
Q 48 40.375 41.703125 38.8125 
Q 48.828125 37.15625 52.796875 32.3125 
Q 56.78125 27.484375 56.78125 20.515625 
Q 56.78125 9.90625 50.3125 4.234375 
Q 43.84375 -1.421875 31.78125 -1.421875 
Q 19.734375 -1.421875 13.25 4.234375 
Q 6.78125 9.90625 6.78125 20.515625 
Q 6.78125 27.484375 10.78125 32.3125 
Q 14.796875 37.15625 21.921875 38.8125 
z
M 18.3125 54.390625 
Q 18.3125 48.734375 21.84375 45.5625 
Q 25.390625 42.390625 31.78125 42.390625 
Q 38.140625 42.390625 41.71875 45.5625 
Q 45.3125 48.734375 45.3125 54.390625 
Q 45.3125 60.0625 41.71875 63.234375 
Q 38.140625 66.40625 31.78125 66.40625 
Q 25.390625 66.40625 21.84375 63.234375 
Q 18.3125 60.0625 18.3125 54.390625 
z
" id="DejaVuSans-56"/>
      </defs>
      <g transform="translate(252.639347 329.598437)scale(0.1 -0.1)">
       <use xlink:href="#DejaVuSans-48"/>
       <use x="63.623047" xlink:href="#DejaVuSans-46"/>
       <use x="95.410156" xlink:href="#DejaVuSans-56"/>
      </g>
     </g>
    </g>
    <g id="xtick_6">
     <g id="line2d_6">
      <g>
       <use style="stroke:#000000;stroke-width:0.8;" x="311.318182" xlink:href="#m268777817d" y="315"/>
      </g>
     </g>
     <g id="text_6">
      <!-- 1.0 -->
      <defs>
       <path d="M 12.40625 8.296875 
L 28.515625 8.296875 
L 28.515625 63.921875 
L 10.984375 60.40625 
L 10.984375 69.390625 
L 28.421875 72.90625 
L 38.28125 72.90625 
L 38.28125 8.296875 
L 54.390625 8.296875 
L 54.390625 0 
L 12.40625 0 
z
" id="DejaVuSans-49"/>
      </defs>
      <g transform="translate(303.366619 329.598437)scale(0.1 -0.1)">
       <use xlink:href="#DejaVuSans-49"/>
       <use x="63.623047" xlink:href="#DejaVuSans-46"/>
       <use x="95.410156" xlink:href="#DejaVuSans-48"/>
      </g>
     </g>
    </g>
   </g>
   <g id="matplotlib.axis_2">
    <g id="ytick_1">
     <g id="line2d_7">
      <defs>
       <path d="M 0 0 
L -3.5 0 
" id="m796cddd8e3" style="stroke:#000000;stroke-width:0.8;"/>
      </defs>
      <g>
       <use style="stroke:#000000;stroke-width:0.8;" x="45" xlink:href="#m796cddd8e3" y="302.645455"/>
      </g>
     </g>
     <g id="text_7">
      <!-- 0.0 -->
      <g transform="translate(22.096875 306.444673)scale(0.1 -0.1)">
       <use xlink:href="#DejaVuSans-48"/>
       <use x="63.623047" xlink:href="#DejaVuSans-46"/>
       <use x="95.410156" xlink:href="#DejaVuSans-48"/>
      </g>
     </g>
    </g>
    <g id="ytick_2">
     <g id="line2d_8">
      <g>
       <use style="stroke:#000000;stroke-width:0.8;" x="45" xlink:href="#m796cddd8e3" y="253.227273"/>
      </g>
     </g>
     <g id="text_8">
      <!-- 0.2 -->
      <g transform="translate(22.096875 257.026491)scale(0.1 -0.1)">
       <use xlink:href="#DejaVuSans-48"/>
       <use x="63.623047" xlink:href="#DejaVuSans-46"/>
       <use x="95.410156" xlink:href="#DejaVuSans-50"/>
      </g>
     </g>
    </g>
    <g id="ytick_3">
     <g id="line2d_9">
      <g>
       <use style="stroke:#000000;stroke-width:0.8;" x="45" xlink:href="#m796cddd8e3" y="203.809091"/>
      </g>
     </g>
     <g id="text_9">
      <!-- 0.4 -->
      <g transform="translate(22.096875 207.60831)scale(0.1 -0.1)">
       <use xlink:href="#DejaVuSans-48"/>
       <use x="63.623047" xlink:href="#DejaVuSans-46"/>
       <use x="95.410156" xlink:href="#DejaVuSans-52"/>
      </g>
     </g>
    </g>
    <g id="ytick_4">
     <g id="line2d_10">
      <g>
       <use style="stroke:#000000;stroke-width:0.8;" x="45" xlink:href="#m796cddd8e3" y="154.390909"/>
      </g>
     </g>
     <g id="text_10">
      <!-- 0.6 -->
      <g transform="translate(22.096875 158.190128)scale(0.1 -0.1)">
       <use xlink:href="#DejaVuSans-48"/>
       <use x="63.623047" xlink:href="#DejaVuSans-46"/>
       <use x="95.410156" xlink:href="#DejaVuSans-54"/>
      </g>
     </g>
    </g>
    <g id="ytick_5">
     <g id="line2d_11">
      <g>
       <use style="stroke:#000000;stroke-width:0.8;" x="45" xlink:href="#m796cddd8e3" y="104.972727"/>
      </g>
     </g>
     <g id="text_11">
      <!-- 0.8 -->
      <g transform="translate(22.096875 108.771946)scale(0.1 -0.1)">
       <use xlink:href="#DejaVuSans-48"/>
       <use x="63.623047" xlink:href="#DejaVuSans-46"/>
       <use x="95.410156" xlink:href="#DejaVuSans-56"/>
      </g>
     </g>
    </g>
    <g id="ytick_6">
     <g id="line2d_12">
      <g>
       <use style="stroke:#000000;stroke-width:0.8;" x="45" xlink:href="#m796cddd8e3" y="55.554545"/>
      </g>
     </g>
     <g id="text_12">
      <!-- 1.0 -->
      <g transform="translate(22.096875 59.353764)scale(0.1 -0.1)">
       <use xlink:href="#DejaVuSans-49"/>
       <use x="63.623047" xlink:href="#DejaVuSans-46"/>
       <use x="95.410156" xlink:href="#DejaVuSans-48"/>
      </g>
     </g>
    </g>
   </g>
   <g id="line2d_13">
    <path clip-path="url(#p8efefd6de3)" d="M 57.681818 302.645455 
L 57.681818 250.029019 
L 57.96177 247.965629 
L 57.96177 199.99182 
L 58.241722 199.475973 
L 58.241722 174.19945 
L 58.521674 174.19945 
L 58.521674 117.456235 
L 58.801626 117.456235 
L 58.801626 114.876998 
L 59.081577 114.876998 
L 59.081577 108.686829 
L 59.361529 108.686829 
L 59.361529 106.107592 
L 59.641481 106.107592 
L 59.641481 105.591744 
L 59.921433 105.591744 
L 59.921433 105.075897 
L 60.201385 105.075897 
L 60.201385 103.012507 
L 60.761288 103.012507 
L 60.761288 101.464965 
L 61.04124 101.464965 
L 61.04124 90.632169 
L 61.601144 90.632169 
L 61.601144 88.052932 
L 62.161048 88.052932 
L 62.161048 87.537085 
L 62.720951 87.537085 
L 62.720951 87.021237 
L 63.000903 87.021237 
L 63.000903 86.50539 
L 63.280855 86.50539 
L 63.280855 85.989543 
L 64.680614 85.989543 
L 64.680614 85.473695 
L 64.960566 85.473695 
L 64.960566 84.442 
L 65.800421 84.442 
L 65.800421 83.926153 
L 67.200181 83.926153 
L 67.200181 82.378611 
L 67.760084 82.378611 
L 67.760084 81.862763 
L 68.040036 81.862763 
L 68.040036 81.346916 
L 69.159843 81.346916 
L 69.159843 80.831069 
L 69.439795 80.831069 
L 69.439795 79.799374 
L 69.719747 79.799374 
L 69.719747 79.283526 
L 71.959362 79.283526 
L 71.959362 76.188442 
L 72.239314 76.188442 
L 72.239314 75.672594 
L 73.079169 75.672594 
L 73.079169 75.156747 
L 73.359121 75.156747 
L 73.359121 74.6409 
L 74.478928 74.6409 
L 74.478928 74.125052 
L 75.318784 74.125052 
L 75.318784 73.609205 
L 76.158639 73.609205 
L 76.158639 73.093357 
L 76.438591 73.093357 
L 76.438591 72.57751 
L 78.118302 72.57751 
L 78.118302 72.061663 
L 78.398254 72.061663 
L 78.398254 71.029968 
L 78.678206 71.029968 
L 78.678206 70.51412 
L 79.518061 70.51412 
L 79.518061 69.998273 
L 79.798013 69.998273 
L 79.798013 69.482426 
L 80.357917 69.482426 
L 80.357917 68.966578 
L 81.197772 68.966578 
L 81.197772 68.450731 
L 81.477724 68.450731 
L 81.477724 67.934883 
L 81.757676 67.934883 
L 81.757676 67.419036 
L 84.557194 67.419036 
L 84.557194 66.903188 
L 84.837146 66.903188 
L 84.837146 66.387341 
L 86.796809 66.387341 
L 86.796809 65.871494 
L 87.076761 65.871494 
L 87.076761 65.355646 
L 87.916616 65.355646 
L 87.916616 64.839799 
L 89.036424 64.839799 
L 89.036424 63.808104 
L 90.716135 63.808104 
L 90.716135 63.292257 
L 92.395846 63.292257 
L 92.395846 62.776409 
L 96.03522 62.776409 
L 96.03522 62.260562 
L 99.11469 62.260562 
L 99.11469 61.744714 
L 99.674594 61.744714 
L 99.674594 61.228867 
L 103.873871 61.228867 
L 103.873871 60.71302 
L 112.552378 60.71302 
L 112.552378 59.681325 
L 114.512041 59.681325 
L 114.512041 58.64963 
L 120.39103 58.64963 
L 120.39103 58.133783 
L 121.790789 58.133783 
L 121.790789 57.617935 
L 123.4705 57.617935 
L 123.4705 57.102088 
L 130.189344 57.102088 
L 130.189344 56.58624 
L 132.988862 56.58624 
L 132.988862 56.070393 
L 195.698073 56.070393 
L 195.698073 55.554545 
L 311.318182 55.554545 
L 311.318182 55.554545 
" style="fill:none;stroke:#1f77b4;stroke-linecap:square;stroke-width:1.5;"/>
   </g>
   <g id="line2d_14">
    <path clip-path="url(#p8efefd6de3)" d="M 57.681818 302.645455 
L 57.681818 299.306388 
L 57.681818 295.967322 
L 57.681818 282.611057 
L 57.681818 272.593857 
L 57.681818 219.168796 
L 57.875286 219.168796 
L 57.875286 179.1 
L 58.068754 179.1 
L 58.068754 169.082801 
L 58.262222 169.082801 
L 58.262222 135.692138 
L 58.45569 135.692138 
L 58.45569 132.353071 
L 58.649157 132.353071 
L 58.649157 129.014005 
L 59.036093 129.014005 
L 59.036093 125.674939 
L 59.229561 125.674939 
L 59.229561 122.335872 
L 59.423029 122.335872 
L 59.423029 118.996806 
L 59.616497 118.996806 
L 59.616497 115.65774 
L 60.390368 115.65774 
L 60.390368 112.318673 
L 60.777304 112.318673 
L 60.777304 102.301474 
L 61.357708 102.301474 
L 61.357708 95.623342 
L 61.744643 95.623342 
L 61.744643 92.284275 
L 62.131579 92.284275 
L 62.131579 88.945209 
L 64.453193 88.945209 
L 64.453193 85.606143 
L 66.58134 85.606143 
L 66.58134 82.267076 
L 67.742147 82.267076 
L 67.742147 78.92801 
L 68.129083 78.92801 
L 68.129083 75.588943 
L 75.480861 75.588943 
L 75.480861 72.249877 
L 77.028604 72.249877 
L 77.028604 68.910811 
L 81.865301 68.910811 
L 81.865301 65.571744 
L 93.66684 65.571744 
L 93.66684 62.232678 
L 96.181922 62.232678 
L 96.181922 58.893612 
L 236.44612 58.893612 
L 236.44612 55.554545 
L 311.318182 55.554545 
" style="fill:none;stroke:#ff7f0e;stroke-linecap:square;stroke-width:1.5;"/>
   </g>
   <g id="line2d_15">
    <path clip-path="url(#p8efefd6de3)" d="M 57.681818 302.645455 
L 57.681818 292.130948 
L 57.681818 290.028046 
L 57.681818 283.719342 
L 57.681818 281.616441 
L 57.681818 277.410638 
L 57.681818 276.359188 
L 57.681818 272.153385 
L 57.681818 266.896132 
L 57.681818 264.79323 
L 57.681818 263.741779 
L 57.681818 261.638878 
L 57.681818 257.433075 
L 57.681818 255.330174 
L 57.681818 172.265571 
L 57.902372 172.265571 
L 57.902372 161.751064 
L 58.122925 161.751064 
L 58.122925 158.596712 
L 58.343478 158.596712 
L 58.343478 157.545261 
L 58.564032 157.545261 
L 58.564032 152.288008 
L 58.784585 152.288008 
L 58.784585 141.773501 
L 59.005138 141.773501 
L 59.005138 136.516248 
L 59.225692 136.516248 
L 59.225692 133.361896 
L 59.446245 133.361896 
L 59.446245 129.156093 
L 59.666798 129.156093 
L 59.666798 123.898839 
L 59.887352 123.898839 
L 59.887352 117.590135 
L 60.107905 117.590135 
L 60.107905 112.332882 
L 60.549012 112.332882 
L 60.549012 110.229981 
L 60.769565 110.229981 
L 60.769565 109.17853 
L 61.210672 109.17853 
L 61.210672 108.127079 
L 61.651779 108.127079 
L 61.651779 107.075629 
L 62.092885 107.075629 
L 62.092885 106.024178 
L 63.195652 106.024178 
L 63.195652 103.921277 
L 63.857312 103.921277 
L 63.857312 102.869826 
L 64.960079 102.869826 
L 64.960079 100.766925 
L 65.621739 100.766925 
L 65.621739 97.612573 
L 66.062846 97.612573 
L 66.062846 95.509671 
L 66.724506 95.509671 
L 66.724506 92.355319 
L 67.165613 92.355319 
L 67.165613 91.303868 
L 68.047826 91.303868 
L 68.047826 90.252418 
L 68.93004 90.252418 
L 68.93004 89.200967 
L 69.5917 89.200967 
L 69.5917 87.098066 
L 69.812253 87.098066 
L 69.812253 84.995164 
L 70.032806 84.995164 
L 70.032806 83.943714 
L 70.473913 83.943714 
L 70.473913 82.892263 
L 70.91502 82.892263 
L 70.91502 81.840812 
L 71.57668 81.840812 
L 71.57668 80.789362 
L 77.531621 80.789362 
L 77.531621 79.737911 
L 77.752174 79.737911 
L 77.752174 78.68646 
L 78.413834 78.68646 
L 78.413834 77.63501 
L 79.296047 77.63501 
L 79.296047 76.583559 
L 79.957708 76.583559 
L 79.957708 75.532108 
L 83.707115 75.532108 
L 83.707115 74.480658 
L 88.338735 74.480658 
L 88.338735 73.429207 
L 89.882609 73.429207 
L 89.882609 72.377756 
L 90.544269 72.377756 
L 90.544269 71.326306 
L 92.088142 71.326306 
L 92.088142 70.274855 
L 93.190909 70.274855 
L 93.190909 69.223404 
L 95.616996 69.223404 
L 95.616996 68.171954 
L 97.381423 68.171954 
L 97.381423 67.120503 
L 98.043083 67.120503 
L 98.043083 66.069052 
L 110.614625 66.069052 
L 110.614625 65.017602 
L 115.687352 65.017602 
L 115.687352 63.966151 
L 145.020949 63.966151 
L 145.020949 62.9147 
L 147.667589 62.9147 
L 147.667589 61.86325 
L 153.843083 61.86325 
L 153.843083 60.811799 
L 157.813043 60.811799 
L 157.813043 59.760348 
L 159.136364 59.760348 
L 159.136364 58.708897 
L 185.382213 58.708897 
L 185.382213 57.657447 
L 257.944269 57.657447 
L 257.944269 56.605996 
L 308.892095 56.605996 
L 308.892095 55.554545 
L 311.318182 55.554545 
" style="fill:none;stroke:#2ca02c;stroke-linecap:square;stroke-width:1.5;"/>
   </g>
   <g id="line2d_16">
    <path clip-path="url(#p8efefd6de3)" d="M 57.681818 302.645455 
L 57.681818 200.346671 
L 57.888362 200.346671 
L 57.888362 194.051361 
L 58.301451 194.051361 
L 58.301451 173.591604 
L 58.507995 173.591604 
L 58.507995 154.705675 
L 58.921084 154.705675 
L 58.921084 153.131847 
L 59.334172 153.131847 
L 59.334172 149.984192 
L 59.540717 149.984192 
L 59.540717 148.410365 
L 59.747261 148.410365 
L 59.747261 146.836537 
L 59.953805 146.836537 
L 59.953805 143.688882 
L 60.160349 143.688882 
L 60.160349 142.115055 
L 60.573438 142.115055 
L 60.573438 140.541228 
L 60.986527 140.541228 
L 60.986527 138.9674 
L 61.399615 138.9674 
L 61.399615 137.393573 
L 62.019248 137.393573 
L 62.019248 135.819745 
L 63.258513 135.819745 
L 63.258513 132.67209 
L 63.878146 132.67209 
L 63.878146 129.524435 
L 64.497779 129.524435 
L 64.497779 126.376781 
L 65.943589 126.376781 
L 65.943589 124.802953 
L 66.150133 124.802953 
L 66.150133 123.229126 
L 66.563222 123.229126 
L 66.563222 121.655298 
L 67.182855 121.655298 
L 67.182855 120.081471 
L 67.389399 120.081471 
L 67.389399 116.933816 
L 68.009032 116.933816 
L 68.009032 115.359988 
L 68.215576 115.359988 
L 68.215576 112.212334 
L 68.628664 112.212334 
L 68.628664 109.064679 
L 69.041753 109.064679 
L 69.041753 107.490851 
L 70.900651 107.490851 
L 70.900651 105.917024 
L 72.139917 105.917024 
L 72.139917 104.343196 
L 72.966094 104.343196 
L 72.966094 102.769369 
L 73.172638 102.769369 
L 73.172638 99.621714 
L 73.379183 99.621714 
L 73.379183 98.047887 
L 74.411904 98.047887 
L 74.411904 96.474059 
L 75.444625 96.474059 
L 75.444625 91.752577 
L 76.683891 91.752577 
L 76.683891 90.178749 
L 80.195144 90.178749 
L 80.195144 88.604922 
L 82.260586 88.604922 
L 82.260586 87.031094 
L 86.598016 87.031094 
L 86.598016 85.457267 
L 91.348534 85.457267 
L 91.348534 83.883439 
L 92.381256 83.883439 
L 92.381256 82.309612 
L 93.620521 82.309612 
L 93.620521 80.735785 
L 97.544862 80.735785 
L 97.544862 77.58813 
L 107.252443 77.58813 
L 107.252443 76.014302 
L 109.111341 76.014302 
L 109.111341 74.440475 
L 113.035683 74.440475 
L 113.035683 72.866647 
L 116.753479 72.866647 
L 116.753479 71.29282 
L 120.264732 71.29282 
L 120.264732 69.718992 
L 132.450844 69.718992 
L 132.450844 68.145165 
L 133.896654 68.145165 
L 133.896654 66.571338 
L 135.342464 66.571338 
L 135.342464 64.99751 
L 141.125703 64.99751 
L 141.125703 63.423683 
L 143.191146 63.423683 
L 143.191146 61.849855 
L 178.71676 61.849855 
L 178.71676 60.276028 
L 179.956026 60.276028 
L 179.956026 58.7022 
L 232.211726 58.7022 
L 232.211726 57.128373 
L 248.735268 57.128373 
L 248.735268 55.554545 
L 311.318182 55.554545 
L 311.318182 55.554545 
" style="fill:none;stroke:#d62728;stroke-linecap:square;stroke-width:1.5;"/>
   </g>
   <g id="line2d_17">
    <path clip-path="url(#p8efefd6de3)" d="M 57.681818 302.645455 
L 57.681818 275.432799 
L 57.900848 275.432799 
L 57.900848 186.17529 
L 58.119878 186.17529 
L 58.119878 165.493672 
L 58.557937 165.493672 
L 58.557937 154.60861 
L 58.776967 154.60861 
L 58.776967 151.343092 
L 58.995996 151.343092 
L 58.995996 145.900561 
L 59.215026 145.900561 
L 59.215026 132.838486 
L 59.434056 132.838486 
L 59.434056 131.74998 
L 59.653085 131.74998 
L 59.653085 120.864918 
L 60.091145 120.864918 
L 60.091145 117.599399 
L 60.310174 117.599399 
L 60.310174 116.510893 
L 60.529204 116.510893 
L 60.529204 113.245374 
L 60.748234 113.245374 
L 60.748234 112.156868 
L 61.405323 112.156868 
L 61.405323 111.068362 
L 61.624352 111.068362 
L 61.624352 106.714337 
L 62.062412 106.714337 
L 62.062412 104.537325 
L 62.500471 104.537325 
L 62.500471 101.271806 
L 63.15756 101.271806 
L 63.15756 96.917781 
L 65.347857 96.917781 
L 65.347857 95.829275 
L 65.566886 95.829275 
L 65.566886 94.740769 
L 65.785916 94.740769 
L 65.785916 93.652263 
L 67.757183 93.652263 
L 67.757183 91.47525 
L 68.195243 91.47525 
L 68.195243 90.386744 
L 68.633302 90.386744 
L 68.633302 89.298238 
L 71.042628 89.298238 
L 71.042628 88.209732 
L 71.261658 88.209732 
L 71.261658 87.121225 
L 71.918747 87.121225 
L 71.918747 86.032719 
L 72.356806 86.032719 
L 72.356806 84.944213 
L 73.232925 84.944213 
L 73.232925 83.855707 
L 74.547103 83.855707 
L 74.547103 82.767201 
L 75.642252 82.767201 
L 75.642252 80.590188 
L 76.299341 80.590188 
L 76.299341 79.501682 
L 76.95643 79.501682 
L 76.95643 78.413176 
L 77.613519 78.413176 
L 77.613519 77.32467 
L 78.270608 77.32467 
L 78.270608 76.236163 
L 78.708667 76.236163 
L 78.708667 75.147657 
L 80.679934 75.147657 
L 80.679934 74.059151 
L 81.117993 74.059151 
L 81.117993 72.970645 
L 90.31724 72.970645 
L 90.31724 71.882139 
L 95.135893 71.882139 
L 95.135893 70.793632 
L 97.326189 70.793632 
L 97.326189 69.705126 
L 102.363872 69.705126 
L 102.363872 68.61662 
L 105.649317 68.61662 
L 105.649317 67.528114 
L 108.496703 67.528114 
L 108.496703 66.439608 
L 120.762365 66.439608 
L 120.762365 65.351101 
L 126.676166 65.351101 
L 126.676166 63.174089 
L 130.180641 63.174089 
L 130.180641 62.085583 
L 133.685115 62.085583 
L 133.685115 60.997076 
L 144.855629 60.997076 
L 144.855629 59.90857 
L 150.112341 59.90857 
L 150.112341 58.820064 
L 151.426519 58.820064 
L 151.426519 57.731558 
L 174.424635 57.731558 
L 174.424635 56.643052 
L 274.302167 56.643052 
L 274.302167 55.554545 
L 311.318182 55.554545 
L 311.318182 55.554545 
" style="fill:none;stroke:#9467bd;stroke-linecap:square;stroke-width:1.5;"/>
   </g>
   <g id="line2d_18">
    <path clip-path="url(#p8efefd6de3)" d="M 57.681818 302.645455 
L 57.681818 270.416206 
L 57.681818 238.186957 
L 57.681818 216.700791 
L 58.054265 216.700791 
L 58.054265 173.728458 
L 59.171606 173.728458 
L 59.171606 152.242292 
L 60.102723 152.242292 
L 60.102723 141.499209 
L 61.220064 141.499209 
L 61.220064 130.756126 
L 71.648578 130.756126 
L 71.648578 120.013043 
L 87.105126 120.013043 
L 87.105126 109.26996 
L 87.85002 109.26996 
L 87.85002 98.526877 
L 106.472367 98.526877 
L 106.472367 87.783794 
L 128.446736 87.783794 
L 128.446736 77.040711 
L 131.984982 77.040711 
L 131.984982 66.297628 
L 162.153184 66.297628 
L 162.153184 55.554545 
L 311.318182 55.554545 
" style="fill:none;stroke:#8c564b;stroke-linecap:square;stroke-width:1.5;"/>
   </g>
   <g id="line2d_19">
    <path clip-path="url(#p8efefd6de3)" d="M 57.681818 302.645455 
L 57.681818 268.731016 
L 57.681818 254.196257 
L 57.681818 249.351337 
L 57.681818 229.971658 
L 57.681818 225.126738 
L 57.681818 215.436898 
L 57.681818 186.36738 
L 57.681818 176.67754 
L 57.681818 133.073262 
L 57.87195 133.073262 
L 57.87195 118.538503 
L 59.393008 118.538503 
L 59.393008 113.693583 
L 59.963405 113.693583 
L 59.963405 99.158824 
L 61.864727 99.158824 
L 61.864727 94.313904 
L 69.470015 94.313904 
L 69.470015 89.468984 
L 94.377334 89.468984 
L 94.377334 84.624064 
L 110.158307 84.624064 
L 110.158307 79.779144 
L 111.869497 79.779144 
L 111.869497 74.934225 
L 151.607128 74.934225 
L 151.607128 70.089305 
L 151.79726 70.089305 
L 151.79726 65.244385 
L 161.494003 65.244385 
L 161.494003 60.399465 
L 195.527668 60.399465 
L 195.527668 55.554545 
L 311.318182 55.554545 
" style="fill:none;stroke:#e377c2;stroke-linecap:square;stroke-width:1.5;"/>
   </g>
   <g id="line2d_20">
    <path clip-path="url(#p8efefd6de3)" d="M 57.681818 302.645455 
L 57.681818 288.659177 
L 57.681818 274.672899 
L 57.681818 265.348714 
L 57.681818 167.444768 
L 57.872236 167.444768 
L 57.872236 158.120583 
L 58.253071 158.120583 
L 58.253071 144.134305 
L 58.633907 144.134305 
L 58.633907 139.472213 
L 61.871007 139.472213 
L 61.871007 134.81012 
L 62.061425 134.81012 
L 62.061425 130.148027 
L 67.773956 130.148027 
L 67.773956 125.485935 
L 68.726044 125.485935 
L 68.726044 120.823842 
L 70.630221 120.823842 
L 70.630221 116.16175 
L 72.534398 116.16175 
L 72.534398 111.499657 
L 73.105651 111.499657 
L 73.105651 106.837564 
L 80.531941 106.837564 
L 80.531941 97.513379 
L 98.621622 97.513379 
L 98.621622 92.851286 
L 102.429975 92.851286 
L 102.429975 88.189194 
L 103.191646 88.189194 
L 103.191646 83.527101 
L 125.851351 83.527101 
L 125.851351 78.865009 
L 144.13145 78.865009 
L 144.13145 74.202916 
L 161.649877 74.202916 
L 161.649877 69.540823 
L 195.163391 69.540823 
L 195.163391 64.878731 
L 205.826781 64.878731 
L 205.826781 60.216638 
L 217.632678 60.216638 
L 217.632678 55.554545 
L 311.318182 55.554545 
" style="fill:none;stroke:#7f7f7f;stroke-linecap:square;stroke-width:1.5;"/>
   </g>
   <g id="line2d_21">
    <path clip-path="url(#p8efefd6de3)" d="M 57.681818 302.645455 
L 57.681818 256.315909 
L 57.681818 217.707955 
L 57.681818 125.048864 
L 58.806591 125.048864 
L 58.806591 117.327273 
L 63.868071 117.327273 
L 63.868071 109.605682 
L 65.742693 109.605682 
L 65.742693 101.884091 
L 66.30508 101.884091 
L 66.30508 94.1625 
L 87.113384 94.1625 
L 87.113384 86.440909 
L 109.046462 86.440909 
L 109.046462 78.719318 
L 136.603407 78.719318 
L 136.603407 70.997727 
L 163.22304 70.997727 
L 163.22304 63.276136 
L 178.969865 63.276136 
L 178.969865 55.554545 
L 311.318182 55.554545 
" style="fill:none;stroke:#bcbd22;stroke-linecap:square;stroke-width:1.5;"/>
   </g>
   <g id="line2d_22">
    <path clip-path="url(#p8efefd6de3)" d="M 57.681818 302.645455 
L 57.681818 277.084326 
L 57.681818 81.115674 
L 57.868866 81.115674 
L 57.868866 72.595298 
L 95.465406 72.595298 
L 95.465406 64.074922 
L 107.623492 64.074922 
L 107.623492 55.554545 
L 311.318182 55.554545 
" style="fill:none;stroke:#17becf;stroke-linecap:square;stroke-width:1.5;"/>
   </g>
   <g id="line2d_23">
    <path clip-path="url(#p8efefd6de3)" d="M 57.681818 302.645455 
L 57.681818 253.227273 
L 57.681818 191.454545 
L 57.867632 191.454545 
L 57.867632 179.1 
L 58.982517 179.1 
L 58.982517 166.745455 
L 61.026474 166.745455 
L 61.026474 154.390909 
L 63.256244 154.390909 
L 63.256244 142.036364 
L 64.928571 142.036364 
L 64.928571 129.681818 
L 69.388112 129.681818 
L 69.388112 117.327273 
L 71.06044 117.327273 
L 71.06044 104.972727 
L 83.695804 104.972727 
L 83.695804 92.618182 
L 83.881618 92.618182 
L 83.881618 80.263636 
L 86.111389 80.263636 
L 86.111389 67.909091 
L 132.379121 67.909091 
L 132.379121 55.554545 
L 311.318182 55.554545 
" style="fill:none;stroke:#1f77b4;stroke-linecap:square;stroke-width:1.5;"/>
   </g>
   <g id="line2d_24">
    <path clip-path="url(#p8efefd6de3)" d="M 57.681818 302.645455 
L 57.681818 253.227273 
L 57.681818 203.809091 
L 58.049407 203.809091 
L 58.049407 154.390909 
L 59.887352 154.390909 
L 59.887352 104.972727 
L 91.5 104.972727 
L 91.5 55.554545 
L 311.318182 55.554545 
" style="fill:none;stroke:#ff7f0e;stroke-linecap:square;stroke-width:1.5;"/>
   </g>
   <g id="patch_3">
    <path d="M 45 315 
L 45 43.2 
" style="fill:none;stroke:#000000;stroke-linecap:square;stroke-linejoin:miter;stroke-width:0.8;"/>
   </g>
   <g id="patch_4">
    <path d="M 324 315 
L 324 43.2 
" style="fill:none;stroke:#000000;stroke-linecap:square;stroke-linejoin:miter;stroke-width:0.8;"/>
   </g>
   <g id="patch_5">
    <path d="M 45 315 
L 324 315 
" style="fill:none;stroke:#000000;stroke-linecap:square;stroke-linejoin:miter;stroke-width:0.8;"/>
   </g>
   <g id="patch_6">
    <path d="M 45 43.2 
L 324 43.2 
" style="fill:none;stroke:#000000;stroke-linecap:square;stroke-linejoin:miter;stroke-width:0.8;"/>
   </g>
   <g id="legend_1">
    <g id="patch_7">
     <path d="M 186.329687 310 
L 317 310 
Q 319 310 319 308 
L 319 132.8625 
Q 319 130.8625 317 130.8625 
L 186.329687 130.8625 
Q 184.329687 130.8625 184.329687 132.8625 
L 184.329687 308 
Q 184.329687 310 186.329687 310 
z
" style="fill:#ffffff;opacity:0.8;stroke:#cccccc;stroke-linejoin:miter;"/>
    </g>
    <g id="line2d_25">
     <path d="M 188.329687 138.960938 
L 208.329687 138.960938 
" style="fill:none;stroke:#1f77b4;stroke-linecap:square;stroke-width:1.5;"/>
    </g>
    <g id="line2d_26"/>
    <g id="text_13">
     <!-- antiinfective -->
     <defs>
      <path d="M 34.28125 27.484375 
Q 23.390625 27.484375 19.1875 25 
Q 14.984375 22.515625 14.984375 16.5 
Q 14.984375 11.71875 18.140625 8.90625 
Q 21.296875 6.109375 26.703125 6.109375 
Q 34.1875 6.109375 38.703125 11.40625 
Q 43.21875 16.703125 43.21875 25.484375 
L 43.21875 27.484375 
z
M 52.203125 31.203125 
L 52.203125 0 
L 43.21875 0 
L 43.21875 8.296875 
Q 40.140625 3.328125 35.546875 0.953125 
Q 30.953125 -1.421875 24.3125 -1.421875 
Q 15.921875 -1.421875 10.953125 3.296875 
Q 6 8.015625 6 15.921875 
Q 6 25.140625 12.171875 29.828125 
Q 18.359375 34.515625 30.609375 34.515625 
L 43.21875 34.515625 
L 43.21875 35.40625 
Q 43.21875 41.609375 39.140625 45 
Q 35.0625 48.390625 27.6875 48.390625 
Q 23 48.390625 18.546875 47.265625 
Q 14.109375 46.140625 10.015625 43.890625 
L 10.015625 52.203125 
Q 14.9375 54.109375 19.578125 55.046875 
Q 24.21875 56 28.609375 56 
Q 40.484375 56 46.34375 49.84375 
Q 52.203125 43.703125 52.203125 31.203125 
z
" id="DejaVuSans-97"/>
      <path d="M 54.890625 33.015625 
L 54.890625 0 
L 45.90625 0 
L 45.90625 32.71875 
Q 45.90625 40.484375 42.875 44.328125 
Q 39.84375 48.1875 33.796875 48.1875 
Q 26.515625 48.1875 22.3125 43.546875 
Q 18.109375 38.921875 18.109375 30.90625 
L 18.109375 0 
L 9.078125 0 
L 9.078125 54.6875 
L 18.109375 54.6875 
L 18.109375 46.1875 
Q 21.34375 51.125 25.703125 53.5625 
Q 30.078125 56 35.796875 56 
Q 45.21875 56 50.046875 50.171875 
Q 54.890625 44.34375 54.890625 33.015625 
z
" id="DejaVuSans-110"/>
      <path d="M 18.3125 70.21875 
L 18.3125 54.6875 
L 36.8125 54.6875 
L 36.8125 47.703125 
L 18.3125 47.703125 
L 18.3125 18.015625 
Q 18.3125 11.328125 20.140625 9.421875 
Q 21.96875 7.515625 27.59375 7.515625 
L 36.8125 7.515625 
L 36.8125 0 
L 27.59375 0 
Q 17.1875 0 13.234375 3.875 
Q 9.28125 7.765625 9.28125 18.015625 
L 9.28125 47.703125 
L 2.6875 47.703125 
L 2.6875 54.6875 
L 9.28125 54.6875 
L 9.28125 70.21875 
z
" id="DejaVuSans-116"/>
      <path d="M 9.421875 54.6875 
L 18.40625 54.6875 
L 18.40625 0 
L 9.421875 0 
z
M 9.421875 75.984375 
L 18.40625 75.984375 
L 18.40625 64.59375 
L 9.421875 64.59375 
z
" id="DejaVuSans-105"/>
      <path d="M 37.109375 75.984375 
L 37.109375 68.5 
L 28.515625 68.5 
Q 23.6875 68.5 21.796875 66.546875 
Q 19.921875 64.59375 19.921875 59.515625 
L 19.921875 54.6875 
L 34.71875 54.6875 
L 34.71875 47.703125 
L 19.921875 47.703125 
L 19.921875 0 
L 10.890625 0 
L 10.890625 47.703125 
L 2.296875 47.703125 
L 2.296875 54.6875 
L 10.890625 54.6875 
L 10.890625 58.5 
Q 10.890625 67.625 15.140625 71.796875 
Q 19.390625 75.984375 28.609375 75.984375 
z
" id="DejaVuSans-102"/>
      <path d="M 56.203125 29.59375 
L 56.203125 25.203125 
L 14.890625 25.203125 
Q 15.484375 15.921875 20.484375 11.0625 
Q 25.484375 6.203125 34.421875 6.203125 
Q 39.59375 6.203125 44.453125 7.46875 
Q 49.3125 8.734375 54.109375 11.28125 
L 54.109375 2.78125 
Q 49.265625 0.734375 44.1875 -0.34375 
Q 39.109375 -1.421875 33.890625 -1.421875 
Q 20.796875 -1.421875 13.15625 6.1875 
Q 5.515625 13.8125 5.515625 26.8125 
Q 5.515625 40.234375 12.765625 48.109375 
Q 20.015625 56 32.328125 56 
Q 43.359375 56 49.78125 48.890625 
Q 56.203125 41.796875 56.203125 29.59375 
z
M 47.21875 32.234375 
Q 47.125 39.59375 43.09375 43.984375 
Q 39.0625 48.390625 32.421875 48.390625 
Q 24.90625 48.390625 20.390625 44.140625 
Q 15.875 39.890625 15.1875 32.171875 
z
" id="DejaVuSans-101"/>
      <path d="M 48.78125 52.59375 
L 48.78125 44.1875 
Q 44.96875 46.296875 41.140625 47.34375 
Q 37.3125 48.390625 33.40625 48.390625 
Q 24.65625 48.390625 19.8125 42.84375 
Q 14.984375 37.3125 14.984375 27.296875 
Q 14.984375 17.28125 19.8125 11.734375 
Q 24.65625 6.203125 33.40625 6.203125 
Q 37.3125 6.203125 41.140625 7.25 
Q 44.96875 8.296875 48.78125 10.40625 
L 48.78125 2.09375 
Q 45.015625 0.34375 40.984375 -0.53125 
Q 36.96875 -1.421875 32.421875 -1.421875 
Q 20.0625 -1.421875 12.78125 6.34375 
Q 5.515625 14.109375 5.515625 27.296875 
Q 5.515625 40.671875 12.859375 48.328125 
Q 20.21875 56 33.015625 56 
Q 37.15625 56 41.109375 55.140625 
Q 45.0625 54.296875 48.78125 52.59375 
z
" id="DejaVuSans-99"/>
      <path d="M 2.984375 54.6875 
L 12.5 54.6875 
L 29.59375 8.796875 
L 46.6875 54.6875 
L 56.203125 54.6875 
L 35.6875 0 
L 23.484375 0 
z
" id="DejaVuSans-118"/>
     </defs>
     <g transform="translate(216.329687 142.460938)scale(0.1 -0.1)">
      <use xlink:href="#DejaVuSans-97"/>
      <use x="61.279297" xlink:href="#DejaVuSans-110"/>
      <use x="124.658203" xlink:href="#DejaVuSans-116"/>
      <use x="163.867188" xlink:href="#DejaVuSans-105"/>
      <use x="191.650391" xlink:href="#DejaVuSans-105"/>
      <use x="219.433594" xlink:href="#DejaVuSans-110"/>
      <use x="282.8125" xlink:href="#DejaVuSans-102"/>
      <use x="318.017578" xlink:href="#DejaVuSans-101"/>
      <use x="379.541016" xlink:href="#DejaVuSans-99"/>
      <use x="434.521484" xlink:href="#DejaVuSans-116"/>
      <use x="473.730469" xlink:href="#DejaVuSans-105"/>
      <use x="501.513672" xlink:href="#DejaVuSans-118"/>
      <use x="560.693359" xlink:href="#DejaVuSans-101"/>
     </g>
    </g>
    <g id="line2d_27">
     <path d="M 188.329687 153.639063 
L 208.329687 153.639063 
" style="fill:none;stroke:#ff7f0e;stroke-linecap:square;stroke-width:1.5;"/>
    </g>
    <g id="line2d_28"/>
    <g id="text_14">
     <!-- antiinflammatory -->
     <defs>
      <path d="M 9.421875 75.984375 
L 18.40625 75.984375 
L 18.40625 0 
L 9.421875 0 
z
" id="DejaVuSans-108"/>
      <path d="M 52 44.1875 
Q 55.375 50.25 60.0625 53.125 
Q 64.75 56 71.09375 56 
Q 79.640625 56 84.28125 50.015625 
Q 88.921875 44.046875 88.921875 33.015625 
L 88.921875 0 
L 79.890625 0 
L 79.890625 32.71875 
Q 79.890625 40.578125 77.09375 44.375 
Q 74.3125 48.1875 68.609375 48.1875 
Q 61.625 48.1875 57.5625 43.546875 
Q 53.515625 38.921875 53.515625 30.90625 
L 53.515625 0 
L 44.484375 0 
L 44.484375 32.71875 
Q 44.484375 40.625 41.703125 44.40625 
Q 38.921875 48.1875 33.109375 48.1875 
Q 26.21875 48.1875 22.15625 43.53125 
Q 18.109375 38.875 18.109375 30.90625 
L 18.109375 0 
L 9.078125 0 
L 9.078125 54.6875 
L 18.109375 54.6875 
L 18.109375 46.1875 
Q 21.1875 51.21875 25.484375 53.609375 
Q 29.78125 56 35.6875 56 
Q 41.65625 56 45.828125 52.96875 
Q 50 49.953125 52 44.1875 
z
" id="DejaVuSans-109"/>
      <path d="M 30.609375 48.390625 
Q 23.390625 48.390625 19.1875 42.75 
Q 14.984375 37.109375 14.984375 27.296875 
Q 14.984375 17.484375 19.15625 11.84375 
Q 23.34375 6.203125 30.609375 6.203125 
Q 37.796875 6.203125 41.984375 11.859375 
Q 46.1875 17.53125 46.1875 27.296875 
Q 46.1875 37.015625 41.984375 42.703125 
Q 37.796875 48.390625 30.609375 48.390625 
z
M 30.609375 56 
Q 42.328125 56 49.015625 48.375 
Q 55.71875 40.765625 55.71875 27.296875 
Q 55.71875 13.875 49.015625 6.21875 
Q 42.328125 -1.421875 30.609375 -1.421875 
Q 18.84375 -1.421875 12.171875 6.21875 
Q 5.515625 13.875 5.515625 27.296875 
Q 5.515625 40.765625 12.171875 48.375 
Q 18.84375 56 30.609375 56 
z
" id="DejaVuSans-111"/>
      <path d="M 41.109375 46.296875 
Q 39.59375 47.171875 37.8125 47.578125 
Q 36.03125 48 33.890625 48 
Q 26.265625 48 22.1875 43.046875 
Q 18.109375 38.09375 18.109375 28.8125 
L 18.109375 0 
L 9.078125 0 
L 9.078125 54.6875 
L 18.109375 54.6875 
L 18.109375 46.1875 
Q 20.953125 51.171875 25.484375 53.578125 
Q 30.03125 56 36.53125 56 
Q 37.453125 56 38.578125 55.875 
Q 39.703125 55.765625 41.0625 55.515625 
z
" id="DejaVuSans-114"/>
      <path d="M 32.171875 -5.078125 
Q 28.375 -14.84375 24.75 -17.8125 
Q 21.140625 -20.796875 15.09375 -20.796875 
L 7.90625 -20.796875 
L 7.90625 -13.28125 
L 13.1875 -13.28125 
Q 16.890625 -13.28125 18.9375 -11.515625 
Q 21 -9.765625 23.484375 -3.21875 
L 25.09375 0.875 
L 2.984375 54.6875 
L 12.5 54.6875 
L 29.59375 11.921875 
L 46.6875 54.6875 
L 56.203125 54.6875 
z
" id="DejaVuSans-121"/>
     </defs>
     <g transform="translate(216.329687 157.139063)scale(0.1 -0.1)">
      <use xlink:href="#DejaVuSans-97"/>
      <use x="61.279297" xlink:href="#DejaVuSans-110"/>
      <use x="124.658203" xlink:href="#DejaVuSans-116"/>
      <use x="163.867188" xlink:href="#DejaVuSans-105"/>
      <use x="191.650391" xlink:href="#DejaVuSans-105"/>
      <use x="219.433594" xlink:href="#DejaVuSans-110"/>
      <use x="282.8125" xlink:href="#DejaVuSans-102"/>
      <use x="318.017578" xlink:href="#DejaVuSans-108"/>
      <use x="345.800781" xlink:href="#DejaVuSans-97"/>
      <use x="407.080078" xlink:href="#DejaVuSans-109"/>
      <use x="504.492188" xlink:href="#DejaVuSans-109"/>
      <use x="601.904297" xlink:href="#DejaVuSans-97"/>
      <use x="663.183594" xlink:href="#DejaVuSans-116"/>
      <use x="702.392578" xlink:href="#DejaVuSans-111"/>
      <use x="763.574219" xlink:href="#DejaVuSans-114"/>
      <use x="804.6875" xlink:href="#DejaVuSans-121"/>
     </g>
    </g>
    <g id="line2d_29">
     <path d="M 188.329687 168.317188 
L 208.329687 168.317188 
" style="fill:none;stroke:#2ca02c;stroke-linecap:square;stroke-width:1.5;"/>
    </g>
    <g id="line2d_30"/>
    <g id="text_15">
     <!-- antineoplastic -->
     <defs>
      <path d="M 18.109375 8.203125 
L 18.109375 -20.796875 
L 9.078125 -20.796875 
L 9.078125 54.6875 
L 18.109375 54.6875 
L 18.109375 46.390625 
Q 20.953125 51.265625 25.265625 53.625 
Q 29.59375 56 35.59375 56 
Q 45.5625 56 51.78125 48.09375 
Q 58.015625 40.1875 58.015625 27.296875 
Q 58.015625 14.40625 51.78125 6.484375 
Q 45.5625 -1.421875 35.59375 -1.421875 
Q 29.59375 -1.421875 25.265625 0.953125 
Q 20.953125 3.328125 18.109375 8.203125 
z
M 48.6875 27.296875 
Q 48.6875 37.203125 44.609375 42.84375 
Q 40.53125 48.484375 33.40625 48.484375 
Q 26.265625 48.484375 22.1875 42.84375 
Q 18.109375 37.203125 18.109375 27.296875 
Q 18.109375 17.390625 22.1875 11.75 
Q 26.265625 6.109375 33.40625 6.109375 
Q 40.53125 6.109375 44.609375 11.75 
Q 48.6875 17.390625 48.6875 27.296875 
z
" id="DejaVuSans-112"/>
      <path d="M 44.28125 53.078125 
L 44.28125 44.578125 
Q 40.484375 46.53125 36.375 47.5 
Q 32.28125 48.484375 27.875 48.484375 
Q 21.1875 48.484375 17.84375 46.4375 
Q 14.5 44.390625 14.5 40.28125 
Q 14.5 37.15625 16.890625 35.375 
Q 19.28125 33.59375 26.515625 31.984375 
L 29.59375 31.296875 
Q 39.15625 29.25 43.1875 25.515625 
Q 47.21875 21.78125 47.21875 15.09375 
Q 47.21875 7.46875 41.1875 3.015625 
Q 35.15625 -1.421875 24.609375 -1.421875 
Q 20.21875 -1.421875 15.453125 -0.5625 
Q 10.6875 0.296875 5.421875 2 
L 5.421875 11.28125 
Q 10.40625 8.6875 15.234375 7.390625 
Q 20.0625 6.109375 24.8125 6.109375 
Q 31.15625 6.109375 34.5625 8.28125 
Q 37.984375 10.453125 37.984375 14.40625 
Q 37.984375 18.0625 35.515625 20.015625 
Q 33.0625 21.96875 24.703125 23.78125 
L 21.578125 24.515625 
Q 13.234375 26.265625 9.515625 29.90625 
Q 5.8125 33.546875 5.8125 39.890625 
Q 5.8125 47.609375 11.28125 51.796875 
Q 16.75 56 26.8125 56 
Q 31.78125 56 36.171875 55.265625 
Q 40.578125 54.546875 44.28125 53.078125 
z
" id="DejaVuSans-115"/>
     </defs>
     <g transform="translate(216.329687 171.817188)scale(0.1 -0.1)">
      <use xlink:href="#DejaVuSans-97"/>
      <use x="61.279297" xlink:href="#DejaVuSans-110"/>
      <use x="124.658203" xlink:href="#DejaVuSans-116"/>
      <use x="163.867188" xlink:href="#DejaVuSans-105"/>
      <use x="191.650391" xlink:href="#DejaVuSans-110"/>
      <use x="255.029297" xlink:href="#DejaVuSans-101"/>
      <use x="316.552734" xlink:href="#DejaVuSans-111"/>
      <use x="377.734375" xlink:href="#DejaVuSans-112"/>
      <use x="441.210938" xlink:href="#DejaVuSans-108"/>
      <use x="468.994141" xlink:href="#DejaVuSans-97"/>
      <use x="530.273438" xlink:href="#DejaVuSans-115"/>
      <use x="582.373047" xlink:href="#DejaVuSans-116"/>
      <use x="621.582031" xlink:href="#DejaVuSans-105"/>
      <use x="649.365234" xlink:href="#DejaVuSans-99"/>
     </g>
    </g>
    <g id="line2d_31">
     <path d="M 188.329687 182.995313 
L 208.329687 182.995313 
" style="fill:none;stroke:#d62728;stroke-linecap:square;stroke-width:1.5;"/>
    </g>
    <g id="line2d_32"/>
    <g id="text_16">
     <!-- cardio -->
     <defs>
      <path d="M 45.40625 46.390625 
L 45.40625 75.984375 
L 54.390625 75.984375 
L 54.390625 0 
L 45.40625 0 
L 45.40625 8.203125 
Q 42.578125 3.328125 38.25 0.953125 
Q 33.9375 -1.421875 27.875 -1.421875 
Q 17.96875 -1.421875 11.734375 6.484375 
Q 5.515625 14.40625 5.515625 27.296875 
Q 5.515625 40.1875 11.734375 48.09375 
Q 17.96875 56 27.875 56 
Q 33.9375 56 38.25 53.625 
Q 42.578125 51.265625 45.40625 46.390625 
z
M 14.796875 27.296875 
Q 14.796875 17.390625 18.875 11.75 
Q 22.953125 6.109375 30.078125 6.109375 
Q 37.203125 6.109375 41.296875 11.75 
Q 45.40625 17.390625 45.40625 27.296875 
Q 45.40625 37.203125 41.296875 42.84375 
Q 37.203125 48.484375 30.078125 48.484375 
Q 22.953125 48.484375 18.875 42.84375 
Q 14.796875 37.203125 14.796875 27.296875 
z
" id="DejaVuSans-100"/>
     </defs>
     <g transform="translate(216.329687 186.495313)scale(0.1 -0.1)">
      <use xlink:href="#DejaVuSans-99"/>
      <use x="54.980469" xlink:href="#DejaVuSans-97"/>
      <use x="116.259766" xlink:href="#DejaVuSans-114"/>
      <use x="157.357422" xlink:href="#DejaVuSans-100"/>
      <use x="220.833984" xlink:href="#DejaVuSans-105"/>
      <use x="248.617188" xlink:href="#DejaVuSans-111"/>
     </g>
    </g>
    <g id="line2d_33">
     <path d="M 188.329687 197.673438 
L 208.329687 197.673438 
" style="fill:none;stroke:#9467bd;stroke-linecap:square;stroke-width:1.5;"/>
    </g>
    <g id="line2d_34"/>
    <g id="text_17">
     <!-- cns -->
     <g transform="translate(216.329687 201.173438)scale(0.1 -0.1)">
      <use xlink:href="#DejaVuSans-99"/>
      <use x="54.980469" xlink:href="#DejaVuSans-110"/>
      <use x="118.359375" xlink:href="#DejaVuSans-115"/>
     </g>
    </g>
    <g id="line2d_35">
     <path d="M 188.329687 212.351563 
L 208.329687 212.351563 
" style="fill:none;stroke:#8c564b;stroke-linecap:square;stroke-width:1.5;"/>
    </g>
    <g id="line2d_36"/>
    <g id="text_18">
     <!-- dermatologic -->
     <defs>
      <path d="M 45.40625 27.984375 
Q 45.40625 37.75 41.375 43.109375 
Q 37.359375 48.484375 30.078125 48.484375 
Q 22.859375 48.484375 18.828125 43.109375 
Q 14.796875 37.75 14.796875 27.984375 
Q 14.796875 18.265625 18.828125 12.890625 
Q 22.859375 7.515625 30.078125 7.515625 
Q 37.359375 7.515625 41.375 12.890625 
Q 45.40625 18.265625 45.40625 27.984375 
z
M 54.390625 6.78125 
Q 54.390625 -7.171875 48.1875 -13.984375 
Q 42 -20.796875 29.203125 -20.796875 
Q 24.46875 -20.796875 20.265625 -20.09375 
Q 16.0625 -19.390625 12.109375 -17.921875 
L 12.109375 -9.1875 
Q 16.0625 -11.328125 19.921875 -12.34375 
Q 23.78125 -13.375 27.78125 -13.375 
Q 36.625 -13.375 41.015625 -8.765625 
Q 45.40625 -4.15625 45.40625 5.171875 
L 45.40625 9.625 
Q 42.625 4.78125 38.28125 2.390625 
Q 33.9375 0 27.875 0 
Q 17.828125 0 11.671875 7.65625 
Q 5.515625 15.328125 5.515625 27.984375 
Q 5.515625 40.671875 11.671875 48.328125 
Q 17.828125 56 27.875 56 
Q 33.9375 56 38.28125 53.609375 
Q 42.625 51.21875 45.40625 46.390625 
L 45.40625 54.6875 
L 54.390625 54.6875 
z
" id="DejaVuSans-103"/>
     </defs>
     <g transform="translate(216.329687 215.851563)scale(0.1 -0.1)">
      <use xlink:href="#DejaVuSans-100"/>
      <use x="63.476562" xlink:href="#DejaVuSans-101"/>
      <use x="125" xlink:href="#DejaVuSans-114"/>
      <use x="166.097656" xlink:href="#DejaVuSans-109"/>
      <use x="263.509766" xlink:href="#DejaVuSans-97"/>
      <use x="324.789062" xlink:href="#DejaVuSans-116"/>
      <use x="363.998047" xlink:href="#DejaVuSans-111"/>
      <use x="425.179688" xlink:href="#DejaVuSans-108"/>
      <use x="452.962891" xlink:href="#DejaVuSans-111"/>
      <use x="514.144531" xlink:href="#DejaVuSans-103"/>
      <use x="577.621094" xlink:href="#DejaVuSans-105"/>
      <use x="605.404297" xlink:href="#DejaVuSans-99"/>
     </g>
    </g>
    <g id="line2d_37">
     <path d="M 188.329687 227.029688 
L 208.329687 227.029688 
" style="fill:none;stroke:#e377c2;stroke-linecap:square;stroke-width:1.5;"/>
    </g>
    <g id="line2d_38"/>
    <g id="text_19">
     <!-- gastrointestinal -->
     <g transform="translate(216.329687 230.529688)scale(0.1 -0.1)">
      <use xlink:href="#DejaVuSans-103"/>
      <use x="63.476562" xlink:href="#DejaVuSans-97"/>
      <use x="124.755859" xlink:href="#DejaVuSans-115"/>
      <use x="176.855469" xlink:href="#DejaVuSans-116"/>
      <use x="216.064453" xlink:href="#DejaVuSans-114"/>
      <use x="257.146484" xlink:href="#DejaVuSans-111"/>
      <use x="318.328125" xlink:href="#DejaVuSans-105"/>
      <use x="346.111328" xlink:href="#DejaVuSans-110"/>
      <use x="409.490234" xlink:href="#DejaVuSans-116"/>
      <use x="448.699219" xlink:href="#DejaVuSans-101"/>
      <use x="510.222656" xlink:href="#DejaVuSans-115"/>
      <use x="562.322266" xlink:href="#DejaVuSans-116"/>
      <use x="601.53125" xlink:href="#DejaVuSans-105"/>
      <use x="629.314453" xlink:href="#DejaVuSans-110"/>
      <use x="692.693359" xlink:href="#DejaVuSans-97"/>
      <use x="753.972656" xlink:href="#DejaVuSans-108"/>
     </g>
    </g>
    <g id="line2d_39">
     <path d="M 188.329687 241.707813 
L 208.329687 241.707813 
" style="fill:none;stroke:#7f7f7f;stroke-linecap:square;stroke-width:1.5;"/>
    </g>
    <g id="line2d_40"/>
    <g id="text_20">
     <!-- hematologic -->
     <defs>
      <path d="M 54.890625 33.015625 
L 54.890625 0 
L 45.90625 0 
L 45.90625 32.71875 
Q 45.90625 40.484375 42.875 44.328125 
Q 39.84375 48.1875 33.796875 48.1875 
Q 26.515625 48.1875 22.3125 43.546875 
Q 18.109375 38.921875 18.109375 30.90625 
L 18.109375 0 
L 9.078125 0 
L 9.078125 75.984375 
L 18.109375 75.984375 
L 18.109375 46.1875 
Q 21.34375 51.125 25.703125 53.5625 
Q 30.078125 56 35.796875 56 
Q 45.21875 56 50.046875 50.171875 
Q 54.890625 44.34375 54.890625 33.015625 
z
" id="DejaVuSans-104"/>
     </defs>
     <g transform="translate(216.329687 245.207813)scale(0.1 -0.1)">
      <use xlink:href="#DejaVuSans-104"/>
      <use x="63.378906" xlink:href="#DejaVuSans-101"/>
      <use x="124.902344" xlink:href="#DejaVuSans-109"/>
      <use x="222.314453" xlink:href="#DejaVuSans-97"/>
      <use x="283.59375" xlink:href="#DejaVuSans-116"/>
      <use x="322.802734" xlink:href="#DejaVuSans-111"/>
      <use x="383.984375" xlink:href="#DejaVuSans-108"/>
      <use x="411.767578" xlink:href="#DejaVuSans-111"/>
      <use x="472.949219" xlink:href="#DejaVuSans-103"/>
      <use x="536.425781" xlink:href="#DejaVuSans-105"/>
      <use x="564.208984" xlink:href="#DejaVuSans-99"/>
     </g>
    </g>
    <g id="line2d_41">
     <path d="M 188.329687 256.385938 
L 208.329687 256.385938 
" style="fill:none;stroke:#bcbd22;stroke-linecap:square;stroke-width:1.5;"/>
    </g>
    <g id="line2d_42"/>
    <g id="text_21">
     <!-- lipidregulating -->
     <defs>
      <path d="M 8.5 21.578125 
L 8.5 54.6875 
L 17.484375 54.6875 
L 17.484375 21.921875 
Q 17.484375 14.15625 20.5 10.265625 
Q 23.53125 6.390625 29.59375 6.390625 
Q 36.859375 6.390625 41.078125 11.03125 
Q 45.3125 15.671875 45.3125 23.6875 
L 45.3125 54.6875 
L 54.296875 54.6875 
L 54.296875 0 
L 45.3125 0 
L 45.3125 8.40625 
Q 42.046875 3.421875 37.71875 1 
Q 33.40625 -1.421875 27.6875 -1.421875 
Q 18.265625 -1.421875 13.375 4.4375 
Q 8.5 10.296875 8.5 21.578125 
z
M 31.109375 56 
z
" id="DejaVuSans-117"/>
     </defs>
     <g transform="translate(216.329687 259.885938)scale(0.1 -0.1)">
      <use xlink:href="#DejaVuSans-108"/>
      <use x="27.783203" xlink:href="#DejaVuSans-105"/>
      <use x="55.566406" xlink:href="#DejaVuSans-112"/>
      <use x="119.042969" xlink:href="#DejaVuSans-105"/>
      <use x="146.826172" xlink:href="#DejaVuSans-100"/>
      <use x="210.302734" xlink:href="#DejaVuSans-114"/>
      <use x="251.384766" xlink:href="#DejaVuSans-101"/>
      <use x="312.908203" xlink:href="#DejaVuSans-103"/>
      <use x="376.384766" xlink:href="#DejaVuSans-117"/>
      <use x="439.763672" xlink:href="#DejaVuSans-108"/>
      <use x="467.546875" xlink:href="#DejaVuSans-97"/>
      <use x="528.826172" xlink:href="#DejaVuSans-116"/>
      <use x="568.035156" xlink:href="#DejaVuSans-105"/>
      <use x="595.818359" xlink:href="#DejaVuSans-110"/>
      <use x="659.197266" xlink:href="#DejaVuSans-103"/>
     </g>
    </g>
    <g id="line2d_43">
     <path d="M 188.329687 271.064062 
L 208.329687 271.064062 
" style="fill:none;stroke:#17becf;stroke-linecap:square;stroke-width:1.5;"/>
    </g>
    <g id="line2d_44"/>
    <g id="text_22">
     <!-- reproductivecontrol -->
     <g transform="translate(216.329687 274.564062)scale(0.1 -0.1)">
      <use xlink:href="#DejaVuSans-114"/>
      <use x="41.082031" xlink:href="#DejaVuSans-101"/>
      <use x="102.605469" xlink:href="#DejaVuSans-112"/>
      <use x="166.082031" xlink:href="#DejaVuSans-114"/>
      <use x="207.164062" xlink:href="#DejaVuSans-111"/>
      <use x="268.345703" xlink:href="#DejaVuSans-100"/>
      <use x="331.822266" xlink:href="#DejaVuSans-117"/>
      <use x="395.201172" xlink:href="#DejaVuSans-99"/>
      <use x="450.181641" xlink:href="#DejaVuSans-116"/>
      <use x="489.390625" xlink:href="#DejaVuSans-105"/>
      <use x="517.173828" xlink:href="#DejaVuSans-118"/>
      <use x="576.353516" xlink:href="#DejaVuSans-101"/>
      <use x="637.876953" xlink:href="#DejaVuSans-99"/>
      <use x="692.857422" xlink:href="#DejaVuSans-111"/>
      <use x="754.039062" xlink:href="#DejaVuSans-110"/>
      <use x="817.417969" xlink:href="#DejaVuSans-116"/>
      <use x="856.626953" xlink:href="#DejaVuSans-114"/>
      <use x="897.708984" xlink:href="#DejaVuSans-111"/>
      <use x="958.890625" xlink:href="#DejaVuSans-108"/>
     </g>
    </g>
    <g id="line2d_45">
     <path d="M 188.329687 285.742188 
L 208.329687 285.742188 
" style="fill:none;stroke:#1f77b4;stroke-linecap:square;stroke-width:1.5;"/>
    </g>
    <g id="line2d_46"/>
    <g id="text_23">
     <!-- respiratorysystem -->
     <g transform="translate(216.329687 289.242188)scale(0.1 -0.1)">
      <use xlink:href="#DejaVuSans-114"/>
      <use x="41.082031" xlink:href="#DejaVuSans-101"/>
      <use x="102.605469" xlink:href="#DejaVuSans-115"/>
      <use x="154.705078" xlink:href="#DejaVuSans-112"/>
      <use x="218.181641" xlink:href="#DejaVuSans-105"/>
      <use x="245.964844" xlink:href="#DejaVuSans-114"/>
      <use x="287.078125" xlink:href="#DejaVuSans-97"/>
      <use x="348.357422" xlink:href="#DejaVuSans-116"/>
      <use x="387.566406" xlink:href="#DejaVuSans-111"/>
      <use x="448.748047" xlink:href="#DejaVuSans-114"/>
      <use x="489.861328" xlink:href="#DejaVuSans-121"/>
      <use x="549.041016" xlink:href="#DejaVuSans-115"/>
      <use x="601.140625" xlink:href="#DejaVuSans-121"/>
      <use x="660.320312" xlink:href="#DejaVuSans-115"/>
      <use x="712.419922" xlink:href="#DejaVuSans-116"/>
      <use x="751.628906" xlink:href="#DejaVuSans-101"/>
      <use x="813.152344" xlink:href="#DejaVuSans-109"/>
     </g>
    </g>
    <g id="line2d_47">
     <path d="M 188.329687 300.420313 
L 208.329687 300.420313 
" style="fill:none;stroke:#ff7f0e;stroke-linecap:square;stroke-width:1.5;"/>
    </g>
    <g id="line2d_48"/>
    <g id="text_24">
     <!-- urological -->
     <g transform="translate(216.329687 303.920313)scale(0.1 -0.1)">
      <use xlink:href="#DejaVuSans-117"/>
      <use x="63.378906" xlink:href="#DejaVuSans-114"/>
      <use x="104.460938" xlink:href="#DejaVuSans-111"/>
      <use x="165.642578" xlink:href="#DejaVuSans-108"/>
      <use x="193.425781" xlink:href="#DejaVuSans-111"/>
      <use x="254.607422" xlink:href="#DejaVuSans-103"/>
      <use x="318.083984" xlink:href="#DejaVuSans-105"/>
      <use x="345.867188" xlink:href="#DejaVuSans-99"/>
      <use x="400.847656" xlink:href="#DejaVuSans-97"/>
      <use x="462.126953" xlink:href="#DejaVuSans-108"/>
     </g>
    </g>
   </g>
  </g>
 </g>
 <defs>
  <clipPath id="p8efefd6de3">
   <rect height="271.8" width="279" x="45" y="43.2"/>
  </clipPath>
 </defs>
</svg>
