<?xml version="1.0" encoding="utf-8" standalone="no"?>
<!DOCTYPE svg PUBLIC "-//W3C//DTD SVG 1.1//EN"
  "http://www.w3.org/Graphics/SVG/1.1/DTD/svg11.dtd">
<!-- Created with matplotlib (https://matplotlib.org/) -->
<svg height="360pt" version="1.1" viewBox="0 0 360 360" width="360pt" xmlns="http://www.w3.org/2000/svg" xmlns:xlink="http://www.w3.org/1999/xlink">
 <defs>
  <style type="text/css">
*{stroke-linecap:butt;stroke-linejoin:round;}
  </style>
 </defs>
 <g id="figure_1">
  <g id="patch_1">
   <path d="M 0 360 
L 360 360 
L 360 0 
L 0 0 
z
" style="fill:#ffffff;"/>
  </g>
  <g id="axes_1">
   <g id="patch_2">
    <path d="M 45 315 
L 324 315 
L 324 43.2 
L 45 43.2 
z
" style="fill:#ffffff;"/>
   </g>
   <g id="matplotlib.axis_1">
    <g id="xtick_1">
     <g id="line2d_1">
      <defs>
       <path d="M 0 0 
L 0 3.5 
" id="mb05820cc3f" style="stroke:#000000;stroke-width:0.8;"/>
      </defs>
      <g>
       <use style="stroke:#000000;stroke-width:0.8;" x="57.681818" xlink:href="#mb05820cc3f" y="315"/>
      </g>
     </g>
     <g id="text_1">
      <!-- 0.0 -->
      <defs>
       <path d="M 31.78125 66.40625 
Q 24.171875 66.40625 20.328125 58.90625 
Q 16.5 51.421875 16.5 36.375 
Q 16.5 21.390625 20.328125 13.890625 
Q 24.171875 6.390625 31.78125 6.390625 
Q 39.453125 6.390625 43.28125 13.890625 
Q 47.125 21.390625 47.125 36.375 
Q 47.125 51.421875 43.28125 58.90625 
Q 39.453125 66.40625 31.78125 66.40625 
z
M 31.78125 74.21875 
Q 44.046875 74.21875 50.515625 64.515625 
Q 56.984375 54.828125 56.984375 36.375 
Q 56.984375 17.96875 50.515625 8.265625 
Q 44.046875 -1.421875 31.78125 -1.421875 
Q 19.53125 -1.421875 13.0625 8.265625 
Q 6.59375 17.96875 6.59375 36.375 
Q 6.59375 54.828125 13.0625 64.515625 
Q 19.53125 74.21875 31.78125 74.21875 
z
" id="DejaVuSans-48"/>
       <path d="M 10.6875 12.40625 
L 21 12.40625 
L 21 0 
L 10.6875 0 
z
" id="DejaVuSans-46"/>
      </defs>
      <g transform="translate(49.730256 329.598437)scale(0.1 -0.1)">
       <use xlink:href="#DejaVuSans-48"/>
       <use x="63.623047" xlink:href="#DejaVuSans-46"/>
       <use x="95.410156" xlink:href="#DejaVuSans-48"/>
      </g>
     </g>
    </g>
    <g id="xtick_2">
     <g id="line2d_2">
      <g>
       <use style="stroke:#000000;stroke-width:0.8;" x="108.409091" xlink:href="#mb05820cc3f" y="315"/>
      </g>
     </g>
     <g id="text_2">
      <!-- 0.2 -->
      <defs>
       <path d="M 19.1875 8.296875 
L 53.609375 8.296875 
L 53.609375 0 
L 7.328125 0 
L 7.328125 8.296875 
Q 12.9375 14.109375 22.625 23.890625 
Q 32.328125 33.6875 34.8125 36.53125 
Q 39.546875 41.84375 41.421875 45.53125 
Q 43.3125 49.21875 43.3125 52.78125 
Q 43.3125 58.59375 39.234375 62.25 
Q 35.15625 65.921875 28.609375 65.921875 
Q 23.96875 65.921875 18.8125 64.3125 
Q 13.671875 62.703125 7.8125 59.421875 
L 7.8125 69.390625 
Q 13.765625 71.78125 18.9375 73 
Q 24.125 74.21875 28.421875 74.21875 
Q 39.75 74.21875 46.484375 68.546875 
Q 53.21875 62.890625 53.21875 53.421875 
Q 53.21875 48.921875 51.53125 44.890625 
Q 49.859375 40.875 45.40625 35.40625 
Q 44.1875 33.984375 37.640625 27.21875 
Q 31.109375 20.453125 19.1875 8.296875 
z
" id="DejaVuSans-50"/>
      </defs>
      <g transform="translate(100.457528 329.598437)scale(0.1 -0.1)">
       <use xlink:href="#DejaVuSans-48"/>
       <use x="63.623047" xlink:href="#DejaVuSans-46"/>
       <use x="95.410156" xlink:href="#DejaVuSans-50"/>
      </g>
     </g>
    </g>
    <g id="xtick_3">
     <g id="line2d_3">
      <g>
       <use style="stroke:#000000;stroke-width:0.8;" x="159.136364" xlink:href="#mb05820cc3f" y="315"/>
      </g>
     </g>
     <g id="text_3">
      <!-- 0.4 -->
      <defs>
       <path d="M 37.796875 64.3125 
L 12.890625 25.390625 
L 37.796875 25.390625 
z
M 35.203125 72.90625 
L 47.609375 72.90625 
L 47.609375 25.390625 
L 58.015625 25.390625 
L 58.015625 17.1875 
L 47.609375 17.1875 
L 47.609375 0 
L 37.796875 0 
L 37.796875 17.1875 
L 4.890625 17.1875 
L 4.890625 26.703125 
z
" id="DejaVuSans-52"/>
      </defs>
      <g transform="translate(151.184801 329.598437)scale(0.1 -0.1)">
       <use xlink:href="#DejaVuSans-48"/>
       <use x="63.623047" xlink:href="#DejaVuSans-46"/>
       <use x="95.410156" xlink:href="#DejaVuSans-52"/>
      </g>
     </g>
    </g>
    <g id="xtick_4">
     <g id="line2d_4">
      <g>
       <use style="stroke:#000000;stroke-width:0.8;" x="209.863636" xlink:href="#mb05820cc3f" y="315"/>
      </g>
     </g>
     <g id="text_4">
      <!-- 0.6 -->
      <defs>
       <path d="M 33.015625 40.375 
Q 26.375 40.375 22.484375 35.828125 
Q 18.609375 31.296875 18.609375 23.390625 
Q 18.609375 15.53125 22.484375 10.953125 
Q 26.375 6.390625 33.015625 6.390625 
Q 39.65625 6.390625 43.53125 10.953125 
Q 47.40625 15.53125 47.40625 23.390625 
Q 47.40625 31.296875 43.53125 35.828125 
Q 39.65625 40.375 33.015625 40.375 
z
M 52.59375 71.296875 
L 52.59375 62.3125 
Q 48.875 64.0625 45.09375 64.984375 
Q 41.3125 65.921875 37.59375 65.921875 
Q 27.828125 65.921875 22.671875 59.328125 
Q 17.53125 52.734375 16.796875 39.40625 
Q 19.671875 43.65625 24.015625 45.921875 
Q 28.375 48.1875 33.59375 48.1875 
Q 44.578125 48.1875 50.953125 41.515625 
Q 57.328125 34.859375 57.328125 23.390625 
Q 57.328125 12.15625 50.6875 5.359375 
Q 44.046875 -1.421875 33.015625 -1.421875 
Q 20.359375 -1.421875 13.671875 8.265625 
Q 6.984375 17.96875 6.984375 36.375 
Q 6.984375 53.65625 15.1875 63.9375 
Q 23.390625 74.21875 37.203125 74.21875 
Q 40.921875 74.21875 44.703125 73.484375 
Q 48.484375 72.75 52.59375 71.296875 
z
" id="DejaVuSans-54"/>
      </defs>
      <g transform="translate(201.912074 329.598437)scale(0.1 -0.1)">
       <use xlink:href="#DejaVuSans-48"/>
       <use x="63.623047" xlink:href="#DejaVuSans-46"/>
       <use x="95.410156" xlink:href="#DejaVuSans-54"/>
      </g>
     </g>
    </g>
    <g id="xtick_5">
     <g id="line2d_5">
      <g>
       <use style="stroke:#000000;stroke-width:0.8;" x="260.590909" xlink:href="#mb05820cc3f" y="315"/>
      </g>
     </g>
     <g id="text_5">
      <!-- 0.8 -->
      <defs>
       <path d="M 31.78125 34.625 
Q 24.75 34.625 20.71875 30.859375 
Q 16.703125 27.09375 16.703125 20.515625 
Q 16.703125 13.921875 20.71875 10.15625 
Q 24.75 6.390625 31.78125 6.390625 
Q 38.8125 6.390625 42.859375 10.171875 
Q 46.921875 13.96875 46.921875 20.515625 
Q 46.921875 27.09375 42.890625 30.859375 
Q 38.875 34.625 31.78125 34.625 
z
M 21.921875 38.8125 
Q 15.578125 40.375 12.03125 44.71875 
Q 8.5 49.078125 8.5 55.328125 
Q 8.5 64.0625 14.71875 69.140625 
Q 20.953125 74.21875 31.78125 74.21875 
Q 42.671875 74.21875 48.875 69.140625 
Q 55.078125 64.0625 55.078125 55.328125 
Q 55.078125 49.078125 51.53125 44.71875 
Q 48 40.375 41.703125 38.8125 
Q 48.828125 37.15625 52.796875 32.3125 
Q 56.78125 27.484375 56.78125 20.515625 
Q 56.78125 9.90625 50.3125 4.234375 
Q 43.84375 -1.421875 31.78125 -1.421875 
Q 19.734375 -1.421875 13.25 4.234375 
Q 6.78125 9.90625 6.78125 20.515625 
Q 6.78125 27.484375 10.78125 32.3125 
Q 14.796875 37.15625 21.921875 38.8125 
z
M 18.3125 54.390625 
Q 18.3125 48.734375 21.84375 45.5625 
Q 25.390625 42.390625 31.78125 42.390625 
Q 38.140625 42.390625 41.71875 45.5625 
Q 45.3125 48.734375 45.3125 54.390625 
Q 45.3125 60.0625 41.71875 63.234375 
Q 38.140625 66.40625 31.78125 66.40625 
Q 25.390625 66.40625 21.84375 63.234375 
Q 18.3125 60.0625 18.3125 54.390625 
z
" id="DejaVuSans-56"/>
      </defs>
      <g transform="translate(252.639347 329.598437)scale(0.1 -0.1)">
       <use xlink:href="#DejaVuSans-48"/>
       <use x="63.623047" xlink:href="#DejaVuSans-46"/>
       <use x="95.410156" xlink:href="#DejaVuSans-56"/>
      </g>
     </g>
    </g>
    <g id="xtick_6">
     <g id="line2d_6">
      <g>
       <use style="stroke:#000000;stroke-width:0.8;" x="311.318182" xlink:href="#mb05820cc3f" y="315"/>
      </g>
     </g>
     <g id="text_6">
      <!-- 1.0 -->
      <defs>
       <path d="M 12.40625 8.296875 
L 28.515625 8.296875 
L 28.515625 63.921875 
L 10.984375 60.40625 
L 10.984375 69.390625 
L 28.421875 72.90625 
L 38.28125 72.90625 
L 38.28125 8.296875 
L 54.390625 8.296875 
L 54.390625 0 
L 12.40625 0 
z
" id="DejaVuSans-49"/>
      </defs>
      <g transform="translate(303.366619 329.598437)scale(0.1 -0.1)">
       <use xlink:href="#DejaVuSans-49"/>
       <use x="63.623047" xlink:href="#DejaVuSans-46"/>
       <use x="95.410156" xlink:href="#DejaVuSans-48"/>
      </g>
     </g>
    </g>
   </g>
   <g id="matplotlib.axis_2">
    <g id="ytick_1">
     <g id="line2d_7">
      <defs>
       <path d="M 0 0 
L -3.5 0 
" id="m8e35158a93" style="stroke:#000000;stroke-width:0.8;"/>
      </defs>
      <g>
       <use style="stroke:#000000;stroke-width:0.8;" x="45" xlink:href="#m8e35158a93" y="302.645455"/>
      </g>
     </g>
     <g id="text_7">
      <!-- 0.0 -->
      <g transform="translate(22.096875 306.444673)scale(0.1 -0.1)">
       <use xlink:href="#DejaVuSans-48"/>
       <use x="63.623047" xlink:href="#DejaVuSans-46"/>
       <use x="95.410156" xlink:href="#DejaVuSans-48"/>
      </g>
     </g>
    </g>
    <g id="ytick_2">
     <g id="line2d_8">
      <g>
       <use style="stroke:#000000;stroke-width:0.8;" x="45" xlink:href="#m8e35158a93" y="253.227273"/>
      </g>
     </g>
     <g id="text_8">
      <!-- 0.2 -->
      <g transform="translate(22.096875 257.026491)scale(0.1 -0.1)">
       <use xlink:href="#DejaVuSans-48"/>
       <use x="63.623047" xlink:href="#DejaVuSans-46"/>
       <use x="95.410156" xlink:href="#DejaVuSans-50"/>
      </g>
     </g>
    </g>
    <g id="ytick_3">
     <g id="line2d_9">
      <g>
       <use style="stroke:#000000;stroke-width:0.8;" x="45" xlink:href="#m8e35158a93" y="203.809091"/>
      </g>
     </g>
     <g id="text_9">
      <!-- 0.4 -->
      <g transform="translate(22.096875 207.60831)scale(0.1 -0.1)">
       <use xlink:href="#DejaVuSans-48"/>
       <use x="63.623047" xlink:href="#DejaVuSans-46"/>
       <use x="95.410156" xlink:href="#DejaVuSans-52"/>
      </g>
     </g>
    </g>
    <g id="ytick_4">
     <g id="line2d_10">
      <g>
       <use style="stroke:#000000;stroke-width:0.8;" x="45" xlink:href="#m8e35158a93" y="154.390909"/>
      </g>
     </g>
     <g id="text_10">
      <!-- 0.6 -->
      <g transform="translate(22.096875 158.190128)scale(0.1 -0.1)">
       <use xlink:href="#DejaVuSans-48"/>
       <use x="63.623047" xlink:href="#DejaVuSans-46"/>
       <use x="95.410156" xlink:href="#DejaVuSans-54"/>
      </g>
     </g>
    </g>
    <g id="ytick_5">
     <g id="line2d_11">
      <g>
       <use style="stroke:#000000;stroke-width:0.8;" x="45" xlink:href="#m8e35158a93" y="104.972727"/>
      </g>
     </g>
     <g id="text_11">
      <!-- 0.8 -->
      <g transform="translate(22.096875 108.771946)scale(0.1 -0.1)">
       <use xlink:href="#DejaVuSans-48"/>
       <use x="63.623047" xlink:href="#DejaVuSans-46"/>
       <use x="95.410156" xlink:href="#DejaVuSans-56"/>
      </g>
     </g>
    </g>
    <g id="ytick_6">
     <g id="line2d_12">
      <g>
       <use style="stroke:#000000;stroke-width:0.8;" x="45" xlink:href="#m8e35158a93" y="55.554545"/>
      </g>
     </g>
     <g id="text_12">
      <!-- 1.0 -->
      <g transform="translate(22.096875 59.353764)scale(0.1 -0.1)">
       <use xlink:href="#DejaVuSans-49"/>
       <use x="63.623047" xlink:href="#DejaVuSans-46"/>
       <use x="95.410156" xlink:href="#DejaVuSans-48"/>
      </g>
     </g>
    </g>
   </g>
   <g id="line2d_13">
    <path clip-path="url(#p370c49cbfa)" d="M 57.681818 302.645455 
L 57.681818 229.91097 
L 58.06038 229.395122 
L 58.06038 133.447504 
L 58.817503 133.447504 
L 58.817503 128.804878 
L 59.196065 128.804878 
L 59.196065 127.257335 
L 59.574627 127.257335 
L 59.574627 119.003777 
L 59.953189 119.003777 
L 59.953189 114.36115 
L 60.33175 114.36115 
L 60.33175 111.266066 
L 61.088874 111.266066 
L 61.088874 110.234371 
L 61.467436 110.234371 
L 61.467436 106.623439 
L 62.224559 106.623439 
L 62.224559 106.107592 
L 62.603121 106.107592 
L 62.603121 104.044202 
L 62.981682 104.044202 
L 62.981682 102.49666 
L 63.360244 102.49666 
L 63.360244 101.980812 
L 63.738806 101.980812 
L 63.738806 100.949117 
L 64.495929 100.949117 
L 64.495929 98.885728 
L 64.874491 98.885728 
L 64.874491 94.243101 
L 65.253053 94.243101 
L 65.253053 93.727254 
L 65.631615 93.727254 
L 65.631615 92.695559 
L 66.010176 92.695559 
L 66.010176 92.179712 
L 66.388738 92.179712 
L 66.388738 89.084627 
L 66.7673 89.084627 
L 66.7673 87.537085 
L 67.145862 87.537085 
L 67.145862 85.989543 
L 67.524423 85.989543 
L 67.524423 85.473695 
L 67.902985 85.473695 
L 67.902985 84.957848 
L 69.03867 84.957848 
L 69.03867 84.442 
L 70.552917 84.442 
L 70.552917 83.410306 
L 70.931479 83.410306 
L 70.931479 79.799374 
L 71.310041 79.799374 
L 71.310041 78.767679 
L 72.067164 78.767679 
L 72.067164 78.251831 
L 72.445726 78.251831 
L 72.445726 77.220137 
L 72.824288 77.220137 
L 72.824288 76.704289 
L 73.202849 76.704289 
L 73.202849 75.672594 
L 73.959973 75.672594 
L 73.959973 75.156747 
L 75.852782 75.156747 
L 75.852782 74.6409 
L 76.609905 74.6409 
L 76.609905 74.125052 
L 79.638399 74.125052 
L 79.638399 73.609205 
L 80.016961 73.609205 
L 80.016961 73.093357 
L 80.395522 73.093357 
L 80.395522 71.029968 
L 80.774084 71.029968 
L 80.774084 70.51412 
L 84.18114 70.51412 
L 84.18114 69.998273 
L 86.073948 69.998273 
L 86.073948 68.966578 
L 87.209634 68.966578 
L 87.209634 68.450731 
L 87.966757 68.450731 
L 87.966757 67.934883 
L 88.723881 67.934883 
L 88.723881 67.419036 
L 90.995251 67.419036 
L 90.995251 66.387341 
L 92.88806 66.387341 
L 92.88806 65.871494 
L 93.266621 65.871494 
L 93.266621 64.839799 
L 93.645183 64.839799 
L 93.645183 63.808104 
L 94.402307 63.808104 
L 94.402307 63.292257 
L 96.673677 63.292257 
L 96.673677 62.776409 
L 98.566486 62.776409 
L 98.566486 62.260562 
L 102.352103 62.260562 
L 102.352103 61.228867 
L 102.730665 61.228867 
L 102.730665 60.71302 
L 103.109227 60.71302 
L 103.109227 59.681325 
L 104.244912 59.681325 
L 104.244912 59.165477 
L 108.409091 59.165477 
L 108.409091 58.64963 
L 112.194708 58.64963 
L 112.194708 58.133783 
L 118.630258 58.133783 
L 118.630258 57.617935 
L 125.065807 57.617935 
L 125.065807 57.102088 
L 142.101085 57.102088 
L 142.101085 56.58624 
L 157.243555 56.58624 
L 157.243555 56.070393 
L 212.513569 56.070393 
L 212.513569 55.554545 
L 311.318182 55.554545 
L 311.318182 55.554545 
" style="fill:none;stroke:#1f77b4;stroke-linecap:square;stroke-width:1.5;"/>
   </g>
   <g id="line2d_14">
    <path clip-path="url(#p370c49cbfa)" d="M 57.681818 302.645455 
L 57.681818 301.594004 
L 57.681818 299.491103 
L 57.681818 298.439652 
L 57.681818 295.2853 
L 57.681818 294.233849 
L 57.681818 290.028046 
L 57.681818 285.822244 
L 57.681818 283.719342 
L 57.681818 281.616441 
L 57.681818 280.56499 
L 57.681818 278.462089 
L 57.681818 272.153385 
L 57.681818 265.844681 
L 57.681818 263.741779 
L 57.681818 261.638878 
L 57.681818 233.24971 
L 57.681818 230.095358 
L 57.681818 226.941006 
L 57.681818 224.838104 
L 57.681818 209.066344 
L 57.681818 206.963443 
L 57.681818 194.346035 
L 57.95932 194.346035 
L 57.95932 136.516248 
L 58.236821 136.516248 
L 58.236821 135.464797 
L 58.514323 135.464797 
L 58.514323 130.207544 
L 59.069326 130.207544 
L 59.069326 128.104642 
L 59.346827 128.104642 
L 59.346827 126.001741 
L 59.624329 126.001741 
L 59.624329 123.898839 
L 60.179332 123.898839 
L 60.179332 122.847389 
L 60.456833 122.847389 
L 60.456833 109.17853 
L 61.011836 109.17853 
L 61.011836 107.075629 
L 61.289338 107.075629 
L 61.289338 102.869826 
L 61.566839 102.869826 
L 61.566839 93.40677 
L 62.121842 93.40677 
L 62.121842 92.355319 
L 62.399344 92.355319 
L 62.399344 91.303868 
L 62.954347 91.303868 
L 62.954347 90.252418 
L 63.231848 90.252418 
L 63.231848 89.200967 
L 66.561866 89.200967 
L 66.561866 88.149516 
L 67.671872 88.149516 
L 67.671872 87.098066 
L 68.781878 87.098066 
L 68.781878 84.995164 
L 69.614382 84.995164 
L 69.614382 83.943714 
L 70.724388 83.943714 
L 70.724388 82.892263 
L 72.666899 82.892263 
L 72.666899 81.840812 
L 74.609409 81.840812 
L 74.609409 79.737911 
L 75.164412 79.737911 
L 75.164412 77.63501 
L 76.274418 77.63501 
L 76.274418 76.583559 
L 78.216929 76.583559 
L 78.216929 75.532108 
L 79.049433 75.532108 
L 79.049433 74.480658 
L 79.604436 74.480658 
L 79.604436 73.429207 
L 82.101949 73.429207 
L 82.101949 72.377756 
L 84.321961 72.377756 
L 84.321961 71.326306 
L 85.431967 71.326306 
L 85.431967 70.274855 
L 86.541973 70.274855 
L 86.541973 69.223404 
L 87.929481 69.223404 
L 87.929481 68.171954 
L 89.871991 68.171954 
L 89.871991 67.120503 
L 93.757012 67.120503 
L 93.757012 66.069052 
L 96.254526 66.069052 
L 96.254526 65.017602 
L 97.08703 65.017602 
L 97.08703 63.966151 
L 98.474537 63.966151 
L 98.474537 62.9147 
L 101.804555 62.9147 
L 101.804555 61.86325 
L 107.632087 61.86325 
L 107.632087 60.811799 
L 110.684603 60.811799 
L 110.684603 59.760348 
L 132.32972 59.760348 
L 132.32972 58.708897 
L 143.984782 58.708897 
L 143.984782 57.657447 
L 145.649791 57.657447 
L 145.649791 56.605996 
L 252.487866 56.605996 
L 252.487866 55.554545 
L 311.318182 55.554545 
" style="fill:none;stroke:#ff7f0e;stroke-linecap:square;stroke-width:1.5;"/>
   </g>
   <g id="line2d_15">
    <path clip-path="url(#p370c49cbfa)" d="M 57.681818 302.645455 
L 57.681818 294.776317 
L 57.681818 291.628662 
L 57.681818 285.333353 
L 57.681818 280.61187 
L 57.681818 274.316561 
L 57.681818 269.595078 
L 57.681818 266.447423 
L 57.681818 264.873596 
L 57.681818 261.725941 
L 57.681818 216.084945 
L 57.681818 212.93729 
L 57.681818 179.886914 
L 57.9375 179.886914 
L 57.9375 151.55802 
L 58.448864 151.55802 
L 58.448864 149.984192 
L 58.960227 149.984192 
L 58.960227 146.836537 
L 59.471591 146.836537 
L 59.471591 145.26271 
L 59.982955 145.26271 
L 59.982955 143.688882 
L 60.494318 143.688882 
L 60.494318 137.393573 
L 61.261364 137.393573 
L 61.261364 126.376781 
L 61.772727 126.376781 
L 61.772727 124.802953 
L 62.539773 124.802953 
L 62.539773 123.229126 
L 62.795455 123.229126 
L 62.795455 121.655298 
L 63.306818 121.655298 
L 63.306818 118.507643 
L 63.5625 118.507643 
L 63.5625 115.359988 
L 64.585227 115.359988 
L 64.585227 113.786161 
L 64.840909 113.786161 
L 64.840909 110.638506 
L 65.352273 110.638506 
L 65.352273 109.064679 
L 65.607955 109.064679 
L 65.607955 107.490851 
L 66.630682 107.490851 
L 66.630682 105.917024 
L 67.142045 105.917024 
L 67.142045 104.343196 
L 68.420455 104.343196 
L 68.420455 102.769369 
L 68.676136 102.769369 
L 68.676136 99.621714 
L 68.931818 99.621714 
L 68.931818 98.047887 
L 70.721591 98.047887 
L 70.721591 96.474059 
L 71.488636 96.474059 
L 71.488636 94.900232 
L 72.255682 94.900232 
L 72.255682 93.326404 
L 76.346591 93.326404 
L 76.346591 91.752577 
L 77.369318 91.752577 
L 77.369318 90.178749 
L 77.625 90.178749 
L 77.625 88.604922 
L 80.181818 88.604922 
L 80.181818 87.031094 
L 83.761364 87.031094 
L 83.761364 85.457267 
L 90.409091 85.457267 
L 90.409091 82.309612 
L 92.965909 82.309612 
L 92.965909 80.735785 
L 93.988636 80.735785 
L 93.988636 77.58813 
L 94.244318 77.58813 
L 94.244318 76.014302 
L 95.778409 76.014302 
L 95.778409 74.440475 
L 100.892045 74.440475 
L 100.892045 72.866647 
L 102.681818 72.866647 
L 102.681818 71.29282 
L 110.352273 71.29282 
L 110.352273 69.718992 
L 114.443182 69.718992 
L 114.443182 68.145165 
L 118.022727 68.145165 
L 118.022727 66.571338 
L 121.602273 66.571338 
L 121.602273 64.99751 
L 152.028409 64.99751 
L 152.028409 63.423683 
L 178.875 63.423683 
L 178.875 61.849855 
L 181.943182 61.849855 
L 181.943182 60.276028 
L 186.034091 60.276028 
L 186.034091 58.7022 
L 198.051136 58.7022 
L 198.051136 57.128373 
L 243.306818 57.128373 
L 243.306818 55.554545 
L 311.318182 55.554545 
" style="fill:none;stroke:#2ca02c;stroke-linecap:square;stroke-width:1.5;"/>
   </g>
   <g id="line2d_16">
    <path clip-path="url(#p370c49cbfa)" d="M 57.681818 302.645455 
L 57.681818 301.556948 
L 57.681818 299.379936 
L 57.681818 296.114417 
L 57.681818 289.58338 
L 57.681818 285.229355 
L 57.681818 279.786824 
L 57.681818 277.609812 
L 57.681818 264.547737 
L 57.681818 262.370725 
L 57.681818 258.0167 
L 57.681818 255.839688 
L 57.681818 251.485663 
L 57.681818 249.30865 
L 57.681818 244.954626 
L 57.681818 242.777613 
L 57.681818 230.804045 
L 57.956912 230.804045 
L 57.956912 229.715539 
L 57.956912 227.538526 
L 58.232006 227.538526 
L 58.232006 217.74197 
L 58.232006 215.564958 
L 58.232006 199.237365 
L 58.507099 199.237365 
L 58.507099 165.493672 
L 58.782193 165.493672 
L 58.782193 152.431598 
L 59.33238 152.431598 
L 59.33238 142.635042 
L 59.607474 142.635042 
L 59.607474 140.45803 
L 59.882568 140.45803 
L 59.882568 130.661474 
L 60.157661 130.661474 
L 60.157661 128.484461 
L 60.432755 128.484461 
L 60.432755 127.395955 
L 60.707849 127.395955 
L 60.707849 125.218943 
L 60.982942 125.218943 
L 60.982942 117.599399 
L 61.258036 117.599399 
L 61.258036 115.422387 
L 61.808223 115.422387 
L 61.808223 112.156868 
L 62.083317 112.156868 
L 62.083317 108.89135 
L 62.358411 108.89135 
L 62.358411 106.714337 
L 62.633504 106.714337 
L 62.633504 104.537325 
L 63.183692 104.537325 
L 63.183692 102.360312 
L 63.733879 102.360312 
L 63.733879 101.271806 
L 65.384441 101.271806 
L 65.384441 100.1833 
L 65.659535 100.1833 
L 65.659535 99.094794 
L 68.410471 99.094794 
L 68.410471 98.006288 
L 68.685565 98.006288 
L 68.685565 95.829275 
L 68.960659 95.829275 
L 68.960659 91.47525 
L 69.510846 91.47525 
L 69.510846 88.209732 
L 72.536876 88.209732 
L 72.536876 87.121225 
L 74.462532 87.121225 
L 74.462532 86.032719 
L 75.012719 86.032719 
L 75.012719 83.855707 
L 75.562907 83.855707 
L 75.562907 82.767201 
L 76.113094 82.767201 
L 76.113094 81.678694 
L 79.689312 81.678694 
L 79.689312 80.590188 
L 80.514593 80.590188 
L 80.514593 79.501682 
L 81.06478 79.501682 
L 81.06478 78.413176 
L 81.614967 78.413176 
L 81.614967 76.236163 
L 82.715342 76.236163 
L 82.715342 75.147657 
L 83.265529 75.147657 
L 83.265529 72.970645 
L 83.815717 72.970645 
L 83.815717 71.882139 
L 84.640998 71.882139 
L 84.640998 70.793632 
L 88.492309 70.793632 
L 88.492309 68.61662 
L 91.793433 68.61662 
L 91.793433 67.528114 
L 93.994183 67.528114 
L 93.994183 65.351101 
L 96.470026 65.351101 
L 96.470026 64.262595 
L 100.321337 64.262595 
L 100.321337 63.174089 
L 111.600177 63.174089 
L 111.600177 62.085583 
L 112.700552 62.085583 
L 112.700552 60.997076 
L 116.551864 60.997076 
L 116.551864 59.90857 
L 120.403175 59.90857 
L 120.403175 58.820064 
L 135.258233 58.820064 
L 135.258233 57.731558 
L 151.763853 57.731558 
L 151.763853 56.643052 
L 184.775094 56.643052 
L 184.775094 55.554545 
L 311.318182 55.554545 
" style="fill:none;stroke:#d62728;stroke-linecap:square;stroke-width:1.5;"/>
   </g>
   <g id="line2d_17">
    <path clip-path="url(#p370c49cbfa)" d="M 57.681818 302.645455 
L 57.681818 259.041176 
L 57.681818 254.196257 
L 57.681818 234.816578 
L 57.681818 133.073262 
L 57.912817 133.073262 
L 57.912817 118.538503 
L 58.605812 118.538503 
L 58.605812 113.693583 
L 58.836811 113.693583 
L 58.836811 108.848663 
L 61.377794 108.848663 
L 61.377794 104.003743 
L 67.845753 104.003743 
L 67.845753 99.158824 
L 73.389717 99.158824 
L 73.389717 94.313904 
L 73.851714 94.313904 
L 73.851714 89.468984 
L 87.711624 89.468984 
L 87.711624 84.624064 
L 92.100596 84.624064 
L 92.100596 79.779144 
L 97.64456 79.779144 
L 97.64456 74.934225 
L 102.957526 74.934225 
L 102.957526 70.089305 
L 113.814456 70.089305 
L 113.814456 65.244385 
L 122.592399 65.244385 
L 122.592399 60.399465 
L 127.905365 60.399465 
L 127.905365 55.554545 
L 311.318182 55.554545 
" style="fill:none;stroke:#9467bd;stroke-linecap:square;stroke-width:1.5;"/>
   </g>
   <g id="patch_3">
    <path d="M 45 315 
L 45 43.2 
" style="fill:none;stroke:#000000;stroke-linecap:square;stroke-linejoin:miter;stroke-width:0.8;"/>
   </g>
   <g id="patch_4">
    <path d="M 324 315 
L 324 43.2 
" style="fill:none;stroke:#000000;stroke-linecap:square;stroke-linejoin:miter;stroke-width:0.8;"/>
   </g>
   <g id="patch_5">
    <path d="M 45 315 
L 324 315 
" style="fill:none;stroke:#000000;stroke-linecap:square;stroke-linejoin:miter;stroke-width:0.8;"/>
   </g>
   <g id="patch_6">
    <path d="M 45 43.2 
L 324 43.2 
" style="fill:none;stroke:#000000;stroke-linecap:square;stroke-linejoin:miter;stroke-width:0.8;"/>
   </g>
   <g id="legend_1">
    <g id="patch_7">
     <path d="M 206.826562 310 
L 317 310 
Q 319 310 319 308 
L 319 235.609375 
Q 319 233.609375 317 233.609375 
L 206.826562 233.609375 
Q 204.826562 233.609375 204.826562 235.609375 
L 204.826562 308 
Q 204.826562 310 206.826562 310 
z
" style="fill:#ffffff;opacity:0.8;stroke:#cccccc;stroke-linejoin:miter;"/>
    </g>
    <g id="line2d_18">
     <path d="M 208.826562 241.707812 
L 228.826562 241.707812 
" style="fill:none;stroke:#1f77b4;stroke-linecap:square;stroke-width:1.5;"/>
    </g>
    <g id="line2d_19"/>
    <g id="text_13">
     <!-- antiinfective -->
     <defs>
      <path d="M 34.28125 27.484375 
Q 23.390625 27.484375 19.1875 25 
Q 14.984375 22.515625 14.984375 16.5 
Q 14.984375 11.71875 18.140625 8.90625 
Q 21.296875 6.109375 26.703125 6.109375 
Q 34.1875 6.109375 38.703125 11.40625 
Q 43.21875 16.703125 43.21875 25.484375 
L 43.21875 27.484375 
z
M 52.203125 31.203125 
L 52.203125 0 
L 43.21875 0 
L 43.21875 8.296875 
Q 40.140625 3.328125 35.546875 0.953125 
Q 30.953125 -1.421875 24.3125 -1.421875 
Q 15.921875 -1.421875 10.953125 3.296875 
Q 6 8.015625 6 15.921875 
Q 6 25.140625 12.171875 29.828125 
Q 18.359375 34.515625 30.609375 34.515625 
L 43.21875 34.515625 
L 43.21875 35.40625 
Q 43.21875 41.609375 39.140625 45 
Q 35.0625 48.390625 27.6875 48.390625 
Q 23 48.390625 18.546875 47.265625 
Q 14.109375 46.140625 10.015625 43.890625 
L 10.015625 52.203125 
Q 14.9375 54.109375 19.578125 55.046875 
Q 24.21875 56 28.609375 56 
Q 40.484375 56 46.34375 49.84375 
Q 52.203125 43.703125 52.203125 31.203125 
z
" id="DejaVuSans-97"/>
      <path d="M 54.890625 33.015625 
L 54.890625 0 
L 45.90625 0 
L 45.90625 32.71875 
Q 45.90625 40.484375 42.875 44.328125 
Q 39.84375 48.1875 33.796875 48.1875 
Q 26.515625 48.1875 22.3125 43.546875 
Q 18.109375 38.921875 18.109375 30.90625 
L 18.109375 0 
L 9.078125 0 
L 9.078125 54.6875 
L 18.109375 54.6875 
L 18.109375 46.1875 
Q 21.34375 51.125 25.703125 53.5625 
Q 30.078125 56 35.796875 56 
Q 45.21875 56 50.046875 50.171875 
Q 54.890625 44.34375 54.890625 33.015625 
z
" id="DejaVuSans-110"/>
      <path d="M 18.3125 70.21875 
L 18.3125 54.6875 
L 36.8125 54.6875 
L 36.8125 47.703125 
L 18.3125 47.703125 
L 18.3125 18.015625 
Q 18.3125 11.328125 20.140625 9.421875 
Q 21.96875 7.515625 27.59375 7.515625 
L 36.8125 7.515625 
L 36.8125 0 
L 27.59375 0 
Q 17.1875 0 13.234375 3.875 
Q 9.28125 7.765625 9.28125 18.015625 
L 9.28125 47.703125 
L 2.6875 47.703125 
L 2.6875 54.6875 
L 9.28125 54.6875 
L 9.28125 70.21875 
z
" id="DejaVuSans-116"/>
      <path d="M 9.421875 54.6875 
L 18.40625 54.6875 
L 18.40625 0 
L 9.421875 0 
z
M 9.421875 75.984375 
L 18.40625 75.984375 
L 18.40625 64.59375 
L 9.421875 64.59375 
z
" id="DejaVuSans-105"/>
      <path d="M 37.109375 75.984375 
L 37.109375 68.5 
L 28.515625 68.5 
Q 23.6875 68.5 21.796875 66.546875 
Q 19.921875 64.59375 19.921875 59.515625 
L 19.921875 54.6875 
L 34.71875 54.6875 
L 34.71875 47.703125 
L 19.921875 47.703125 
L 19.921875 0 
L 10.890625 0 
L 10.890625 47.703125 
L 2.296875 47.703125 
L 2.296875 54.6875 
L 10.890625 54.6875 
L 10.890625 58.5 
Q 10.890625 67.625 15.140625 71.796875 
Q 19.390625 75.984375 28.609375 75.984375 
z
" id="DejaVuSans-102"/>
      <path d="M 56.203125 29.59375 
L 56.203125 25.203125 
L 14.890625 25.203125 
Q 15.484375 15.921875 20.484375 11.0625 
Q 25.484375 6.203125 34.421875 6.203125 
Q 39.59375 6.203125 44.453125 7.46875 
Q 49.3125 8.734375 54.109375 11.28125 
L 54.109375 2.78125 
Q 49.265625 0.734375 44.1875 -0.34375 
Q 39.109375 -1.421875 33.890625 -1.421875 
Q 20.796875 -1.421875 13.15625 6.1875 
Q 5.515625 13.8125 5.515625 26.8125 
Q 5.515625 40.234375 12.765625 48.109375 
Q 20.015625 56 32.328125 56 
Q 43.359375 56 49.78125 48.890625 
Q 56.203125 41.796875 56.203125 29.59375 
z
M 47.21875 32.234375 
Q 47.125 39.59375 43.09375 43.984375 
Q 39.0625 48.390625 32.421875 48.390625 
Q 24.90625 48.390625 20.390625 44.140625 
Q 15.875 39.890625 15.1875 32.171875 
z
" id="DejaVuSans-101"/>
      <path d="M 48.78125 52.59375 
L 48.78125 44.1875 
Q 44.96875 46.296875 41.140625 47.34375 
Q 37.3125 48.390625 33.40625 48.390625 
Q 24.65625 48.390625 19.8125 42.84375 
Q 14.984375 37.3125 14.984375 27.296875 
Q 14.984375 17.28125 19.8125 11.734375 
Q 24.65625 6.203125 33.40625 6.203125 
Q 37.3125 6.203125 41.140625 7.25 
Q 44.96875 8.296875 48.78125 10.40625 
L 48.78125 2.09375 
Q 45.015625 0.34375 40.984375 -0.53125 
Q 36.96875 -1.421875 32.421875 -1.421875 
Q 20.0625 -1.421875 12.78125 6.34375 
Q 5.515625 14.109375 5.515625 27.296875 
Q 5.515625 40.671875 12.859375 48.328125 
Q 20.21875 56 33.015625 56 
Q 37.15625 56 41.109375 55.140625 
Q 45.0625 54.296875 48.78125 52.59375 
z
" id="DejaVuSans-99"/>
      <path d="M 2.984375 54.6875 
L 12.5 54.6875 
L 29.59375 8.796875 
L 46.6875 54.6875 
L 56.203125 54.6875 
L 35.6875 0 
L 23.484375 0 
z
" id="DejaVuSans-118"/>
     </defs>
     <g transform="translate(236.826562 245.207812)scale(0.1 -0.1)">
      <use xlink:href="#DejaVuSans-97"/>
      <use x="61.279297" xlink:href="#DejaVuSans-110"/>
      <use x="124.658203" xlink:href="#DejaVuSans-116"/>
      <use x="163.867188" xlink:href="#DejaVuSans-105"/>
      <use x="191.650391" xlink:href="#DejaVuSans-105"/>
      <use x="219.433594" xlink:href="#DejaVuSans-110"/>
      <use x="282.8125" xlink:href="#DejaVuSans-102"/>
      <use x="318.017578" xlink:href="#DejaVuSans-101"/>
      <use x="379.541016" xlink:href="#DejaVuSans-99"/>
      <use x="434.521484" xlink:href="#DejaVuSans-116"/>
      <use x="473.730469" xlink:href="#DejaVuSans-105"/>
      <use x="501.513672" xlink:href="#DejaVuSans-118"/>
      <use x="560.693359" xlink:href="#DejaVuSans-101"/>
     </g>
    </g>
    <g id="line2d_20">
     <path d="M 208.826562 256.385938 
L 228.826562 256.385938 
" style="fill:none;stroke:#ff7f0e;stroke-linecap:square;stroke-width:1.5;"/>
    </g>
    <g id="line2d_21"/>
    <g id="text_14">
     <!-- antineoplastic -->
     <defs>
      <path d="M 30.609375 48.390625 
Q 23.390625 48.390625 19.1875 42.75 
Q 14.984375 37.109375 14.984375 27.296875 
Q 14.984375 17.484375 19.15625 11.84375 
Q 23.34375 6.203125 30.609375 6.203125 
Q 37.796875 6.203125 41.984375 11.859375 
Q 46.1875 17.53125 46.1875 27.296875 
Q 46.1875 37.015625 41.984375 42.703125 
Q 37.796875 48.390625 30.609375 48.390625 
z
M 30.609375 56 
Q 42.328125 56 49.015625 48.375 
Q 55.71875 40.765625 55.71875 27.296875 
Q 55.71875 13.875 49.015625 6.21875 
Q 42.328125 -1.421875 30.609375 -1.421875 
Q 18.84375 -1.421875 12.171875 6.21875 
Q 5.515625 13.875 5.515625 27.296875 
Q 5.515625 40.765625 12.171875 48.375 
Q 18.84375 56 30.609375 56 
z
" id="DejaVuSans-111"/>
      <path d="M 18.109375 8.203125 
L 18.109375 -20.796875 
L 9.078125 -20.796875 
L 9.078125 54.6875 
L 18.109375 54.6875 
L 18.109375 46.390625 
Q 20.953125 51.265625 25.265625 53.625 
Q 29.59375 56 35.59375 56 
Q 45.5625 56 51.78125 48.09375 
Q 58.015625 40.1875 58.015625 27.296875 
Q 58.015625 14.40625 51.78125 6.484375 
Q 45.5625 -1.421875 35.59375 -1.421875 
Q 29.59375 -1.421875 25.265625 0.953125 
Q 20.953125 3.328125 18.109375 8.203125 
z
M 48.6875 27.296875 
Q 48.6875 37.203125 44.609375 42.84375 
Q 40.53125 48.484375 33.40625 48.484375 
Q 26.265625 48.484375 22.1875 42.84375 
Q 18.109375 37.203125 18.109375 27.296875 
Q 18.109375 17.390625 22.1875 11.75 
Q 26.265625 6.109375 33.40625 6.109375 
Q 40.53125 6.109375 44.609375 11.75 
Q 48.6875 17.390625 48.6875 27.296875 
z
" id="DejaVuSans-112"/>
      <path d="M 9.421875 75.984375 
L 18.40625 75.984375 
L 18.40625 0 
L 9.421875 0 
z
" id="DejaVuSans-108"/>
      <path d="M 44.28125 53.078125 
L 44.28125 44.578125 
Q 40.484375 46.53125 36.375 47.5 
Q 32.28125 48.484375 27.875 48.484375 
Q 21.1875 48.484375 17.84375 46.4375 
Q 14.5 44.390625 14.5 40.28125 
Q 14.5 37.15625 16.890625 35.375 
Q 19.28125 33.59375 26.515625 31.984375 
L 29.59375 31.296875 
Q 39.15625 29.25 43.1875 25.515625 
Q 47.21875 21.78125 47.21875 15.09375 
Q 47.21875 7.46875 41.1875 3.015625 
Q 35.15625 -1.421875 24.609375 -1.421875 
Q 20.21875 -1.421875 15.453125 -0.5625 
Q 10.6875 0.296875 5.421875 2 
L 5.421875 11.28125 
Q 10.40625 8.6875 15.234375 7.390625 
Q 20.0625 6.109375 24.8125 6.109375 
Q 31.15625 6.109375 34.5625 8.28125 
Q 37.984375 10.453125 37.984375 14.40625 
Q 37.984375 18.0625 35.515625 20.015625 
Q 33.0625 21.96875 24.703125 23.78125 
L 21.578125 24.515625 
Q 13.234375 26.265625 9.515625 29.90625 
Q 5.8125 33.546875 5.8125 39.890625 
Q 5.8125 47.609375 11.28125 51.796875 
Q 16.75 56 26.8125 56 
Q 31.78125 56 36.171875 55.265625 
Q 40.578125 54.546875 44.28125 53.078125 
z
" id="DejaVuSans-115"/>
     </defs>
     <g transform="translate(236.826562 259.885938)scale(0.1 -0.1)">
      <use xlink:href="#DejaVuSans-97"/>
      <use x="61.279297" xlink:href="#DejaVuSans-110"/>
      <use x="124.658203" xlink:href="#DejaVuSans-116"/>
      <use x="163.867188" xlink:href="#DejaVuSans-105"/>
      <use x="191.650391" xlink:href="#DejaVuSans-110"/>
      <use x="255.029297" xlink:href="#DejaVuSans-101"/>
      <use x="316.552734" xlink:href="#DejaVuSans-111"/>
      <use x="377.734375" xlink:href="#DejaVuSans-112"/>
      <use x="441.210938" xlink:href="#DejaVuSans-108"/>
      <use x="468.994141" xlink:href="#DejaVuSans-97"/>
      <use x="530.273438" xlink:href="#DejaVuSans-115"/>
      <use x="582.373047" xlink:href="#DejaVuSans-116"/>
      <use x="621.582031" xlink:href="#DejaVuSans-105"/>
      <use x="649.365234" xlink:href="#DejaVuSans-99"/>
     </g>
    </g>
    <g id="line2d_22">
     <path d="M 208.826562 271.064062 
L 228.826562 271.064062 
" style="fill:none;stroke:#2ca02c;stroke-linecap:square;stroke-width:1.5;"/>
    </g>
    <g id="line2d_23"/>
    <g id="text_15">
     <!-- cardio -->
     <defs>
      <path d="M 41.109375 46.296875 
Q 39.59375 47.171875 37.8125 47.578125 
Q 36.03125 48 33.890625 48 
Q 26.265625 48 22.1875 43.046875 
Q 18.109375 38.09375 18.109375 28.8125 
L 18.109375 0 
L 9.078125 0 
L 9.078125 54.6875 
L 18.109375 54.6875 
L 18.109375 46.1875 
Q 20.953125 51.171875 25.484375 53.578125 
Q 30.03125 56 36.53125 56 
Q 37.453125 56 38.578125 55.875 
Q 39.703125 55.765625 41.0625 55.515625 
z
" id="DejaVuSans-114"/>
      <path d="M 45.40625 46.390625 
L 45.40625 75.984375 
L 54.390625 75.984375 
L 54.390625 0 
L 45.40625 0 
L 45.40625 8.203125 
Q 42.578125 3.328125 38.25 0.953125 
Q 33.9375 -1.421875 27.875 -1.421875 
Q 17.96875 -1.421875 11.734375 6.484375 
Q 5.515625 14.40625 5.515625 27.296875 
Q 5.515625 40.1875 11.734375 48.09375 
Q 17.96875 56 27.875 56 
Q 33.9375 56 38.25 53.625 
Q 42.578125 51.265625 45.40625 46.390625 
z
M 14.796875 27.296875 
Q 14.796875 17.390625 18.875 11.75 
Q 22.953125 6.109375 30.078125 6.109375 
Q 37.203125 6.109375 41.296875 11.75 
Q 45.40625 17.390625 45.40625 27.296875 
Q 45.40625 37.203125 41.296875 42.84375 
Q 37.203125 48.484375 30.078125 48.484375 
Q 22.953125 48.484375 18.875 42.84375 
Q 14.796875 37.203125 14.796875 27.296875 
z
" id="DejaVuSans-100"/>
     </defs>
     <g transform="translate(236.826562 274.564062)scale(0.1 -0.1)">
      <use xlink:href="#DejaVuSans-99"/>
      <use x="54.980469" xlink:href="#DejaVuSans-97"/>
      <use x="116.259766" xlink:href="#DejaVuSans-114"/>
      <use x="157.357422" xlink:href="#DejaVuSans-100"/>
      <use x="220.833984" xlink:href="#DejaVuSans-105"/>
      <use x="248.617188" xlink:href="#DejaVuSans-111"/>
     </g>
    </g>
    <g id="line2d_24">
     <path d="M 208.826562 285.742188 
L 228.826562 285.742188 
" style="fill:none;stroke:#d62728;stroke-linecap:square;stroke-width:1.5;"/>
    </g>
    <g id="line2d_25"/>
    <g id="text_16">
     <!-- cns -->
     <g transform="translate(236.826562 289.242188)scale(0.1 -0.1)">
      <use xlink:href="#DejaVuSans-99"/>
      <use x="54.980469" xlink:href="#DejaVuSans-110"/>
      <use x="118.359375" xlink:href="#DejaVuSans-115"/>
     </g>
    </g>
    <g id="line2d_26">
     <path d="M 208.826562 300.420313 
L 228.826562 300.420313 
" style="fill:none;stroke:#9467bd;stroke-linecap:square;stroke-width:1.5;"/>
    </g>
    <g id="line2d_27"/>
    <g id="text_17">
     <!-- gastrointestinal -->
     <defs>
      <path d="M 45.40625 27.984375 
Q 45.40625 37.75 41.375 43.109375 
Q 37.359375 48.484375 30.078125 48.484375 
Q 22.859375 48.484375 18.828125 43.109375 
Q 14.796875 37.75 14.796875 27.984375 
Q 14.796875 18.265625 18.828125 12.890625 
Q 22.859375 7.515625 30.078125 7.515625 
Q 37.359375 7.515625 41.375 12.890625 
Q 45.40625 18.265625 45.40625 27.984375 
z
M 54.390625 6.78125 
Q 54.390625 -7.171875 48.1875 -13.984375 
Q 42 -20.796875 29.203125 -20.796875 
Q 24.46875 -20.796875 20.265625 -20.09375 
Q 16.0625 -19.390625 12.109375 -17.921875 
L 12.109375 -9.1875 
Q 16.0625 -11.328125 19.921875 -12.34375 
Q 23.78125 -13.375 27.78125 -13.375 
Q 36.625 -13.375 41.015625 -8.765625 
Q 45.40625 -4.15625 45.40625 5.171875 
L 45.40625 9.625 
Q 42.625 4.78125 38.28125 2.390625 
Q 33.9375 0 27.875 0 
Q 17.828125 0 11.671875 7.65625 
Q 5.515625 15.328125 5.515625 27.984375 
Q 5.515625 40.671875 11.671875 48.328125 
Q 17.828125 56 27.875 56 
Q 33.9375 56 38.28125 53.609375 
Q 42.625 51.21875 45.40625 46.390625 
L 45.40625 54.6875 
L 54.390625 54.6875 
z
" id="DejaVuSans-103"/>
     </defs>
     <g transform="translate(236.826562 303.920313)scale(0.1 -0.1)">
      <use xlink:href="#DejaVuSans-103"/>
      <use x="63.476562" xlink:href="#DejaVuSans-97"/>
      <use x="124.755859" xlink:href="#DejaVuSans-115"/>
      <use x="176.855469" xlink:href="#DejaVuSans-116"/>
      <use x="216.064453" xlink:href="#DejaVuSans-114"/>
      <use x="257.146484" xlink:href="#DejaVuSans-111"/>
      <use x="318.328125" xlink:href="#DejaVuSans-105"/>
      <use x="346.111328" xlink:href="#DejaVuSans-110"/>
      <use x="409.490234" xlink:href="#DejaVuSans-116"/>
      <use x="448.699219" xlink:href="#DejaVuSans-101"/>
      <use x="510.222656" xlink:href="#DejaVuSans-115"/>
      <use x="562.322266" xlink:href="#DejaVuSans-116"/>
      <use x="601.53125" xlink:href="#DejaVuSans-105"/>
      <use x="629.314453" xlink:href="#DejaVuSans-110"/>
      <use x="692.693359" xlink:href="#DejaVuSans-97"/>
      <use x="753.972656" xlink:href="#DejaVuSans-108"/>
     </g>
    </g>
   </g>
  </g>
 </g>
 <defs>
  <clipPath id="p370c49cbfa">
   <rect height="271.8" width="279" x="45" y="43.2"/>
  </clipPath>
 </defs>
</svg>
